<?xml version="1.0" standalone="no"?>
 <!DOCTYPE svg PUBLIC "-//W3C//DTD SVG 1.1//EN" 
 "http://www.w3.org/Graphics/SVG/1.1/DTD/svg11.dtd"> 
<svg xmlns="http://www.w3.org/2000/svg" version="1.1" 
    width="29.7002cm" height="21.0007cm" viewBox="0 0 116930 82680 ">
<title>SVG Picture created as HeadphoneAmp-F_SilkS.svg date 2014/06/04 21:15:22 </title>
  <desc>Picture generated by PCBNEW </desc>
<g style="fill:#000000; fill-opacity:1;stroke:#000000; stroke-opacity:1;
stroke-linecap:round; stroke-linejoin:round; "
 transform="translate(0 0) scale(1 1)">
</g>
<g style="fill:#000000; fill-opacity:0.0; 
stroke:#000000; stroke-width:39.3701; stroke-opacity:1; 
stroke-linecap:round; stroke-linejoin:round;">
<path d="M4000 4000
L112930 4000
L112930 78680
L4000 78680
L4000 4000
" />
<path d="M4700 4700
L112230 4700
L112230 77980
L4700 77980
L4700 4700
" />
<path d="M25780 4000
L25780 4700
" />
<path d="M15032 4552
L14747 4552
" />
<path d="M14890 4552
L14890 4052
L14842 4123
L14794 4171
L14747 4195
" />
<path d="M25780 78680
L25780 77980
" />
<path d="M15032 78532
L14747 78532
" />
<path d="M14890 78532
L14890 78032
L14842 78103
L14794 78151
L14747 78175
" />
<path d="M47560 4000
L47560 4700
" />
<path d="M36527 4100
L36550 4076
L36598 4052
L36717 4052
L36765 4076
L36789 4100
L36812 4147
L36812 4195
L36789 4266
L36503 4552
L36812 4552
" />
<path d="M47560 78680
L47560 77980
" />
<path d="M36527 78080
L36550 78056
L36598 78032
L36717 78032
L36765 78056
L36789 78080
L36812 78127
L36812 78175
L36789 78246
L36503 78532
L36812 78532
" />
<path d="M69340 4000
L69340 4700
" />
<path d="M58283 4052
L58592 4052
L58426 4242
L58497 4242
L58545 4266
L58569 4290
L58592 4338
L58592 4457
L58569 4504
L58545 4528
L58497 4552
L58354 4552
L58307 4528
L58283 4504
" />
<path d="M69340 78680
L69340 77980
" />
<path d="M58283 78032
L58592 78032
L58426 78222
L58497 78222
L58545 78246
L58569 78270
L58592 78318
L58592 78437
L58569 78484
L58545 78508
L58497 78532
L58354 78532
L58307 78508
L58283 78484
" />
<path d="M91120 4000
L91120 4700
" />
<path d="M80325 4219
L80325 4552
" />
<path d="M80206 4028
L80087 4385
L80396 4385
" />
<path d="M91120 78680
L91120 77980
" />
<path d="M80325 78199
L80325 78532
" />
<path d="M80206 78008
L80087 78365
L80396 78365
" />
<path d="M102129 4052
L101890 4052
L101867 4290
L101890 4266
L101938 4242
L102057 4242
L102105 4266
L102129 4290
L102152 4338
L102152 4457
L102129 4504
L102105 4528
L102057 4552
L101938 4552
L101890 4528
L101867 4504
" />
<path d="M102129 78032
L101890 78032
L101867 78270
L101890 78246
L101938 78222
L102057 78222
L102105 78246
L102129 78270
L102152 78318
L102152 78437
L102129 78484
L102105 78508
L102057 78532
L101938 78532
L101890 78508
L101867 78484
" />
<path d="M4000 28890
L4700 28890
" />
<path d="M4230 16509
L4469 16509
" />
<path d="M4183 16652
L4350 16152
L4516 16652
" />
<path d="M112930 28890
L112230 28890
" />
<path d="M112460 16509
L112699 16509
" />
<path d="M112413 16652
L112580 16152
L112746 16652
" />
<path d="M4000 53780
L4700 53780
" />
<path d="M4385 41280
L4457 41304
L4480 41328
L4504 41375
L4504 41447
L4480 41494
L4457 41518
L4409 41542
L4219 41542
L4219 41042
L4385 41042
L4433 41066
L4457 41090
L4480 41137
L4480 41185
L4457 41232
L4433 41256
L4385 41280
L4219 41280
" />
<path d="M112930 53780
L112230 53780
" />
<path d="M112615 41280
L112687 41304
L112710 41328
L112734 41375
L112734 41447
L112710 41494
L112687 41518
L112639 41542
L112449 41542
L112449 41042
L112615 41042
L112663 41066
L112687 41090
L112710 41137
L112710 41185
L112687 41232
L112663 41256
L112615 41280
L112449 41280
" />
<path d="M4504 66384
L4480 66408
L4409 66432
L4361 66432
L4290 66408
L4242 66360
L4219 66313
L4195 66218
L4195 66146
L4219 66051
L4242 66003
L4290 65956
L4361 65932
L4409 65932
L4480 65956
L4504 65980
" />
<path d="M112734 66384
L112710 66408
L112639 66432
L112591 66432
L112520 66408
L112472 66360
L112449 66313
L112425 66218
L112425 66146
L112449 66051
L112472 66003
L112520 65956
L112591 65932
L112639 65932
L112710 65956
L112734 65980
" />
<path d="M79380 76422
L79455 75822
L79597 75822
L79680 75851
L79730 75908
L79751 75965
L79765 76080
L79755 76165
L79712 76280
L79676 76337
L79612 76394
L79522 76422
L79380 76422
" />
<path d="M80237 76422
L80276 76108
L80255 76051
L80201 76022
L80087 76022
L80026 76051
" />
<path d="M80240 76394
L80180 76422
L80037 76422
L79983 76394
L79962 76337
L79969 76280
L80005 76222
L80065 76194
L80208 76194
L80269 76165
" />
<path d="M80487 76022
L80715 76022
" />
<path d="M80597 75822
L80533 76337
L80555 76394
L80608 76422
L80665 76422
" />
<path d="M81097 76394
L81037 76422
L80922 76422
L80869 76394
L80847 76337
L80876 76108
L80912 76051
L80972 76022
L81087 76022
L81140 76051
L81162 76108
L81155 76165
L80862 76222
" />
<path d="M81387 76365
L81412 76394
L81380 76422
L81355 76394
L81387 76365
L81380 76422
" />
<path d="M81426 76051
L81451 76080
L81419 76108
L81394 76080
L81426 76051
L81419 76108
" />
<path d="M82437 76422
L82094 76422
" />
<path d="M82265 76422
L82340 75822
L82272 75908
L82208 75965
L82147 75994
" />
<path d="M83201 76022
L83137 76537
L83101 76594
L83040 76622
L83012 76622
" />
<path d="M83226 75822
L83194 75851
L83219 75880
L83251 75851
L83226 75822
L83219 75880
" />
<path d="M83744 76022
L83694 76422
" />
<path d="M83487 76022
L83447 76337
L83469 76394
L83522 76422
L83608 76422
L83669 76394
L83701 76365
" />
<path d="M84030 76022
L83980 76422
" />
<path d="M84022 76080
L84055 76051
L84115 76022
L84201 76022
L84255 76051
L84276 76108
L84237 76422
" />
<path d="M85019 75880
L85051 75851
L85112 75822
L85255 75822
L85308 75851
L85333 75880
L85355 75937
L85347 75994
L85308 76080
L84922 76422
L85294 76422
" />
<path d="M85740 75822
L85797 75822
L85851 75851
L85876 75880
L85897 75937
L85912 76051
L85894 76194
L85851 76308
L85815 76365
L85783 76394
L85722 76422
L85665 76422
L85612 76394
L85587 76365
L85565 76308
L85551 76194
L85569 76051
L85612 75937
L85647 75880
L85680 75851
L85740 75822
" />
<path d="M86437 76422
L86094 76422
" />
<path d="M86265 76422
L86340 75822
L86272 75908
L86208 75965
L86147 75994
" />
<path d="M87001 76022
L86951 76422
" />
<path d="M86887 75794
L86690 76222
L87062 76222
" />
<path d="M70972 77622
L70972 77022
" />
<path d="M71315 77622
L71058 77280
" />
<path d="M71315 77022
L70972 77365
" />
<path d="M71572 77622
L71572 77222
" />
<path d="M71572 77022
L71544 77051
L71572 77080
L71601 77051
L71572 77022
L71572 77080
" />
<path d="M72201 77565
L72172 77594
L72087 77622
L72030 77622
L71944 77594
L71887 77537
L71858 77480
L71830 77365
L71830 77280
L71858 77165
L71887 77108
L71944 77051
L72030 77022
L72087 77022
L72172 77051
L72201 77080
" />
<path d="M72715 77622
L72715 77308
L72687 77251
L72630 77222
L72515 77222
L72458 77251
" />
<path d="M72715 77594
L72658 77622
L72515 77622
L72458 77594
L72430 77537
L72430 77480
L72458 77422
L72515 77394
L72658 77394
L72715 77365
" />
<path d="M73258 77622
L73258 77022
" />
<path d="M73258 77594
L73201 77622
L73087 77622
L73030 77594
L73001 77565
L72972 77508
L72972 77337
L73001 77280
L73030 77251
L73087 77222
L73201 77222
L73258 77251
" />
<path d="M74001 77308
L74201 77308
" />
<path d="M74287 77622
L74001 77622
L74001 77022
L74287 77022
" />
<path d="M74544 77565
L74572 77594
L74544 77622
L74515 77594
L74544 77565
L74544 77622
" />
<path d="M74829 77622
L74829 77022
L74972 77022
L75058 77051
L75115 77108
L75144 77165
L75172 77280
L75172 77365
L75144 77480
L75115 77537
L75058 77594
L74972 77622
L74829 77622
" />
<path d="M75429 77565
L75458 77594
L75429 77622
L75401 77594
L75429 77565
L75429 77622
" />
<path d="M75687 77451
L75972 77451
" />
<path d="M75629 77622
L75829 77022
L76029 77622
" />
<path d="M76229 77565
L76258 77594
L76229 77622
L76201 77594
L76229 77565
L76229 77622
" />
<path d="M104522 76422
L104358 76137
" />
<path d="M104180 76422
L104255 75822
L104483 75822
L104537 75851
L104562 75880
L104583 75937
L104572 76022
L104537 76080
L104505 76108
L104444 76137
L104215 76137
" />
<path d="M105012 76394
L104951 76422
L104837 76422
L104783 76394
L104762 76337
L104790 76108
L104826 76051
L104887 76022
L105001 76022
L105055 76051
L105076 76108
L105069 76165
L104776 76222
" />
<path d="M105287 76022
L105380 76422
L105572 76022
" />
<path d="M105758 76365
L105783 76394
L105751 76422
L105726 76394
L105758 76365
L105751 76422
" />
<path d="M105797 76051
L105822 76080
L105790 76108
L105765 76080
L105797 76051
L105790 76108
" />
<path d="M70944 76394
L71030 76422
L71172 76422
L71230 76394
L71258 76365
L71287 76308
L71287 76251
L71258 76194
L71230 76165
L71172 76137
L71058 76108
L71001 76080
L70972 76051
L70944 75994
L70944 75937
L70972 75880
L71001 75851
L71058 75822
L71201 75822
L71287 75851
" />
<path d="M71544 76422
L71544 76022
" />
<path d="M71544 75822
L71515 75851
L71544 75880
L71572 75851
L71544 75822
L71544 75880
" />
<path d="M71772 76022
L72087 76022
L71772 76422
L72087 76422
" />
<path d="M72544 76394
L72487 76422
L72372 76422
L72315 76394
L72287 76337
L72287 76108
L72315 76051
L72372 76022
L72487 76022
L72544 76051
L72572 76108
L72572 76165
L72287 76222
" />
<path d="M72830 76365
L72858 76394
L72830 76422
L72801 76394
L72830 76365
L72830 76422
" />
<path d="M72830 76051
L72858 76080
L72830 76108
L72801 76080
L72830 76051
L72830 76108
" />
<path d="M73544 76251
L73830 76251
" />
<path d="M73487 76422
L73687 75822
L73887 76422
" />
<path d="M74344 76022
L74344 76422
" />
<path d="M74201 75794
L74058 76222
L74430 76222
" />
<path d="M104172 77622
L104172 77022
" />
<path d="M104715 77622
L104715 77022
" />
<path d="M104715 77594
L104658 77622
L104544 77622
L104487 77594
L104458 77565
L104430 77508
L104430 77337
L104458 77280
L104487 77251
L104544 77222
L104658 77222
L104715 77251
" />
<path d="M105001 77565
L105030 77594
L105001 77622
L104972 77594
L105001 77565
L105001 77622
" />
<path d="M105001 77251
L105030 77280
L105001 77308
L104972 77280
L105001 77251
L105001 77308
" />
<path d="M106058 77622
L105715 77622
" />
<path d="M105887 77622
L105887 77022
L105829 77108
L105772 77165
L105715 77194
" />
<path d="M106744 76994
L106230 77765
" />
<path d="M107258 77622
L106915 77622
" />
<path d="M107087 77622
L107087 77022
L107029 77108
L106972 77165
L106915 77194
" />
<path d="M70969 74622
L71312 74622
" />
<path d="M71065 75222
L71140 74622
" />
<path d="M71437 75222
L71487 74822
" />
<path d="M71512 74622
L71480 74651
L71505 74680
L71537 74651
L71512 74622
L71505 74680
" />
<path d="M71687 74822
L71915 74822
" />
<path d="M71797 74622
L71733 75137
L71755 75194
L71808 75222
L71865 75222
" />
<path d="M72151 75222
L72097 75194
L72076 75137
L72140 74622
" />
<path d="M72612 75194
L72551 75222
L72437 75222
L72383 75194
L72362 75137
L72390 74908
L72426 74851
L72487 74822
L72601 74822
L72655 74851
L72676 74908
L72669 74965
L72376 75022
" />
<path d="M72901 75165
L72926 75194
L72894 75222
L72869 75194
L72901 75165
L72894 75222
" />
<path d="M72940 74851
L72965 74880
L72933 74908
L72908 74880
L72940 74851
L72933 74908
" />
<path d="M71172 72508
L70972 72508
" />
<path d="M70972 72822
L70972 72222
L71258 72222
" />
<path d="M71487 72822
L71487 72422
" />
<path d="M71487 72222
L71458 72251
L71487 72280
L71515 72251
L71487 72222
L71487 72280
" />
<path d="M71858 72822
L71801 72794
L71772 72737
L71772 72222
" />
<path d="M72315 72794
L72258 72822
L72144 72822
L72087 72794
L72058 72737
L72058 72508
L72087 72451
L72144 72422
L72258 72422
L72315 72451
L72344 72508
L72344 72565
L72058 72622
" />
<path d="M72601 72765
L72630 72794
L72601 72822
L72572 72794
L72601 72765
L72601 72822
" />
<path d="M72601 72451
L72630 72480
L72601 72508
L72572 72480
L72601 72451
L72601 72508
" />
<path d="M73344 72822
L73344 72222
" />
<path d="M73344 72508
L73687 72508
" />
<path d="M73687 72822
L73687 72222
" />
<path d="M74201 72794
L74144 72822
L74030 72822
L73972 72794
L73944 72737
L73944 72508
L73972 72451
L74030 72422
L74144 72422
L74201 72451
L74230 72508
L74230 72565
L73944 72622
" />
<path d="M74744 72822
L74744 72508
L74715 72451
L74658 72422
L74544 72422
L74487 72451
" />
<path d="M74744 72794
L74687 72822
L74544 72822
L74487 72794
L74458 72737
L74458 72680
L74487 72622
L74544 72594
L74687 72594
L74744 72565
" />
<path d="M75287 72822
L75287 72222
" />
<path d="M75287 72794
L75230 72822
L75115 72822
L75058 72794
L75030 72765
L75001 72708
L75001 72537
L75030 72480
L75058 72451
L75115 72422
L75230 72422
L75287 72451
" />
<path d="M75572 72422
L75572 73022
" />
<path d="M75572 72451
L75630 72422
L75744 72422
L75801 72451
L75830 72480
L75858 72537
L75858 72708
L75830 72765
L75801 72794
L75744 72822
L75630 72822
L75572 72794
" />
<path d="M76115 72822
L76115 72222
" />
<path d="M76372 72822
L76372 72508
L76344 72451
L76287 72422
L76201 72422
L76144 72451
L76115 72480
" />
<path d="M76744 72822
L76687 72794
L76658 72765
L76630 72708
L76630 72537
L76658 72480
L76687 72451
L76744 72422
L76830 72422
L76887 72451
L76915 72480
L76944 72537
L76944 72708
L76915 72765
L76887 72794
L76830 72822
L76744 72822
" />
<path d="M77201 72422
L77201 72822
" />
<path d="M77201 72480
L77230 72451
L77287 72422
L77372 72422
L77430 72451
L77458 72508
L77458 72822
" />
<path d="M77972 72794
L77915 72822
L77801 72822
L77744 72794
L77715 72737
L77715 72508
L77744 72451
L77801 72422
L77915 72422
L77972 72451
L78001 72508
L78001 72565
L77715 72622
" />
<path d="M78230 72651
L78515 72651
" />
<path d="M78172 72822
L78372 72222
L78572 72822
" />
<path d="M78772 72822
L78772 72422
" />
<path d="M78772 72480
L78801 72451
L78858 72422
L78944 72422
L79001 72451
L79030 72508
L79030 72822
" />
<path d="M79030 72508
L79058 72451
L79115 72422
L79201 72422
L79258 72451
L79287 72508
L79287 72822
" />
<path d="M79572 72422
L79572 73022
" />
<path d="M79572 72451
L79630 72422
L79744 72422
L79801 72451
L79830 72480
L79858 72537
L79858 72708
L79830 72765
L79801 72794
L79744 72822
L79630 72822
L79572 72794
" />
<path d="M80115 72765
L80144 72794
L80115 72822
L80087 72794
L80115 72765
L80115 72822
" />
<path d="M80401 72822
L80401 72222
" />
<path d="M80401 72451
L80458 72422
L80572 72422
L80630 72451
L80658 72480
L80687 72537
L80687 72708
L80658 72765
L80630 72794
L80572 72822
L80458 72822
L80401 72794
" />
<path d="M80944 72822
L80944 72422
" />
<path d="M80944 72537
L80972 72480
L81001 72451
L81058 72422
L81115 72422
" />
<path d="M81572 72822
L81572 72222
" />
<path d="M81572 72794
L81515 72822
L81401 72822
L81344 72794
L81315 72765
L81287 72708
L81287 72537
L81315 72480
L81344 72451
L81401 72422
L81515 72422
L81572 72451
" />
<path d="M70944 73994
L71030 74022
L71172 74022
L71230 73994
L71258 73965
L71287 73908
L71287 73851
L71258 73794
L71230 73765
L71172 73737
L71058 73708
L71001 73680
L70972 73651
L70944 73594
L70944 73537
L70972 73480
L71001 73451
L71058 73422
L71201 73422
L71287 73451
" />
<path d="M71544 74022
L71544 73422
" />
<path d="M71801 74022
L71801 73708
L71772 73651
L71715 73622
L71630 73622
L71572 73651
L71544 73680
" />
<path d="M72315 73994
L72258 74022
L72144 74022
L72087 73994
L72058 73937
L72058 73708
L72087 73651
L72144 73622
L72258 73622
L72315 73651
L72344 73708
L72344 73765
L72058 73822
" />
<path d="M72830 73994
L72772 74022
L72658 74022
L72601 73994
L72572 73937
L72572 73708
L72601 73651
L72658 73622
L72772 73622
L72830 73651
L72858 73708
L72858 73765
L72572 73822
" />
<path d="M73030 73622
L73258 73622
" />
<path d="M73115 73422
L73115 73937
L73144 73994
L73201 74022
L73258 74022
" />
<path d="M73458 73965
L73487 73994
L73458 74022
L73430 73994
L73458 73965
L73458 74022
" />
<path d="M73458 73651
L73487 73680
L73458 73708
L73430 73680
L73458 73651
L73458 73708
" />
<path d="M70230 71980
L70230 77980
" />
<path d="M70230 71980
L112230 71980
" />
<path d="M70230 71980
L112230 71980
" />
<path d="M70230 74380
L112230 74380
" />
<path d="M103430 75580
L103430 77980
" />
<path d="M70230 76780
L112230 76780
" />
<path d="M70230 75580
L112230 75580
" />
<path d="M76830 75580
L76830 76780
" />
</g>
<g style="fill:#00A0A0; fill-opacity:0.0; 
stroke:#00A0A0; stroke-width:150; stroke-opacity:1; 
stroke-linecap:round; stroke-linejoin:round;">
<path d="M84645 27559
L84645 47244
" />
<path d="M45669 27559
L84645 27559
" />
<path d="M45570 27657
L45570 47342
" />
<path d="M45570 47342
L84940 47342
" />
</g>
<g style="fill:#00A0A0; fill-opacity:0.0; 
stroke:#00A0A0; stroke-width:35; stroke-opacity:1; 
stroke-linecap:round; stroke-linejoin:round;">
<path d="M80186 42965
L80672 42965
L80729 42936
L80758 42907
L80786 42850
L80786 42736
L80758 42679
L80729 42650
L80672 42622
L80186 42622
" />
<path d="M80786 42022
L80786 42365
" />
<path d="M80786 42193
L80186 42193
L80272 42250
L80329 42307
L80358 42365
" />
<path d="M72472 44107
L72472 43907
" />
<path d="M72786 43822
L72786 44107
L72186 44107
L72186 43822
" />
<path d="M72729 43222
L72758 43250
L72786 43336
L72786 43393
L72758 43479
L72701 43536
L72644 43565
L72529 43593
L72444 43593
L72329 43565
L72272 43536
L72215 43479
L72186 43393
L72186 43336
L72215 43250
L72244 43222
" />
<path d="M72729 42622
L72758 42650
L72786 42736
L72786 42793
L72758 42879
L72701 42936
L72644 42965
L72529 42993
L72444 42993
L72329 42965
L72272 42936
L72215 42879
L72186 42793
L72186 42736
L72215 42650
L72244 42622
" />
<path d="M72444 42279
L72415 42336
L72386 42365
L72329 42393
L72301 42393
L72244 42365
L72215 42336
L72186 42279
L72186 42165
L72215 42107
L72244 42079
L72301 42050
L72329 42050
L72386 42079
L72415 42107
L72444 42165
L72444 42279
L72472 42336
L72501 42365
L72558 42393
L72672 42393
L72729 42365
L72758 42336
L72786 42279
L72786 42165
L72758 42107
L72729 42079
L72672 42050
L72558 42050
L72501 42079
L72472 42107
L72444 42165
" />
<path d="M72244 41822
L72215 41793
L72186 41736
L72186 41593
L72215 41536
L72244 41507
L72301 41479
L72358 41479
L72444 41507
L72786 41850
L72786 41479
" />
<path d="M74286 42386
L74286 42729
" />
<path d="M74286 42557
L73686 42557
L73772 42615
L73829 42672
L73858 42729
" />
<path d="M76244 43479
L76215 43450
L76186 43393
L76186 43250
L76215 43193
L76244 43165
L76301 43136
L76358 43136
L76444 43165
L76786 43507
L76786 43136
" />
<path d="M79186 42507
L79186 42136
L79415 42336
L79415 42250
L79444 42193
L79472 42165
L79529 42136
L79672 42136
L79729 42165
L79758 42193
L79786 42250
L79786 42422
L79758 42479
L79729 42507
" />
<path d="M81136 39693
L81536 39693
" />
<path d="M80908 39836
L81336 39979
L81336 39607
" />
<path d="M80936 36415
L80936 36700
L81222 36729
L81194 36700
L81165 36643
L81165 36500
L81194 36443
L81222 36415
L81279 36386
L81422 36386
L81479 36415
L81508 36443
L81536 36500
L81536 36643
L81508 36700
L81479 36729
" />
<path d="M79186 33693
L79186 33807
L79215 33865
L79244 33893
L79329 33950
L79444 33979
L79672 33979
L79729 33950
L79758 33922
L79786 33865
L79786 33750
L79758 33693
L79729 33665
L79672 33636
L79529 33636
L79472 33665
L79444 33693
L79415 33750
L79415 33865
L79444 33922
L79472 33950
L79529 33979
" />
<path d="M76186 33257
L76186 32857
L76786 33115
" />
<path d="M73194 33865
L73165 33922
L73136 33950
L73079 33979
L73051 33979
L72994 33950
L72965 33922
L72936 33865
L72936 33750
L72965 33693
L72994 33665
L73051 33636
L73079 33636
L73136 33665
L73165 33693
L73194 33750
L73194 33865
L73222 33922
L73251 33950
L73308 33979
L73422 33979
L73479 33950
L73508 33922
L73536 33865
L73536 33750
L73508 33693
L73479 33665
L73422 33636
L73308 33636
L73251 33665
L73222 33693
L73194 33750
" />
<path d="M71786 36422
L71786 36307
L71758 36250
L71729 36222
L71644 36165
L71529 36136
L71301 36136
L71244 36165
L71215 36193
L71186 36250
L71186 36365
L71215 36422
L71244 36450
L71301 36479
L71444 36479
L71501 36450
L71529 36422
L71558 36365
L71558 36250
L71529 36193
L71501 36165
L71444 36136
" />
<path d="M78536 46107
L77936 46107
L78536 45765
L77936 45765
" />
<path d="M78536 45393
L78508 45450
L78479 45479
L78422 45507
L78251 45507
L78194 45479
L78165 45450
L78136 45393
L78136 45307
L78165 45250
L78194 45222
L78251 45193
L78422 45193
L78479 45222
L78508 45250
L78536 45307
L78536 45393
" />
<path d="M78136 44993
L78536 44850
L78136 44707
" />
<path d="M78536 44222
L78222 44222
L78165 44250
L78136 44307
L78136 44422
L78165 44479
" />
<path d="M78508 44222
L78536 44279
L78536 44422
L78508 44479
L78451 44507
L78394 44507
L78336 44479
L78308 44422
L78308 44279
L78279 44222
" />
<path d="M78536 43850
L78508 43907
L78451 43936
L77936 43936
" />
</g>
<g style="fill:#00A0A0; fill-opacity:0.0; 
stroke:#00A0A0; stroke-width:100; stroke-opacity:1; 
stroke-linecap:round; stroke-linejoin:round;">
<path d="M58223 36792
L58199 36815
L58128 36839
L58080 36839
L58009 36815
L57961 36768
L57938 36720
L57914 36625
L57914 36554
L57938 36458
L57961 36411
L58009 36363
L58080 36339
L58128 36339
L58199 36363
L58223 36387
" />
<path d="M58414 36387
L58438 36363
L58485 36339
L58604 36339
L58652 36363
L58676 36387
L58699 36435
L58699 36482
L58676 36554
L58390 36839
L58699 36839
" />
<path d="M54985 38656
L54985 38989
" />
<path d="M54866 38465
L54747 38823
L55057 38823
" />
<path d="M55199 38489
L55533 38489
L55318 38989
" />
<path d="M55818 38489
L55866 38489
L55914 38513
L55938 38537
L55961 38585
L55985 38680
L55985 38799
L55961 38894
L55938 38942
L55914 38965
L55866 38989
L55818 38989
L55771 38965
L55747 38942
L55723 38894
L55699 38799
L55699 38680
L55723 38585
L55747 38537
L55771 38513
L55818 38489
" />
<path d="M56414 38656
L56414 38989
" />
<path d="M56199 38656
L56199 38918
L56223 38965
L56271 38989
L56342 38989
L56390 38965
L56414 38942
" />
<path d="M56818 38727
L56652 38727
" />
<path d="M56652 38989
L56652 38489
L56890 38489
" />
</g>
<g style="fill:#00A0A0; fill-opacity:0.0; 
stroke:#00A0A0; stroke-width:50; stroke-opacity:1; 
stroke-linecap:round; stroke-linejoin:round;">
<path d="M80394 31550
L80379 31565
L80336 31579
L80308 31579
L80265 31565
L80236 31536
L80222 31507
L80208 31450
L80208 31407
L80222 31350
L80236 31322
L80265 31293
L80308 31279
L80336 31279
L80379 31293
L80394 31307
" />
<path d="M80494 31279
L80679 31279
L80579 31393
L80622 31393
L80651 31407
L80665 31422
L80679 31450
L80679 31522
L80665 31550
L80651 31565
L80622 31579
L80536 31579
L80508 31565
L80494 31550
" />
<path d="M80226 33379
L80083 33379
" />
<path d="M80154 33379
L80154 33079
L80130 33122
L80107 33150
L80083 33165
" />
<path d="M80380 33079
L80404 33079
L80428 33093
L80440 33107
L80452 33136
L80464 33193
L80464 33265
L80452 33322
L80440 33350
L80428 33365
L80404 33379
L80380 33379
L80357 33365
L80345 33350
L80333 33322
L80321 33265
L80321 33193
L80333 33136
L80345 33107
L80357 33093
L80380 33079
" />
<path d="M80678 33179
L80678 33379
" />
<path d="M80571 33179
L80571 33336
L80583 33365
L80607 33379
L80642 33379
L80666 33365
L80678 33350
" />
<path d="M80880 33222
L80797 33222
" />
<path d="M80797 33379
L80797 33079
L80916 33079
" />
</g>
<g style="fill:#00A0A0; fill-opacity:0.0; 
stroke:#00A0A0; stroke-width:75; stroke-opacity:1; 
stroke-linecap:round; stroke-linejoin:round;">
<path d="M79479 32765
L79708 32765
" />
<path d="M79594 32879
L79594 32650
" />
</g>
<g style="fill:#00A0A0; fill-opacity:0.0; 
stroke:#00A0A0; stroke-width:50; stroke-opacity:1; 
stroke-linecap:round; stroke-linejoin:round;">
<path d="M80694 42600
L80679 42615
L80636 42629
L80608 42629
L80565 42615
L80536 42586
L80522 42557
L80508 42500
L80508 42457
L80522 42400
L80536 42372
L80565 42343
L80608 42329
L80636 42329
L80679 42343
L80694 42357
" />
<path d="M80951 42429
L80951 42629
" />
<path d="M80879 42315
L80808 42529
L80994 42529
" />
<path d="M80476 44379
L80333 44379
" />
<path d="M80404 44379
L80404 44079
L80380 44122
L80357 44150
L80333 44165
" />
<path d="M80630 44079
L80654 44079
L80678 44093
L80690 44107
L80702 44136
L80714 44193
L80714 44265
L80702 44322
L80690 44350
L80678 44365
L80654 44379
L80630 44379
L80607 44365
L80595 44350
L80583 44322
L80571 44265
L80571 44193
L80583 44136
L80595 44107
L80607 44093
L80630 44079
" />
<path d="M80928 44179
L80928 44379
" />
<path d="M80821 44179
L80821 44336
L80833 44365
L80857 44379
L80892 44379
L80916 44365
L80928 44350
" />
<path d="M81130 44222
L81047 44222
" />
<path d="M81047 44379
L81047 44079
L81166 44079
" />
</g>
<g style="fill:#00A0A0; fill-opacity:0.0; 
stroke:#00A0A0; stroke-width:75; stroke-opacity:1; 
stroke-linecap:round; stroke-linejoin:round;">
<path d="M79729 43765
L79958 43765
" />
<path d="M79844 43879
L79844 43650
" />
</g>
<g style="fill:#00A0A0; fill-opacity:0.0; 
stroke:#00A0A0; stroke-width:35; stroke-opacity:1; 
stroke-linecap:round; stroke-linejoin:round;">
<path d="M47106 29834
L47487 29834
" />
<path d="M47296 30025
L47296 29644
" />
<path d="M47653 29525
L47820 30025
L47987 29525
" />
<path d="M48153 30025
L48153 29525
" />
<path d="M48391 30025
L48391 29525
L48677 30025
L48677 29525
" />
<path d="M49177 30025
L48891 30025
" />
<path d="M49034 30025
L49034 29525
L48987 29596
L48939 29644
L48891 29668
" />
<path d="M46379 29457
L46355 29505
L46355 29576
L46379 29648
L46427 29695
L46474 29719
L46570 29743
L46641 29743
L46736 29719
L46784 29695
L46832 29648
L46855 29576
L46855 29529
L46832 29457
L46808 29433
L46641 29433
L46641 29529
" />
<path d="M46855 29219
L46355 29219
L46855 28933
L46355 28933
" />
<path d="M46855 28695
L46355 28695
L46355 28576
L46379 28505
L46427 28457
L46474 28433
L46570 28410
L46641 28410
L46736 28433
L46784 28457
L46832 28505
L46855 28576
L46855 28695
" />
<path d="M46855 27933
L46855 28219
" />
<path d="M46855 28076
L46355 28076
L46427 28124
L46474 28171
L46498 28219
" />
<path d="M49149 28466
L49101 28442
L49030 28442
L48958 28466
L48911 28513
L48887 28561
L48863 28656
L48863 28728
L48887 28823
L48911 28871
L48958 28918
L49030 28942
L49078 28942
L49149 28918
L49173 28894
L49173 28728
L49078 28728
" />
<path d="M49387 28942
L49387 28442
L49673 28942
L49673 28442
" />
<path d="M49911 28942
L49911 28442
L50030 28442
L50101 28466
L50149 28513
L50173 28561
L50197 28656
L50197 28728
L50173 28823
L50149 28871
L50101 28918
L50030 28942
L49911 28942
" />
<path d="M50387 28490
L50411 28466
L50458 28442
L50578 28442
L50625 28466
L50649 28490
L50673 28537
L50673 28585
L50649 28656
L50363 28942
L50673 28942
" />
<path d="M81911 39201
L81887 39249
L81887 39320
L81911 39392
L81958 39439
L82006 39463
L82101 39487
L82173 39487
L82268 39463
L82315 39439
L82363 39392
L82387 39320
L82387 39273
L82363 39201
L82339 39177
L82173 39177
L82173 39273
" />
<path d="M82387 38963
L81887 38963
L82387 38677
L81887 38677
" />
<path d="M82387 38439
L81887 38439
L81887 38320
L81911 38249
L81958 38201
L82006 38177
L82101 38154
L82173 38154
L82268 38177
L82315 38201
L82363 38249
L82387 38320
L82387 38439
" />
<path d="M81887 37987
L81887 37677
L82077 37844
L82077 37773
L82101 37725
L82125 37701
L82173 37677
L82292 37677
L82339 37701
L82363 37725
L82387 37773
L82387 37916
L82363 37963
L82339 37987
" />
<path d="M80934 37162
L80910 37186
L80839 37210
L80791 37210
L80720 37186
L80672 37138
L80648 37091
L80625 36995
L80625 36924
L80648 36829
L80672 36781
L80720 36734
L80791 36710
L80839 36710
L80910 36734
L80934 36757
" />
<path d="M81244 36710
L81339 36710
L81386 36734
L81434 36781
L81458 36876
L81458 37043
L81434 37138
L81386 37186
L81339 37210
L81244 37210
L81196 37186
L81148 37138
L81125 37043
L81125 36876
L81148 36781
L81196 36734
L81244 36710
" />
<path d="M81672 37210
L81672 36710
L81958 37210
L81958 36710
" />
<path d="M82196 37210
L82196 36710
L82482 37210
L82482 36710
" />
<path d="M82601 37257
L82982 37257
" />
<path d="M83363 37210
L83077 37210
" />
<path d="M83220 37210
L83220 36710
L83172 36781
L83125 36829
L83077 36853
" />
<path d="M82485 37191
L82485 37429
L81985 37429
" />
<path d="M82295 37024
L82295 36643
" />
<path d="M82485 36405
L81985 36405
" />
<path d="M82485 36167
L81985 36167
L82485 35881
L81985 35881
" />
<path d="M82485 35381
L82485 35667
" />
<path d="M82485 35524
L81985 35524
L82057 35572
L82104 35619
L82128 35667
" />
<path d="M47052 32603
L47052 32841
L46552 32841
" />
<path d="M46862 32436
L46862 32055
" />
<path d="M46552 31722
L46552 31627
L46576 31579
L46624 31531
L46719 31507
L46886 31507
L46981 31531
L47028 31579
L47052 31627
L47052 31722
L47028 31769
L46981 31817
L46886 31841
L46719 31841
L46624 31817
L46576 31769
L46552 31722
" />
<path d="M46552 31293
L46957 31293
L47005 31269
L47028 31246
L47052 31198
L47052 31103
L47028 31055
L47005 31031
L46957 31007
L46552 31007
" />
<path d="M46552 30841
L46552 30555
" />
<path d="M47052 30698
L46552 30698
" />
<path d="M47052 30127
L47052 30412
" />
<path d="M47052 30269
L46552 30269
L46624 30317
L46671 30365
L46695 30412
" />
<path d="M82485 41521
L82247 41688
" />
<path d="M82485 41807
L81985 41807
L81985 41617
L82009 41569
L82033 41545
L82081 41521
L82152 41521
L82200 41545
L82223 41569
L82247 41617
L82247 41807
" />
<path d="M82295 41307
L82295 40926
" />
<path d="M82485 40688
L81985 40688
" />
<path d="M82485 40450
L81985 40450
L82485 40164
L81985 40164
" />
<path d="M82485 39664
L82485 39950
" />
<path d="M82485 39807
L81985 39807
L82057 39855
L82104 39902
L82128 39950
" />
<path d="M80934 38912
L80910 38936
L80839 38960
L80791 38960
L80720 38936
L80672 38888
L80648 38841
L80625 38745
L80625 38674
L80648 38579
L80672 38531
L80720 38484
L80791 38460
L80839 38460
L80910 38484
L80934 38507
" />
<path d="M81244 38460
L81339 38460
L81386 38484
L81434 38531
L81458 38626
L81458 38793
L81434 38888
L81386 38936
L81339 38960
L81244 38960
L81196 38936
L81148 38888
L81125 38793
L81125 38626
L81148 38531
L81196 38484
L81244 38460
" />
<path d="M81672 38960
L81672 38460
L81958 38960
L81958 38460
" />
<path d="M82196 38960
L82196 38460
L82482 38960
L82482 38460
" />
<path d="M82601 39007
L82982 39007
" />
<path d="M83363 38960
L83077 38960
" />
<path d="M83220 38960
L83220 38460
L83172 38531
L83125 38579
L83077 38603
" />
<path d="M47052 35949
L46814 36116
" />
<path d="M47052 36235
L46552 36235
L46552 36044
L46576 35997
L46600 35973
L46648 35949
L46719 35949
L46767 35973
L46790 35997
L46814 36044
L46814 36235
" />
<path d="M46862 35735
L46862 35354
" />
<path d="M46552 35021
L46552 34925
L46576 34878
L46624 34830
L46719 34806
L46886 34806
L46981 34830
L47028 34878
L47052 34925
L47052 35021
L47028 35068
L46981 35116
L46886 35140
L46719 35140
L46624 35116
L46576 35068
L46552 35021
" />
<path d="M46552 34592
L46957 34592
L47005 34568
L47028 34544
L47052 34497
L47052 34402
L47028 34354
L47005 34330
L46957 34306
L46552 34306
" />
<path d="M46552 34140
L46552 33854
" />
<path d="M47052 33997
L46552 33997
" />
<path d="M47052 33425
L47052 33711
" />
<path d="M47052 33568
L46552 33568
L46624 33616
L46671 33663
L46695 33711
" />
</g>
<g style="fill:#00A0A0; fill-opacity:0.0; 
stroke:#00A0A0; stroke-width:80; stroke-opacity:1; 
stroke-linecap:round; stroke-linejoin:round;">
<path d="M78216 42341
L77954 42507
" />
<path d="M78216 42626
L77666 42626
L77666 42436
L77692 42388
L77719 42365
L77771 42341
L77850 42341
L77902 42365
L77928 42388
L77954 42436
L77954 42626
" />
<path d="M77850 41912
L78216 41912
" />
<path d="M77640 42031
L78033 42150
L78033 41841
" />
<path d="M78166 45341
L78166 45626
" />
<path d="M78166 45484
L77616 45484
L77695 45531
L77747 45579
L77773 45626
" />
<path d="M77616 44888
L77616 45126
L77878 45150
L77852 45126
L77826 45079
L77826 44960
L77852 44912
L77878 44888
L77930 44865
L78061 44865
L78114 44888
L78140 44912
L78166 44960
L78166 45079
L78140 45126
L78114 45150
" />
<path d="M77616 44555
L77616 44507
L77642 44460
L77669 44436
L77721 44412
L77826 44388
L77957 44388
L78061 44412
L78114 44436
L78140 44460
L78166 44507
L78166 44555
L78140 44603
L78114 44626
L78061 44650
L77957 44674
L77826 44674
L77721 44650
L77669 44626
L77642 44603
L77616 44555
" />
<path d="M78166 43888
L77904 44055
" />
<path d="M78166 44174
L77616 44174
L77616 43984
L77642 43936
L77669 43912
L77721 43888
L77800 43888
L77852 43912
L77878 43936
L77904 43984
L77904 44174
" />
<path d="M79216 42341
L78954 42507
" />
<path d="M79216 42626
L78666 42626
L78666 42436
L78692 42388
L78719 42365
L78771 42341
L78850 42341
L78902 42365
L78928 42388
L78954 42436
L78954 42626
" />
<path d="M79216 41865
L79216 42150
" />
<path d="M79216 42007
L78666 42007
L78745 42055
L78797 42103
L78823 42150
" />
<path d="M79166 45341
L79166 45626
" />
<path d="M79166 45484
L78616 45484
L78695 45531
L78747 45579
L78773 45626
" />
<path d="M78616 45031
L78616 44984
L78642 44936
L78669 44912
L78721 44888
L78826 44865
L78957 44865
L79061 44888
L79114 44912
L79140 44936
L79166 44984
L79166 45031
L79140 45079
L79114 45103
L79061 45126
L78957 45150
L78826 45150
L78721 45126
L78669 45103
L78642 45079
L78616 45031
" />
<path d="M78616 44555
L78616 44507
L78642 44460
L78669 44436
L78721 44412
L78826 44388
L78957 44388
L79061 44412
L79114 44436
L79140 44460
L79166 44507
L79166 44555
L79140 44603
L79114 44626
L79061 44650
L78957 44674
L78826 44674
L78721 44650
L78669 44626
L78642 44603
L78616 44555
" />
<path d="M79166 44174
L78616 44174
" />
<path d="M79166 43888
L78852 44103
" />
<path d="M78616 43888
L78930 44174
" />
<path d="M78966 34341
L78704 34507
" />
<path d="M78966 34626
L78416 34626
L78416 34436
L78442 34388
L78469 34365
L78521 34341
L78600 34341
L78652 34365
L78678 34388
L78704 34436
L78704 34626
" />
<path d="M78469 34150
L78442 34126
L78416 34079
L78416 33960
L78442 33912
L78469 33888
L78521 33865
L78573 33865
L78652 33888
L78966 34174
L78966 33865
" />
<path d="M79016 32341
L79016 32626
" />
<path d="M79016 32484
L78466 32484
L78545 32531
L78597 32579
L78623 32626
" />
<path d="M78466 32031
L78466 31984
L78492 31936
L78519 31912
L78571 31888
L78676 31865
L78807 31865
L78911 31888
L78964 31912
L78990 31936
L79016 31984
L79016 32031
L78990 32079
L78964 32103
L78911 32126
L78807 32150
L78676 32150
L78571 32126
L78519 32103
L78492 32079
L78466 32031
" />
<path d="M78466 31555
L78466 31507
L78492 31460
L78519 31436
L78571 31412
L78676 31388
L78807 31388
L78911 31412
L78964 31436
L78990 31460
L79016 31507
L79016 31555
L78990 31603
L78964 31626
L78911 31650
L78807 31674
L78676 31674
L78571 31650
L78519 31626
L78492 31603
L78466 31555
" />
<path d="M79016 31174
L78466 31174
" />
<path d="M79016 30888
L78702 31103
" />
<path d="M78466 30888
L78780 31174
" />
<path d="M77966 34341
L77704 34507
" />
<path d="M77966 34626
L77416 34626
L77416 34436
L77442 34388
L77469 34365
L77521 34341
L77600 34341
L77652 34365
L77678 34388
L77704 34436
L77704 34626
" />
<path d="M77416 34174
L77416 33865
L77626 34031
L77626 33960
L77652 33912
L77678 33888
L77730 33865
L77861 33865
L77914 33888
L77940 33912
L77966 33960
L77966 34103
L77940 34150
L77914 34174
" />
<path d="M78016 32341
L78016 32626
" />
<path d="M78016 32484
L77466 32484
L77545 32531
L77597 32579
L77623 32626
" />
<path d="M77466 31888
L77466 32126
L77728 32150
L77702 32126
L77676 32079
L77676 31960
L77702 31912
L77728 31888
L77780 31865
L77911 31865
L77964 31888
L77990 31912
L78016 31960
L78016 32079
L77990 32126
L77964 32150
" />
<path d="M77466 31555
L77466 31507
L77492 31460
L77519 31436
L77571 31412
L77676 31388
L77807 31388
L77911 31412
L77964 31436
L77990 31460
L78016 31507
L78016 31555
L77990 31603
L77964 31626
L77911 31650
L77807 31674
L77676 31674
L77571 31650
L77519 31626
L77492 31603
L77466 31555
" />
<path d="M78016 30888
L77754 31055
" />
<path d="M78016 31174
L77466 31174
L77466 30984
L77492 30936
L77519 30912
L77571 30888
L77650 30888
L77702 30912
L77728 30936
L77754 30984
L77754 31174
" />
<path d="M70793 28823
L70531 28990
" />
<path d="M70793 29109
L70243 29109
L70243 28918
L70269 28871
L70295 28847
L70348 28823
L70426 28823
L70479 28847
L70505 28871
L70531 28918
L70531 29109
" />
<path d="M70243 28371
L70243 28609
L70505 28633
L70479 28609
L70453 28561
L70453 28442
L70479 28394
L70505 28371
L70557 28347
L70688 28347
L70741 28371
L70767 28394
L70793 28442
L70793 28561
L70767 28609
L70741 28633
" />
<path d="M70843 31406
L70843 31692
" />
<path d="M70843 31549
L70293 31549
L70372 31596
L70424 31644
L70450 31692
" />
<path d="M70843 31192
L70293 31192
" />
<path d="M70843 30906
L70529 31120
" />
<path d="M70293 30906
L70607 31192
" />
<path d="M70793 41874
L70531 42041
" />
<path d="M70793 42160
L70243 42160
L70243 41969
L70269 41922
L70295 41898
L70348 41874
L70426 41874
L70479 41898
L70505 41922
L70531 41969
L70531 42160
" />
<path d="M70243 41446
L70243 41541
L70269 41588
L70295 41612
L70374 41660
L70479 41684
L70688 41684
L70741 41660
L70767 41636
L70793 41588
L70793 41493
L70767 41446
L70741 41422
L70688 41398
L70557 41398
L70505 41422
L70479 41446
L70453 41493
L70453 41588
L70479 41636
L70505 41660
L70557 41684
" />
<path d="M70743 44398
L70743 44684
" />
<path d="M70743 44541
L70193 44541
L70272 44588
L70324 44636
L70350 44684
" />
<path d="M70743 44184
L70193 44184
" />
<path d="M70743 43898
L70429 44112
" />
<path d="M70193 43898
L70507 44184
" />
<path d="M69722 28833
L69460 29000
" />
<path d="M69722 29119
L69172 29119
L69172 28928
L69198 28880
L69225 28857
L69277 28833
L69355 28833
L69408 28857
L69434 28880
L69460 28928
L69460 29119
" />
<path d="M69172 28666
L69172 28333
L69722 28547
" />
<path d="M69175 31880
L69148 31857
L69122 31809
L69122 31690
L69148 31642
L69175 31619
L69227 31595
L69279 31595
L69358 31619
L69672 31904
L69672 31595
" />
<path d="M69672 31380
L69122 31380
" />
<path d="M69672 31095
L69358 31309
" />
<path d="M69122 31095
L69436 31380
" />
<path d="M69175 30904
L69148 30880
L69122 30833
L69122 30714
L69148 30666
L69175 30642
L69227 30619
L69279 30619
L69358 30642
L69672 30928
L69672 30619
" />
<path d="M69612 41874
L69350 42041
" />
<path d="M69612 42160
L69062 42160
L69062 41969
L69088 41922
L69114 41898
L69167 41874
L69245 41874
L69298 41898
L69324 41922
L69350 41969
L69350 42160
" />
<path d="M69298 41588
L69271 41636
L69245 41660
L69193 41684
L69167 41684
L69114 41660
L69088 41636
L69062 41588
L69062 41493
L69088 41446
L69114 41422
L69167 41398
L69193 41398
L69245 41422
L69271 41446
L69298 41493
L69298 41588
L69324 41636
L69350 41660
L69402 41684
L69507 41684
L69560 41660
L69586 41636
L69612 41588
L69612 41493
L69586 41446
L69560 41422
L69507 41398
L69402 41398
L69350 41422
L69324 41446
L69298 41493
" />
<path d="M69064 44922
L69038 44898
L69012 44850
L69012 44731
L69038 44684
L69064 44660
L69117 44636
L69169 44636
L69248 44660
L69562 44946
L69562 44636
" />
<path d="M69562 44422
L69012 44422
" />
<path d="M69562 44136
L69248 44350
" />
<path d="M69012 44136
L69326 44422
" />
<path d="M69064 43946
L69038 43922
L69012 43874
L69012 43755
L69038 43708
L69064 43684
L69117 43660
L69169 43660
L69248 43684
L69562 43969
L69562 43660
" />
<path d="M59179 46579
L58917 46746
" />
<path d="M59179 46865
L58629 46865
L58629 46674
L58655 46627
L58681 46603
L58734 46579
L58812 46579
L58865 46603
L58891 46627
L58917 46674
L58917 46865
" />
<path d="M59179 46341
L59179 46246
L59153 46198
L59126 46174
L59048 46127
L58943 46103
L58734 46103
L58681 46127
L58655 46150
L58629 46198
L58629 46293
L58655 46341
L58681 46365
L58734 46388
L58865 46388
L58917 46365
L58943 46341
L58969 46293
L58969 46198
L58943 46150
L58917 46127
L58865 46103
" />
<path d="M59229 44341
L59229 44627
" />
<path d="M59229 44484
L58679 44484
L58757 44531
L58810 44579
L58836 44627
" />
<path d="M58679 44031
L58679 43984
L58705 43936
L58731 43912
L58784 43888
L58888 43865
L59019 43865
L59124 43888
L59176 43912
L59203 43936
L59229 43984
L59229 44031
L59203 44079
L59176 44103
L59124 44127
L59019 44150
L58888 44150
L58784 44127
L58731 44103
L58705 44079
L58679 44031
" />
<path d="M59229 43365
L58967 43531
" />
<path d="M59229 43650
L58679 43650
L58679 43460
L58705 43412
L58731 43388
L58784 43365
L58862 43365
L58915 43388
L58941 43412
L58967 43460
L58967 43650
" />
<path d="M53773 34474
L53606 34212
" />
<path d="M53487 34474
L53487 33924
L53677 33924
L53725 33950
L53749 33976
L53773 34029
L53773 34107
L53749 34160
L53725 34186
L53677 34212
L53487 34212
" />
<path d="M54249 34474
L53963 34474
" />
<path d="M54106 34474
L54106 33924
L54058 34003
L54011 34055
L53963 34081
" />
<path d="M54558 33924
L54606 33924
L54654 33950
L54677 33976
L54701 34029
L54725 34134
L54725 34265
L54701 34369
L54677 34422
L54654 34448
L54606 34474
L54558 34474
L54511 34448
L54487 34422
L54463 34369
L54439 34265
L54439 34134
L54463 34029
L54487 33976
L54511 33950
L54558 33924
" />
<path d="M55829 34505
L55544 34505
" />
<path d="M55687 34505
L55687 33955
L55639 34033
L55591 34086
L55544 34112
" />
<path d="M56139 33955
L56187 33955
L56234 33981
L56258 34007
L56282 34060
L56306 34164
L56306 34295
L56282 34400
L56258 34452
L56234 34479
L56187 34505
L56139 34505
L56091 34479
L56068 34452
L56044 34400
L56020 34295
L56020 34164
L56044 34060
L56068 34007
L56091 33981
L56139 33955
" />
<path d="M56806 34505
L56639 34243
" />
<path d="M56520 34505
L56520 33955
L56710 33955
L56758 33981
L56782 34007
L56806 34060
L56806 34138
L56782 34190
L56758 34217
L56710 34243
L56520 34243
" />
<path d="M47670 40773
L47504 40511
" />
<path d="M47384 40773
L47384 40223
L47575 40223
L47623 40249
L47646 40276
L47670 40328
L47670 40407
L47646 40459
L47623 40485
L47575 40511
L47384 40511
" />
<path d="M48146 40773
L47861 40773
" />
<path d="M48004 40773
L48004 40223
L47956 40302
L47908 40354
L47861 40380
" />
<path d="M48623 40773
L48337 40773
" />
<path d="M48480 40773
L48480 40223
L48432 40302
L48384 40354
L48337 40380
" />
<path d="M50384 40823
L50099 40823
" />
<path d="M50242 40823
L50242 40273
L50194 40352
L50146 40404
L50099 40430
" />
<path d="M50599 40823
L50599 40273
" />
<path d="M50884 40823
L50670 40509
" />
<path d="M50884 40273
L50599 40588
" />
<path d="M47670 42053
L47504 41791
" />
<path d="M47384 42053
L47384 41503
L47575 41503
L47623 41529
L47646 41555
L47670 41608
L47670 41686
L47646 41739
L47623 41765
L47575 41791
L47384 41791
" />
<path d="M48146 42053
L47861 42053
" />
<path d="M48004 42053
L48004 41503
L47956 41581
L47908 41634
L47861 41660
" />
<path d="M48337 41555
L48361 41529
L48408 41503
L48527 41503
L48575 41529
L48599 41555
L48623 41608
L48623 41660
L48599 41739
L48313 42053
L48623 42053
" />
<path d="M50384 42103
L50099 42103
" />
<path d="M50242 42103
L50242 41553
L50194 41631
L50146 41684
L50099 41710
" />
<path d="M50599 42103
L50599 41553
" />
<path d="M50884 42103
L50670 41789
" />
<path d="M50884 41553
L50599 41867
" />
<path d="M65652 43573
L65633 43611
L65595 43649
L65538 43706
L65519 43744
L65519 43783
" />
<path d="M65614 43764
L65595 43802
L65557 43840
L65481 43859
L65347 43859
L65271 43840
L65233 43802
L65214 43764
L65214 43687
L65233 43649
L65271 43611
L65347 43592
L65481 43592
L65557 43611
L65595 43649
L65614 43687
L65614 43764
" />
<path d="M65614 43211
L65614 43440
" />
<path d="M65614 43325
L65214 43325
L65271 43364
L65309 43402
L65328 43440
" />
<path d="M64364 42478
L63964 42478
" />
<path d="M64364 42059
L64174 42192
" />
<path d="M64364 42287
L63964 42287
L63964 42135
L63983 42097
L64002 42078
L64040 42059
L64097 42059
L64136 42078
L64155 42097
L64174 42135
L64174 42287
" />
<path d="M64155 41754
L64155 41887
" />
<path d="M64364 41887
L63964 41887
L63964 41697
" />
<path d="M63964 41354
L63964 41544
L64155 41564
L64136 41544
L64117 41506
L64117 41411
L64136 41373
L64155 41354
L64193 41335
L64288 41335
L64326 41354
L64345 41373
L64364 41411
L64364 41506
L64345 41544
L64326 41564
" />
<path d="M64097 40992
L64364 40992
" />
<path d="M63945 41087
L64231 41183
L64231 40935
" />
<path d="M63964 40706
L63964 40668
L63983 40630
L64002 40611
L64040 40592
L64117 40573
L64212 40573
L64288 40592
L64326 40611
L64345 40630
L64364 40668
L64364 40706
L64345 40744
L64326 40764
L64288 40783
L64212 40802
L64117 40802
L64040 40783
L64002 40764
L63983 40744
L63964 40706
" />
<path d="M66538 30321
L66519 30359
L66481 30397
L66424 30454
L66405 30492
L66405 30531
" />
<path d="M66500 30512
L66481 30550
L66443 30588
L66367 30607
L66233 30607
L66157 30588
L66119 30550
L66100 30512
L66100 30435
L66119 30397
L66157 30359
L66233 30340
L66367 30340
L66443 30359
L66481 30397
L66500 30435
L66500 30512
" />
<path d="M66138 30188
L66119 30169
L66100 30131
L66100 30035
L66119 29997
L66138 29978
L66176 29959
L66214 29959
L66271 29978
L66500 30207
L66500 29959
" />
<path d="M67750 33226
L67350 33226
" />
<path d="M67750 32807
L67560 32940
" />
<path d="M67750 33035
L67350 33035
L67350 32883
L67369 32845
L67388 32826
L67426 32807
L67483 32807
L67521 32826
L67540 32845
L67560 32883
L67560 33035
" />
<path d="M67540 32502
L67540 32635
" />
<path d="M67750 32635
L67350 32635
L67350 32445
" />
<path d="M67350 32102
L67350 32292
L67540 32312
L67521 32292
L67502 32254
L67502 32159
L67521 32121
L67540 32102
L67579 32083
L67674 32083
L67712 32102
L67731 32121
L67750 32159
L67750 32254
L67731 32292
L67712 32312
" />
<path d="M67483 31740
L67750 31740
" />
<path d="M67331 31835
L67617 31931
L67617 31683
" />
<path d="M67350 31454
L67350 31416
L67369 31378
L67388 31359
L67426 31340
L67502 31321
L67598 31321
L67674 31340
L67712 31359
L67731 31378
L67750 31416
L67750 31454
L67731 31492
L67712 31512
L67674 31531
L67598 31550
L67502 31550
L67426 31531
L67388 31512
L67369 31492
L67350 31454
" />
</g>
<g style="fill:#00A0A0; fill-opacity:0.0; 
stroke:#00A0A0; stroke-width:35; stroke-opacity:1; 
stroke-linecap:round; stroke-linejoin:round;">
<path d="M61676 44816
L60976 44816
" />
<path d="M61609 44083
L61643 44116
L61676 44216
L61676 44283
L61643 44383
L61576 44449
L61509 44483
L61376 44516
L61276 44516
L61143 44483
L61076 44449
L61009 44383
L60976 44283
L60976 44216
L61009 44116
L61043 44083
" />
<path d="M61043 43816
L61009 43783
L60976 43716
L60976 43549
L61009 43483
L61043 43449
L61109 43416
L61176 43416
L61276 43449
L61676 43849
L61676 43416
" />
<path d="M63310 43139
L63310 43473
L62610 43473
" />
<path d="M63310 42906
L62610 42906
L63110 42673
L62610 42439
L63310 42439
" />
<path d="M62610 42173
L62610 41739
L62877 41973
L62877 41873
L62910 41806
L62943 41773
L63010 41739
L63177 41739
L63243 41773
L63277 41806
L63310 41873
L63310 42073
L63277 42139
L63243 42173
" />
<path d="M63310 41073
L63310 41473
" />
<path d="M63310 41273
L62610 41273
L62710 41339
L62777 41406
L62810 41473
" />
<path d="M62610 40839
L62610 40373
L63310 40673
" />
<path d="M63310 39773
L63310 40106
L62610 40106
" />
<path d="M61975 41692
L61975 41597
L61999 41550
L62047 41502
L62142 41478
L62308 41478
L62404 41502
L62451 41550
L62475 41597
L62475 41692
L62451 41740
L62404 41788
L62308 41811
L62142 41811
L62047 41788
L61999 41740
L61975 41692
" />
<path d="M62475 40645
L61975 40645
" />
<path d="M62332 42764
L62332 42526
" />
<path d="M62475 42811
L61975 42645
L62475 42478
" />
<path d="M61775 35564
L61075 35564
" />
<path d="M61708 34831
L61741 34864
L61775 34964
L61775 35031
L61741 35131
L61675 35197
L61608 35231
L61475 35264
L61375 35264
L61241 35231
L61175 35197
L61108 35131
L61075 35031
L61075 34964
L61108 34864
L61141 34831
" />
<path d="M61075 34597
L61075 34164
L61341 34397
L61341 34297
L61375 34231
L61408 34197
L61475 34164
L61641 34164
L61708 34197
L61741 34231
L61775 34297
L61775 34497
L61741 34564
L61708 34597
" />
<path d="M63409 33887
L63409 34221
L62709 34221
" />
<path d="M63409 33654
L62709 33654
L63209 33421
L62709 33187
L63409 33187
" />
<path d="M62709 32921
L62709 32487
L62975 32721
L62975 32621
L63009 32554
L63042 32521
L63109 32487
L63275 32487
L63342 32521
L63375 32554
L63409 32621
L63409 32821
L63375 32887
L63342 32921
" />
<path d="M63409 31821
L63409 32221
" />
<path d="M63409 32021
L62709 32021
L62809 32087
L62875 32154
L62909 32221
" />
<path d="M62709 31587
L62709 31121
L63409 31421
" />
<path d="M63409 30521
L63409 30854
L62709 30854
" />
<path d="M62074 32440
L62074 32345
L62097 32298
L62145 32250
L62240 32226
L62407 32226
L62502 32250
L62550 32298
L62574 32345
L62574 32440
L62550 32488
L62502 32536
L62407 32559
L62240 32559
L62145 32536
L62097 32488
L62074 32440
" />
<path d="M62574 31393
L62074 31393
" />
<path d="M62431 33512
L62431 33274
" />
<path d="M62574 33559
L62074 33393
L62574 33226
" />
</g>
<g style="fill:#00A0A0; fill-opacity:0.0; 
stroke:#00A0A0; stroke-width:80; stroke-opacity:1; 
stroke-linecap:round; stroke-linejoin:round;">
<path d="M67347 36639
L67347 36089
L67537 36089
L67585 36116
L67609 36142
L67633 36194
L67633 36273
L67609 36325
L67585 36351
L67537 36378
L67347 36378
" />
<path d="M67823 36142
L67847 36116
L67895 36089
L68014 36089
L68061 36116
L68085 36142
L68109 36194
L68109 36247
L68085 36325
L67799 36639
L68109 36639
" />
<path d="M69781 36351
L69853 36378
L69877 36404
L69901 36456
L69901 36535
L69877 36587
L69853 36613
L69805 36639
L69615 36639
L69615 36089
L69781 36089
L69829 36116
L69853 36142
L69877 36194
L69877 36247
L69853 36299
L69829 36325
L69781 36351
L69615 36351
" />
<path d="M70353 36089
L70115 36089
L70091 36351
L70115 36325
L70162 36299
L70281 36299
L70329 36325
L70353 36351
L70377 36404
L70377 36535
L70353 36587
L70329 36613
L70281 36639
L70162 36639
L70115 36613
L70091 36587
" />
<path d="M70686 36089
L70734 36089
L70781 36116
L70805 36142
L70829 36194
L70853 36299
L70853 36430
L70829 36535
L70805 36587
L70781 36613
L70734 36639
L70686 36639
L70639 36613
L70615 36587
L70591 36535
L70567 36430
L70567 36299
L70591 36194
L70615 36142
L70639 36116
L70686 36089
" />
<path d="M71067 36639
L71067 36089
" />
<path d="M71353 36639
L71139 36325
" />
<path d="M71353 36089
L71067 36404
" />
<path d="M67347 40380
L67347 39830
L67537 39830
L67585 39856
L67609 39882
L67633 39934
L67633 40013
L67609 40065
L67585 40092
L67537 40118
L67347 40118
" />
<path d="M67799 39830
L68109 39830
L67942 40039
L68014 40039
L68061 40065
L68085 40092
L68109 40144
L68109 40275
L68085 40327
L68061 40353
L68014 40380
L67871 40380
L67823 40353
L67799 40327
" />
<path d="M69781 40092
L69853 40118
L69877 40144
L69901 40196
L69901 40275
L69877 40327
L69853 40353
L69805 40380
L69615 40380
L69615 39830
L69781 39830
L69829 39856
L69853 39882
L69877 39934
L69877 39987
L69853 40039
L69829 40065
L69781 40092
L69615 40092
" />
<path d="M70353 39830
L70115 39830
L70091 40092
L70115 40065
L70162 40039
L70281 40039
L70329 40065
L70353 40092
L70377 40144
L70377 40275
L70353 40327
L70329 40353
L70281 40380
L70162 40380
L70115 40353
L70091 40327
" />
<path d="M70686 39830
L70734 39830
L70781 39856
L70805 39882
L70829 39934
L70853 40039
L70853 40170
L70829 40275
L70805 40327
L70781 40353
L70734 40380
L70686 40380
L70639 40353
L70615 40327
L70591 40275
L70567 40170
L70567 40039
L70591 39934
L70615 39882
L70639 39856
L70686 39830
" />
<path d="M71067 40380
L71067 39830
" />
<path d="M71353 40380
L71139 40065
" />
<path d="M71353 39830
L71067 40144
" />
<path d="M76895 31267
L76914 31286
L76933 31343
L76933 31381
L76914 31438
L76876 31476
L76838 31496
L76762 31515
L76704 31515
L76628 31496
L76590 31476
L76552 31438
L76533 31381
L76533 31343
L76552 31286
L76571 31267
" />
<path d="M76533 30905
L76533 31096
L76724 31115
L76704 31096
L76685 31057
L76685 30962
L76704 30924
L76724 30905
L76762 30886
L76857 30886
L76895 30905
L76914 30924
L76933 30962
L76933 31057
L76914 31096
L76895 31115
" />
<path d="M73639 31724
L73905 31724
" />
<path d="M73486 31819
L73772 31915
L73772 31667
" />
<path d="M73505 31553
L73505 31286
L73905 31457
" />
<path d="M73639 30962
L73905 30962
" />
<path d="M73639 31134
L73848 31134
L73886 31115
L73905 31076
L73905 31019
L73886 30981
L73867 30962
" />
<path d="M73696 30638
L73696 30772
" />
<path d="M73905 30772
L73505 30772
L73505 30581
" />
<path d="M74117 44824
L74136 44843
L74155 44900
L74155 44938
L74136 44995
L74098 45034
L74060 45053
L73984 45072
L73927 45072
L73851 45053
L73813 45034
L73775 44995
L73755 44938
L73755 44900
L73775 44843
L73794 44824
" />
<path d="M73755 44481
L73755 44557
L73775 44595
L73794 44615
L73851 44653
L73927 44672
L74079 44672
L74117 44653
L74136 44634
L74155 44595
L74155 44519
L74136 44481
L74117 44462
L74079 44443
L73984 44443
L73946 44462
L73927 44481
L73908 44519
L73908 44595
L73927 44634
L73946 44653
L73984 44672
" />
<path d="M75889 45224
L76155 45224
" />
<path d="M75736 45319
L76022 45415
L76022 45167
" />
<path d="M75755 45053
L75755 44786
L76155 44957
" />
<path d="M75889 44462
L76155 44462
" />
<path d="M75889 44634
L76098 44634
L76136 44615
L76155 44576
L76155 44519
L76136 44481
L76117 44462
" />
<path d="M75946 44138
L75946 44272
" />
<path d="M76155 44272
L75755 44272
L75755 44081
" />
</g>
<g style="fill:#00A0A0; fill-opacity:0.0; 
stroke:#00A0A0; stroke-width:100; stroke-opacity:1; 
stroke-linecap:round; stroke-linejoin:round;">
<path d="M49580 43938
L49556 43962
L49484 43985
L49437 43985
L49365 43962
L49318 43914
L49294 43866
L49270 43771
L49270 43700
L49294 43604
L49318 43557
L49365 43509
L49437 43485
L49484 43485
L49556 43509
L49580 43533
" />
<path d="M50056 43985
L49770 43985
" />
<path d="M49913 43985
L49913 43485
L49865 43557
L49818 43604
L49770 43628
" />
<path d="M50365 43485
L50413 43485
L50461 43509
L50484 43533
L50508 43581
L50532 43676
L50532 43795
L50508 43890
L50484 43938
L50461 43962
L50413 43985
L50365 43985
L50318 43962
L50294 43938
L50270 43890
L50246 43795
L50246 43676
L50270 43581
L50294 43533
L50318 43509
L50365 43485
" />
<path d="M48889 45985
L48603 45985
" />
<path d="M48746 45985
L48746 45485
L48699 45557
L48651 45604
L48603 45628
" />
<path d="M49199 45485
L49246 45485
L49294 45509
L49318 45533
L49342 45581
L49365 45676
L49365 45795
L49342 45890
L49318 45938
L49294 45962
L49246 45985
L49199 45985
L49151 45962
L49127 45938
L49103 45890
L49080 45795
L49080 45676
L49103 45581
L49127 45533
L49151 45509
L49199 45485
" />
<path d="M49675 45485
L49723 45485
L49770 45509
L49794 45533
L49818 45581
L49842 45676
L49842 45795
L49818 45890
L49794 45938
L49770 45962
L49723 45985
L49675 45985
L49627 45962
L49603 45938
L49580 45890
L49556 45795
L49556 45676
L49580 45581
L49603 45533
L49627 45509
L49675 45485
" />
<path d="M50151 45485
L50199 45485
L50246 45509
L50270 45533
L50294 45581
L50318 45676
L50318 45795
L50294 45890
L50270 45938
L50246 45962
L50199 45985
L50151 45985
L50103 45962
L50080 45938
L50056 45890
L50032 45795
L50032 45676
L50056 45581
L50080 45533
L50103 45509
L50151 45485
" />
<path d="M50746 45652
L50746 45985
" />
<path d="M50532 45652
L50532 45914
L50556 45962
L50603 45985
L50675 45985
L50723 45962
L50746 45938
" />
<path d="M51151 45723
L50984 45723
" />
<path d="M50984 45985
L50984 45485
L51223 45485
" />
<path d="M50564 36162
L50540 36186
L50469 36210
L50421 36210
L50350 36186
L50302 36138
L50278 36091
L50254 35995
L50254 35924
L50278 35829
L50302 35781
L50350 35734
L50421 35710
L50469 35710
L50540 35734
L50564 35757
" />
<path d="M51040 36210
L50754 36210
" />
<path d="M50897 36210
L50897 35710
L50850 35781
L50802 35829
L50754 35853
" />
<path d="M51516 36210
L51231 36210
" />
<path d="M51373 36210
L51373 35710
L51326 35781
L51278 35829
L51231 35853
" />
<path d="M49873 38210
L49588 38210
" />
<path d="M49731 38210
L49731 37710
L49683 37781
L49635 37829
L49588 37853
" />
<path d="M50183 37710
L50231 37710
L50278 37734
L50302 37757
L50326 37805
L50350 37900
L50350 38019
L50326 38115
L50302 38162
L50278 38186
L50231 38210
L50183 38210
L50135 38186
L50112 38162
L50088 38115
L50064 38019
L50064 37900
L50088 37805
L50112 37757
L50135 37734
L50183 37710
" />
<path d="M50659 37710
L50707 37710
L50754 37734
L50778 37757
L50802 37805
L50826 37900
L50826 38019
L50802 38115
L50778 38162
L50754 38186
L50707 38210
L50659 38210
L50612 38186
L50588 38162
L50564 38115
L50540 38019
L50540 37900
L50564 37805
L50588 37757
L50612 37734
L50659 37710
" />
<path d="M51135 37710
L51183 37710
L51231 37734
L51254 37757
L51278 37805
L51302 37900
L51302 38019
L51278 38115
L51254 38162
L51231 38186
L51183 38210
L51135 38210
L51088 38186
L51064 38162
L51040 38115
L51016 38019
L51016 37900
L51040 37805
L51064 37757
L51088 37734
L51135 37710
" />
<path d="M51731 37876
L51731 38210
" />
<path d="M51516 37876
L51516 38138
L51540 38186
L51588 38210
L51659 38210
L51707 38186
L51731 38162
" />
<path d="M52135 37948
L51969 37948
" />
<path d="M51969 38210
L51969 37710
L52207 37710
" />
</g>
<g style="fill:#00A0A0; fill-opacity:0.0; 
stroke:#00A0A0; stroke-width:50; stroke-opacity:1; 
stroke-linecap:round; stroke-linejoin:round;">
<path d="M55407 40404
L55422 40418
L55436 40461
L55436 40490
L55422 40532
L55393 40561
L55364 40575
L55307 40590
L55264 40590
L55207 40575
L55179 40561
L55150 40532
L55136 40490
L55136 40461
L55150 40418
L55164 40404
" />
<path d="M55436 40118
L55436 40290
" />
<path d="M55436 40204
L55136 40204
L55179 40232
L55207 40261
L55222 40290
" />
<path d="M54055 44427
L54255 44427
" />
<path d="M53941 44486
L54155 44546
L54155 44391
" />
<path d="M53955 44320
L53955 44153
L54255 44260
" />
<path d="M53955 44010
L53955 43986
L53969 43963
L53983 43951
L54012 43939
L54069 43927
L54141 43927
L54198 43939
L54226 43951
L54241 43963
L54255 43986
L54255 44010
L54241 44034
L54226 44046
L54198 44058
L54141 44070
L54069 44070
L54012 44058
L53983 44046
L53969 44034
L53955 44010
" />
<path d="M53955 43772
L53955 43748
L53969 43725
L53983 43713
L54012 43701
L54069 43689
L54141 43689
L54198 43701
L54226 43713
L54241 43725
L54255 43748
L54255 43772
L54241 43796
L54226 43808
L54198 43820
L54141 43832
L54069 43832
L54012 43820
L53983 43808
L53969 43796
L53955 43772
" />
<path d="M54055 43475
L54255 43475
" />
<path d="M54055 43582
L54212 43582
L54241 43570
L54255 43546
L54255 43510
L54241 43486
L54226 43475
" />
<path d="M54098 43272
L54098 43355
" />
<path d="M54255 43355
L53955 43355
L53955 43236
" />
</g>
<g style="fill:#00A0A0; fill-opacity:0.0; 
stroke:#00A0A0; stroke-width:75; stroke-opacity:1; 
stroke-linecap:round; stroke-linejoin:round;">
<path d="M55322 42043
L55322 41814
" />
<path d="M55436 41929
L55207 41929
" />
</g>
<g style="fill:#00A0A0; fill-opacity:0.0; 
stroke:#00A0A0; stroke-width:80; stroke-opacity:1; 
stroke-linecap:round; stroke-linejoin:round;">
<path d="M68430 46956
L68449 46975
L68468 47032
L68468 47070
L68449 47127
L68411 47165
L68373 47185
L68297 47204
L68240 47204
L68164 47185
L68126 47165
L68088 47127
L68068 47070
L68068 47032
L68088 46975
L68107 46956
" />
<path d="M68468 46765
L68468 46689
L68449 46651
L68430 46632
L68373 46594
L68297 46575
L68145 46575
L68107 46594
L68088 46613
L68068 46651
L68068 46727
L68088 46765
L68107 46785
L68145 46804
L68240 46804
L68278 46785
L68297 46765
L68316 46727
L68316 46651
L68297 46613
L68278 46594
L68240 46575
" />
<path d="M68202 44694
L68468 44694
" />
<path d="M68049 44789
L68335 44885
L68335 44637
" />
<path d="M68068 44523
L68068 44256
L68468 44427
" />
<path d="M68068 44142
L68068 43894
L68221 44027
L68221 43970
L68240 43932
L68259 43913
L68297 43894
L68392 43894
L68430 43913
L68449 43932
L68468 43970
L68468 44085
L68449 44123
L68430 44142
" />
<path d="M72072 46858
L72091 46877
L72110 46934
L72110 46972
L72091 47029
L72053 47067
L72015 47086
L71939 47105
L71882 47105
L71805 47086
L71767 47067
L71729 47029
L71710 46972
L71710 46934
L71729 46877
L71748 46858
" />
<path d="M71882 46629
L71863 46667
L71844 46686
L71805 46705
L71786 46705
L71748 46686
L71729 46667
L71710 46629
L71710 46553
L71729 46515
L71748 46496
L71786 46477
L71805 46477
L71844 46496
L71863 46515
L71882 46553
L71882 46629
L71901 46667
L71920 46686
L71958 46705
L72034 46705
L72072 46686
L72091 46667
L72110 46629
L72110 46553
L72091 46515
L72072 46496
L72034 46477
L71958 46477
L71920 46496
L71901 46515
L71882 46553
" />
<path d="M71844 44596
L72110 44596
" />
<path d="M71691 44691
L71977 44786
L71977 44538
" />
<path d="M71710 44424
L71710 44158
L72110 44329
" />
<path d="M71844 43834
L72110 43834
" />
<path d="M71691 43929
L71977 44024
L71977 43777
" />
<path d="M71875 28865
L71894 28884
L71913 28942
L71913 28980
L71894 29037
L71856 29075
L71818 29094
L71742 29113
L71685 29113
L71609 29094
L71571 29075
L71532 29037
L71513 28980
L71513 28942
L71532 28884
L71551 28865
" />
<path d="M71513 28732
L71513 28465
L71913 28637
" />
<path d="M71647 31603
L71913 31603
" />
<path d="M71494 31699
L71780 31794
L71780 31546
" />
<path d="M71513 31432
L71513 31165
L71913 31337
" />
<path d="M71647 30842
L71913 30842
" />
<path d="M71494 30937
L71780 31032
L71780 30784
" />
</g>
<g style="fill:#00A0A0; fill-opacity:0.0; 
stroke:#00A0A0; stroke-width:50; stroke-opacity:1; 
stroke-linecap:round; stroke-linejoin:round;">
<circle cx="76494.1" cy="38007.9" r="3181.98" /> 
</g>
<g style="fill:#00A0A0; fill-opacity:0.0; 
stroke:#00A0A0; stroke-width:120; stroke-opacity:1; 
stroke-linecap:round; stroke-linejoin:round;">
<circle cx="55807.1" cy="38287.4" r="2195.45" /> 
</g>
<g style="fill:#00A0A0; fill-opacity:0.0; 
stroke:#00A0A0; stroke-width:50; stroke-opacity:1; 
stroke-linecap:round; stroke-linejoin:round;">
<circle cx="80494.1" cy="32757.9" r="1001.25" /> 
<circle cx="80744.1" cy="43757.9" r="1001.25" /> 
</g>
<g style="fill:#00A0A0; fill-opacity:0.0; 
stroke:#00A0A0; stroke-width:150; stroke-opacity:1; 
stroke-linecap:round; stroke-linejoin:round;">
<circle cx="49901.6" cy="29724.4" r="247.487" /> 
<circle cx="47637.8" cy="28740.2" r="247.487" /> 
<circle cx="51968.5" cy="28740.2" r="247.487" /> 
<circle cx="81244.1" cy="38757.9" r="247.487" /> 
<circle cx="81244.1" cy="36757.9" r="247.487" /> 
<circle cx="47834.6" cy="31397.6" r="247.487" /> 
<circle cx="81244.1" cy="40507.9" r="247.487" /> 
<circle cx="47834.6" cy="34350.4" r="247.487" /> 
</g>
<g style="fill:#00A0A0; fill-opacity:0.0; 
stroke:#00A0A0; stroke-width:80; stroke-opacity:1; 
stroke-linecap:round; stroke-linejoin:round;">
<path d="M77994 43257
L77994 43457
" />
<path d="M77994 46257
L77994 46057
" />
<path d="M77994 46057
L78394 46057
" />
<path d="M78394 46057
L78394 43457
" />
<path d="M78394 43457
L77594 43457
" />
<path d="M77594 43457
L77594 46057
" />
<path d="M77594 46057
L77994 46057
" />
<path d="M78194 43457
L78394 43657
" />
<path d="M78994 43257
L78994 43457
" />
<path d="M78994 46257
L78994 46057
" />
<path d="M78994 46057
L79394 46057
" />
<path d="M79394 46057
L79394 43457
" />
<path d="M79394 43457
L78594 43457
" />
<path d="M78594 43457
L78594 46057
" />
<path d="M78594 46057
L78994 46057
" />
<path d="M79194 43457
L79394 43657
" />
<path d="M78744 33257
L78744 33057
" />
<path d="M78744 30257
L78744 30457
" />
<path d="M78744 30457
L78344 30457
" />
<path d="M78344 30457
L78344 33057
" />
<path d="M78344 33057
L79144 33057
" />
<path d="M79144 33057
L79144 30457
" />
<path d="M79144 30457
L78744 30457
" />
<path d="M78544 33057
L78344 32857
" />
<path d="M77744 33257
L77744 33057
" />
<path d="M77744 30257
L77744 30457
" />
<path d="M77744 30457
L77344 30457
" />
<path d="M77344 30457
L77344 33057
" />
<path d="M77344 33057
L78144 33057
" />
<path d="M78144 33057
L78144 30457
" />
<path d="M78144 30457
L77744 30457
" />
<path d="M77544 33057
L77344 32857
" />
<path d="M70570 32799
L70570 32599
" />
<path d="M70570 29799
L70570 29999
" />
<path d="M70570 29999
L70170 29999
" />
<path d="M70170 29999
L70170 32599
" />
<path d="M70170 32599
L70970 32599
" />
<path d="M70970 32599
L70970 29999
" />
<path d="M70970 29999
L70570 29999
" />
<path d="M70370 32599
L70170 32399
" />
<path d="M70570 42791
L70570 42991
" />
<path d="M70570 45791
L70570 45591
" />
<path d="M70570 45591
L70970 45591
" />
<path d="M70970 45591
L70970 42991
" />
<path d="M70970 42991
L70170 42991
" />
<path d="M70170 42991
L70170 45591
" />
<path d="M70170 45591
L70570 45591
" />
<path d="M70770 42991
L70970 43191
" />
<path d="M69500 29750
L69500 29950
" />
<path d="M69500 32750
L69500 32550
" />
<path d="M69500 32550
L69900 32550
" />
<path d="M69900 32550
L69900 29950
" />
<path d="M69900 29950
L69100 29950
" />
<path d="M69100 29950
L69100 32550
" />
<path d="M69100 32550
L69500 32550
" />
<path d="M69700 29950
L69900 30150
" />
<path d="M69389 42791
L69389 42991
" />
<path d="M69389 45791
L69389 45591
" />
<path d="M69389 45591
L69789 45591
" />
<path d="M69789 45591
L69789 42991
" />
<path d="M69789 42991
L68989 42991
" />
<path d="M68989 42991
L68989 45591
" />
<path d="M68989 45591
L69389 45591
" />
<path d="M69589 42991
L69789 43191
" />
<path d="M58956 45496
L58956 45296
" />
<path d="M58956 42496
L58956 42696
" />
<path d="M58956 42696
L58556 42696
" />
<path d="M58556 42696
L58556 45296
" />
<path d="M58556 45296
L59356 45296
" />
<path d="M59356 45296
L59356 42696
" />
<path d="M59356 42696
L58956 42696
" />
<path d="M58756 45296
L58556 45096
" />
<path d="M55094 34251
L55294 34251
" />
<path d="M58094 34251
L57894 34251
" />
<path d="M57894 34251
L57894 33851
" />
<path d="M57894 33851
L55294 33851
" />
<path d="M55294 33851
L55294 34651
" />
<path d="M55294 34651
L57894 34651
" />
<path d="M57894 34651
L57894 34251
" />
<path d="M55294 34051
L55494 33851
" />
<path d="M48992 40551
L49192 40551
" />
<path d="M51992 40551
L51792 40551
" />
<path d="M51792 40551
L51792 40151
" />
<path d="M51792 40151
L49192 40151
" />
<path d="M49192 40151
L49192 40951
" />
<path d="M49192 40951
L51792 40951
" />
<path d="M51792 40951
L51792 40551
" />
<path d="M49192 40351
L49392 40151
" />
<path d="M48992 41830
L49192 41830
" />
<path d="M51992 41830
L51792 41830
" />
<path d="M51792 41830
L51792 41430
" />
<path d="M51792 41430
L49192 41430
" />
<path d="M49192 41430
L49192 42230
" />
<path d="M49192 42230
L51792 42230
" />
<path d="M51792 42230
L51792 41830
" />
<path d="M49192 41630
L49392 41430
" />
</g>
<g style="fill:#00A0A0; fill-opacity:0.0; 
stroke:#00A0A0; stroke-width:150; stroke-opacity:1; 
stroke-linecap:round; stroke-linejoin:round;">
<path d="M63877 37598
L67814 37598
" />
<path d="M67814 37598
L67814 45472
" />
<path d="M67814 45472
L63877 45472
" />
<path d="M63877 45472
L63877 37598
" />
</g>
<g style="fill:#00A0A0; fill-opacity:0.0; 
stroke:#00A0A0; stroke-width:80; stroke-opacity:1; 
stroke-linecap:round; stroke-linejoin:round;">
<path d="M65052 40235
L65052 42835
" />
<path d="M65452 40235
L64902 40235
" />
<path d="M64902 40235
L64902 42835
" />
<path d="M64902 42835
L65902 42835
" />
<path d="M65902 42835
L65902 40235
" />
<path d="M65902 40235
L65452 40235
" />
</g>
<g style="fill:#00A0A0; fill-opacity:0.0; 
stroke:#00A0A0; stroke-width:150; stroke-opacity:1; 
stroke-linecap:round; stroke-linejoin:round;">
<path d="M67913 36220
L63976 36220
" />
<path d="M63976 36220
L63976 28346
" />
<path d="M63976 28346
L67913 28346
" />
<path d="M67913 28346
L67913 36220
" />
</g>
<g style="fill:#00A0A0; fill-opacity:0.0; 
stroke:#00A0A0; stroke-width:80; stroke-opacity:1; 
stroke-linecap:round; stroke-linejoin:round;">
<path d="M66738 33583
L66738 30983
" />
<path d="M66338 33583
L66888 33583
" />
<path d="M66888 33583
L66888 30983
" />
<path d="M66888 30983
L65888 30983
" />
<path d="M65888 30983
L65888 33583
" />
<path d="M65888 33583
L66338 33583
" />
</g>
<g style="fill:#00A0A0; fill-opacity:0.0; 
stroke:#00A0A0; stroke-width:150; stroke-opacity:1; 
stroke-linecap:round; stroke-linejoin:round;">
<path d="M51181 29724
L51181 33661
" />
<path d="M51181 33661
L59055 33661
" />
<path d="M59055 33661
L59055 29724
" />
<path d="M59055 29724
L51181 29724
" />
</g>
<g style="fill:#00A0A0; fill-opacity:0.0; 
stroke:#00A0A0; stroke-width:26; stroke-opacity:1; 
stroke-linecap:round; stroke-linejoin:round;">
<path d="M55899 30680
L56399 30680
" />
<path d="M56399 30680
L56399 30330
" />
<path d="M55899 30330
L56399 30330
" />
<path d="M55899 30680
L55899 30330
" />
<path d="M55899 31330
L56399 31330
" />
<path d="M56399 31330
L56399 30680
" />
<path d="M55899 30680
L56399 30680
" />
<path d="M55899 31330
L55899 30680
" />
<path d="M54899 30680
L55399 30680
" />
<path d="M55399 30680
L55399 30330
" />
<path d="M54899 30330
L55399 30330
" />
<path d="M54899 30680
L54899 30330
" />
<path d="M53899 30680
L54399 30680
" />
<path d="M54399 30680
L54399 30330
" />
<path d="M53899 30330
L54399 30330
" />
<path d="M53899 30680
L53899 30330
" />
<path d="M54899 31330
L55399 31330
" />
<path d="M55399 31330
L55399 30680
" />
<path d="M54899 30680
L55399 30680
" />
<path d="M54899 31330
L54899 30680
" />
<path d="M53899 31330
L54399 31330
" />
<path d="M54399 31330
L54399 30680
" />
<path d="M53899 30680
L54399 30680
" />
<path d="M53899 31330
L53899 30680
" />
</g>
<g style="fill:#00A0A0; fill-opacity:0.0; 
stroke:#00A0A0; stroke-width:70; stroke-opacity:1; 
stroke-linecap:round; stroke-linejoin:round;">
<path d="M53099 30330
L57199 30330
" />
</g>
<g style="fill:#00A0A0; fill-opacity:0.0; 
stroke:#00A0A0; stroke-width:150; stroke-opacity:1; 
stroke-linecap:round; stroke-linejoin:round;">
<path d="M60297 40393
L60297 42833
" />
<path d="M59583 45597
L59579 37383
" />
<path d="M59563 37399
L63523 37383
" />
<path d="M63523 37383
L63507 45649
" />
<path d="M63507 45633
L59547 45633
" />
</g>
<g style="fill:#00A0A0; fill-opacity:0.0; 
stroke:#00A0A0; stroke-width:26; stroke-opacity:1; 
stroke-linecap:round; stroke-linejoin:round;">
<path d="M60623 40895
L60623 40395
" />
<path d="M60623 40395
L60273 40395
" />
<path d="M60273 40895
L60273 40395
" />
<path d="M60623 40895
L60273 40895
" />
<path d="M61273 40895
L61273 40395
" />
<path d="M61273 40395
L60623 40395
" />
<path d="M60623 40895
L60623 40395
" />
<path d="M61273 40895
L60623 40895
" />
<path d="M60623 41895
L60623 41395
" />
<path d="M60623 41395
L60273 41395
" />
<path d="M60273 41895
L60273 41395
" />
<path d="M60623 41895
L60273 41895
" />
<path d="M60623 42895
L60623 42395
" />
<path d="M60623 42395
L60273 42395
" />
<path d="M60273 42895
L60273 42395
" />
<path d="M60623 42895
L60273 42895
" />
<path d="M61273 41895
L61273 41395
" />
<path d="M61273 41395
L60623 41395
" />
<path d="M60623 41895
L60623 41395
" />
<path d="M61273 41895
L60623 41895
" />
<path d="M61273 42895
L61273 42395
" />
<path d="M61273 42395
L60623 42395
" />
<path d="M60623 42895
L60623 42395
" />
<path d="M61273 42895
L60623 42895
" />
</g>
<g style="fill:#00A0A0; fill-opacity:0.0; 
stroke:#00A0A0; stroke-width:150; stroke-opacity:1; 
stroke-linecap:round; stroke-linejoin:round;">
<path d="M60395 31141
L60395 33581
" />
<path d="M59681 36345
L59677 28131
" />
<path d="M59661 28147
L63621 28131
" />
<path d="M63621 28131
L63605 36397
" />
<path d="M63605 36381
L59645 36381
" />
</g>
<g style="fill:#00A0A0; fill-opacity:0.0; 
stroke:#00A0A0; stroke-width:26; stroke-opacity:1; 
stroke-linecap:round; stroke-linejoin:round;">
<path d="M60721 31643
L60721 31143
" />
<path d="M60721 31143
L60371 31143
" />
<path d="M60371 31643
L60371 31143
" />
<path d="M60721 31643
L60371 31643
" />
<path d="M61371 31643
L61371 31143
" />
<path d="M61371 31143
L60721 31143
" />
<path d="M60721 31643
L60721 31143
" />
<path d="M61371 31643
L60721 31643
" />
<path d="M60721 32643
L60721 32143
" />
<path d="M60721 32143
L60371 32143
" />
<path d="M60371 32643
L60371 32143
" />
<path d="M60721 32643
L60371 32643
" />
<path d="M60721 33643
L60721 33143
" />
<path d="M60721 33143
L60371 33143
" />
<path d="M60371 33643
L60371 33143
" />
<path d="M60721 33643
L60371 33643
" />
<path d="M61371 32643
L61371 32143
" />
<path d="M61371 32143
L60721 32143
" />
<path d="M60721 32643
L60721 32143
" />
<path d="M61371 32643
L60721 32643
" />
<path d="M61371 33643
L61371 33143
" />
<path d="M61371 33143
L60721 33143
" />
<path d="M60721 33643
L60721 33143
" />
<path d="M61371 33643
L60721 33643
" />
</g>
<g style="fill:#00A0A0; fill-opacity:0.0; 
stroke:#00A0A0; stroke-width:150; stroke-opacity:1; 
stroke-linecap:round; stroke-linejoin:round;">
<circle cx="70433.1" cy="36299.2" r="1060.07" /> 
<path d="M68503 36023
L68700 36023
" />
<path d="M68700 36023
L68700 36417
" />
<path d="M68700 36417
L68503 36417
" />
<path d="M68503 36417
L68503 36220
" />
<path d="M68503 34842
L72244 34842
" />
<path d="M72244 34842
L72244 37795
" />
<path d="M72244 37795
L68503 37795
" />
<path d="M68503 37795
L68503 34842
" />
<circle cx="70433.1" cy="40039.4" r="1060.07" /> 
<path d="M68503 39763
L68700 39763
" />
<path d="M68700 39763
L68700 40157
" />
<path d="M68700 40157
L68503 40157
" />
<path d="M68503 40157
L68503 39960
" />
<path d="M68503 38582
L72244 38582
" />
<path d="M72244 38582
L72244 41535
" />
<path d="M72244 41535
L68503 41535
" />
<path d="M68503 41535
L68503 38582
" />
</g>
<g style="fill:#00A0A0; fill-opacity:0.0; 
stroke:#00A0A0; stroke-width:120; stroke-opacity:1; 
stroke-linecap:round; stroke-linejoin:round;">
<circle cx="74744.1" cy="31257.9" r="1750" /> 
<circle cx="74994.1" cy="44757.9" r="1750" /> 
<circle cx="49901.6" cy="44783.5" r="2195.45" /> 
<circle cx="50885.8" cy="37007.9" r="2195.45" /> 
</g>
<g style="fill:#00A0A0; fill-opacity:0.0; 
stroke:#00A0A0; stroke-width:150; stroke-opacity:1; 
stroke-linecap:round; stroke-linejoin:round;">
<path d="M56692 46456
L53937 46456
" />
<circle cx="55315" cy="43897.6" r="2952.76" /> 
<circle cx="64846.5" cy="46555.1" r="247.487" /> 
<circle cx="66346.5" cy="46555.1" r="247.487" /> 
<circle cx="71736.2" cy="28838.6" r="247.487" /> 
<circle cx="73236.2" cy="28838.6" r="247.487" /> 
</g>
<g style="fill:#00A0A0; fill-opacity:0.0; 
stroke:#00A0A0; stroke-width:120; stroke-opacity:1; 
stroke-linecap:round; stroke-linejoin:round;">
<path d="M68707 42989
L68707 45789
" />
<path d="M68707 45789
L67907 45789
" />
<path d="M67907 45789
L67907 42989
" />
<path d="M67907 42989
L68707 42989
" />
<path d="M68507 42989
L68707 43189
" />
<path d="M72348 42891
L72348 45691
" />
<path d="M72348 45691
L71548 45691
" />
<path d="M71548 45691
L71548 42891
" />
<path d="M71548 42891
L72348 42891
" />
<path d="M72148 42891
L72348 43091
" />
<path d="M71351 32699
L71351 29899
" />
<path d="M71351 29899
L72151 29899
" />
<path d="M72151 29899
L72151 32699
" />
<path d="M72151 32699
L71351 32699
" />
<path d="M71551 32699
L71351 32499
" />
</g>
<g style="fill:#808000; fill-opacity:0.0; 
stroke:#808000; stroke-width:39.3701; stroke-opacity:1; 
stroke-linecap:round; stroke-linejoin:round;">
</g>
<g style="fill:#808000; fill-opacity:1.0; 
stroke:#808000; stroke-width:39.3701; stroke-opacity:1; 
stroke-linecap:round; stroke-linejoin:round;">
<polyline style="fill-rule:evenodd;"
points="74013,40527
74974,40527
74974,41488
74013,41488
74013,40527
" /> 
<circle cx="76494.1" cy="41007.9" r="480.315" /> 
<circle cx="78494.1" cy="41007.9" r="480.315" /> 
<circle cx="79494.1" cy="39007.9" r="480.315" /> 
<circle cx="79494.1" cy="37007.9" r="480.315" /> 
<circle cx="78494.1" cy="35007.9" r="480.315" /> 
<circle cx="76494.1" cy="35007.9" r="480.315" /> 
<circle cx="74494.1" cy="35007.9" r="480.315" /> 
<circle cx="73494.1" cy="37007.9" r="480.315" /> 
<polyline style="fill-rule:evenodd;"
points="57137,37957
57137,38617
56476,38617
56476,37957
57137,37957
" /> 
<circle cx="54807.1" cy="38287.4" r="330.315" /> 
<polyline style="fill-rule:evenodd;"
points="79738,33013
79738,32502
80249,32502
80249,33013
79738,33013
" /> 
<circle cx="80994.1" cy="32757.9" r="255.315" /> 
<polyline style="fill-rule:evenodd;"
points="79988,44013
79988,43502
80499,43502
80499,44013
79988,44013
" /> 
<circle cx="81244.1" cy="43757.9" r="255.315" /> 
<circle cx="49901.6" cy="29724.4" r="480.315" /> 
<circle cx="47637.8" cy="28740.2" r="480.315" /> 
<circle cx="51968.5" cy="28740.2" r="480.315" /> 
<circle cx="81244.1" cy="38757.9" r="480.315" /> 
<circle cx="81244.1" cy="36757.9" r="480.315" /> 
<circle cx="47834.6" cy="31397.6" r="480.315" /> 
<circle cx="81244.1" cy="40507.9" r="480.315" /> 
<circle cx="47834.6" cy="34350.4" r="480.315" /> 
<circle cx="77994.1" cy="43257.9" r="255.315" /> 
<circle cx="77994.1" cy="46257.9" r="255.315" /> 
<circle cx="78994.1" cy="43257.9" r="255.315" /> 
<circle cx="78994.1" cy="46257.9" r="255.315" /> 
<circle cx="78744.1" cy="33257.9" r="255.315" /> 
<circle cx="78744.1" cy="30257.9" r="255.315" /> 
<circle cx="77744.1" cy="33257.9" r="255.315" /> 
<circle cx="77744.1" cy="30257.9" r="255.315" /> 
<circle cx="70570.9" cy="32799.2" r="255.315" /> 
<circle cx="70570.9" cy="29799.2" r="255.315" /> 
<circle cx="70570.9" cy="42791.3" r="255.315" /> 
<circle cx="70570.9" cy="45791.3" r="255.315" /> 
<circle cx="69500" cy="29750" r="255.315" /> 
<circle cx="69500" cy="32750" r="255.315" /> 
<circle cx="69389.8" cy="42791.3" r="255.315" /> 
<circle cx="69389.8" cy="45791.3" r="255.315" /> 
<circle cx="58956.7" cy="45496.1" r="255.315" /> 
<circle cx="58956.7" cy="42496.1" r="255.315" /> 
<circle cx="55094.5" cy="34252" r="255.315" /> 
<circle cx="58094.5" cy="34252" r="255.315" /> 
<circle cx="48992.1" cy="40551.2" r="255.315" /> 
<circle cx="51992.1" cy="40551.2" r="255.315" /> 
<circle cx="48992.1" cy="41830.7" r="255.315" /> 
<circle cx="51992.1" cy="41830.7" r="255.315" /> 
<circle cx="65452.8" cy="41535.4" r="305.315" /> 
<circle cx="65452.8" cy="40635.4" r="305.315" /> 
<circle cx="65452.8" cy="42435.4" r="305.315" /> 
<circle cx="66338.6" cy="32283.5" r="305.315" /> 
<circle cx="66338.6" cy="33183.5" r="305.315" /> 
<circle cx="66338.6" cy="31383.5" r="305.315" /> 
</g>
<g style="fill:#808000; fill-opacity:1.0; 
stroke:#808000; stroke-width:600; stroke-opacity:1; 
stroke-linecap:round; stroke-linejoin:round;">
<path d="M55149 31030
L55149 31630
" />
<path d="M54149 31030
L54149 31630
" />
<path d="M56149 31030
L56149 31630
" />
<path d="M60973 42645
L61573 42645
" />
<path d="M60973 41645
L61573 41645
" />
<path d="M60973 40645
L61573 40645
" />
<path d="M61071 33393
L61671 33393
" />
<path d="M61071 32393
L61671 32393
" />
<path d="M61071 31393
L61671 31393
" />
</g>
<g style="fill:#808000; fill-opacity:1.0; 
stroke:#808000; stroke-width:39.3701; stroke-opacity:1; 
stroke-linecap:round; stroke-linejoin:round;">
<circle cx="69685" cy="35433.1" r="380.315" /> 
<circle cx="71724.4" cy="36378" r="380.315" /> 
<circle cx="69685" cy="37204.7" r="380.315" /> 
<circle cx="69685" cy="39173.2" r="380.315" /> 
<circle cx="71724.4" cy="40118.1" r="380.315" /> 
<circle cx="69685" cy="40944.9" r="380.315" /> 
<polyline style="fill-rule:evenodd;"
points="75074,32588
74413,32588
74413,31927
75074,31927
75074,32588
" /> 
<circle cx="74744.1" cy="30257.9" r="330.315" /> 
<polyline style="fill-rule:evenodd;"
points="74663,43427
75324,43427
75324,44088
74663,44088
74663,43427
" /> 
<circle cx="74994.1" cy="45757.9" r="330.315" /> 
<polyline style="fill-rule:evenodd;"
points="51231,44453
51231,45113
50571,45113
50571,44453
51231,44453
" /> 
<circle cx="48901.6" cy="44783.5" r="330.315" /> 
<polyline style="fill-rule:evenodd;"
points="52216,36677
52216,37338
51555,37338
51555,36677
52216,36677
" /> 
<circle cx="49885.8" cy="37007.9" r="330.315" /> 
<polyline style="fill-rule:evenodd;"
points="55059,42461
55570,42461
55570,42971
55059,42971
55059,42461
" /> 
<circle cx="55315" cy="45078.7" r="255.315" /> 
<circle cx="66346.5" cy="46555.1" r="480.315" /> 
<circle cx="64846.5" cy="46555.1" r="480.315" /> 
<circle cx="73236.2" cy="28838.6" r="480.315" /> 
<circle cx="71736.2" cy="28838.6" r="480.315" /> 
<circle cx="68307.1" cy="43389.8" r="374.016" /> 
<circle cx="68307.1" cy="45389.8" r="374.016" /> 
<circle cx="71948.8" cy="43291.3" r="374.016" /> 
<circle cx="71948.8" cy="45291.3" r="374.016" /> 
<circle cx="71752" cy="32299.2" r="374.016" /> 
<circle cx="71752" cy="30299.2" r="374.016" /> 
</g> 
</svg>
