<?xml version="1.0" standalone="no"?>
 <!DOCTYPE svg PUBLIC "-//W3C//DTD SVG 1.1//EN" 
 "http://www.w3.org/Graphics/SVG/1.1/DTD/svg11.dtd"> 
<svg xmlns="http://www.w3.org/2000/svg" version="1.1" 
    width="10.0381cm" height="5.34416cm" viewBox="0 0 39520 21040 ">
<title>SVG Picture created as HeadphoneAmp--brd.svg date 2014/06/04 21:55:29 </title>
  <desc>Picture generated by PCBNEW </desc>
<g style="fill:#000000; fill-opacity:1;stroke:#000000; stroke-opacity:1;
stroke-linecap:round; stroke-linejoin:round; "
 transform="translate(0 0) scale(1 1)">
</g>
<g style="fill:#000000; fill-opacity:0.0; 
stroke:#000000; stroke-width:150; stroke-opacity:1; 
stroke-linecap:round; stroke-linejoin:round;">
<path d="M39149 1033
L39149 20718
" />
<path d="M173 1033
L39149 1033
" />
<path d="M75 1131
L75 20816
" />
<path d="M75 20816
L39445 20816
" />
</g>
<g style="fill:#000000; fill-opacity:0.0; 
stroke:#000000; stroke-width:35; stroke-opacity:1; 
stroke-linecap:round; stroke-linejoin:round;">
<path d="M34691 16439
L35176 16439
L35233 16410
L35262 16382
L35291 16325
L35291 16210
L35262 16153
L35233 16125
L35176 16096
L34691 16096
" />
<path d="M35291 15496
L35291 15839
" />
<path d="M35291 15667
L34691 15667
L34776 15725
L34833 15782
L34862 15839
" />
<path d="M26976 17582
L26976 17382
" />
<path d="M27291 17296
L27291 17582
L26691 17582
L26691 17296
" />
<path d="M27233 16696
L27262 16725
L27291 16810
L27291 16867
L27262 16953
L27205 17010
L27148 17039
L27033 17067
L26948 17067
L26833 17039
L26776 17010
L26719 16953
L26691 16867
L26691 16810
L26719 16725
L26748 16696
" />
<path d="M27233 16096
L27262 16125
L27291 16210
L27291 16267
L27262 16353
L27205 16410
L27148 16439
L27033 16467
L26948 16467
L26833 16439
L26776 16410
L26719 16353
L26691 16267
L26691 16210
L26719 16125
L26748 16096
" />
<path d="M26948 15753
L26919 15810
L26891 15839
L26833 15867
L26805 15867
L26748 15839
L26719 15810
L26691 15753
L26691 15639
L26719 15582
L26748 15553
L26805 15525
L26833 15525
L26891 15553
L26919 15582
L26948 15639
L26948 15753
L26976 15810
L27005 15839
L27062 15867
L27176 15867
L27233 15839
L27262 15810
L27291 15753
L27291 15639
L27262 15582
L27233 15553
L27176 15525
L27062 15525
L27005 15553
L26976 15582
L26948 15639
" />
<path d="M26748 15296
L26719 15267
L26691 15210
L26691 15067
L26719 15010
L26748 14982
L26805 14953
L26862 14953
L26948 14982
L27291 15325
L27291 14953
" />
<path d="M28791 15860
L28791 16203
" />
<path d="M28791 16032
L28191 16032
L28276 16089
L28333 16146
L28362 16203
" />
<path d="M30748 16953
L30719 16925
L30691 16867
L30691 16725
L30719 16667
L30748 16639
L30805 16610
L30862 16610
L30948 16639
L31291 16982
L31291 16610
" />
<path d="M33691 15982
L33691 15610
L33919 15810
L33919 15725
L33948 15667
L33976 15639
L34033 15610
L34176 15610
L34233 15639
L34262 15667
L34291 15725
L34291 15896
L34262 15953
L34233 15982
" />
<path d="M35641 13167
L36041 13167
" />
<path d="M35412 13310
L35841 13453
L35841 13082
" />
<path d="M35441 9889
L35441 10175
L35726 10203
L35698 10175
L35669 10117
L35669 9975
L35698 9917
L35726 9889
L35783 9860
L35926 9860
L35983 9889
L36012 9917
L36041 9975
L36041 10117
L36012 10175
L35983 10203
" />
<path d="M33691 7167
L33691 7282
L33719 7339
L33748 7367
L33833 7425
L33948 7453
L34176 7453
L34233 7425
L34262 7396
L34291 7339
L34291 7225
L34262 7167
L34233 7139
L34176 7110
L34033 7110
L33976 7139
L33948 7167
L33919 7225
L33919 7339
L33948 7396
L33976 7425
L34033 7453
" />
<path d="M30691 6732
L30691 6332
L31291 6589
" />
<path d="M27698 7339
L27669 7396
L27641 7425
L27583 7453
L27555 7453
L27498 7425
L27469 7396
L27441 7339
L27441 7225
L27469 7167
L27498 7139
L27555 7110
L27583 7110
L27641 7139
L27669 7167
L27698 7225
L27698 7339
L27726 7396
L27755 7425
L27812 7453
L27926 7453
L27983 7425
L28012 7396
L28041 7339
L28041 7225
L28012 7167
L27983 7139
L27926 7110
L27812 7110
L27755 7139
L27726 7167
L27698 7225
" />
<path d="M26291 9896
L26291 9782
L26262 9725
L26233 9696
L26148 9639
L26033 9610
L25805 9610
L25748 9639
L25719 9667
L25691 9725
L25691 9839
L25719 9896
L25748 9925
L25805 9953
L25948 9953
L26005 9925
L26033 9896
L26062 9839
L26062 9725
L26033 9667
L26005 9639
L25948 9610
" />
<path d="M33041 19582
L32441 19582
L33041 19239
L32441 19239
" />
<path d="M33041 18867
L33012 18925
L32983 18953
L32926 18982
L32755 18982
L32698 18953
L32669 18925
L32641 18867
L32641 18782
L32669 18725
L32698 18696
L32755 18667
L32926 18667
L32983 18696
L33012 18725
L33041 18782
L33041 18867
" />
<path d="M32641 18467
L33041 18325
L32641 18182
" />
<path d="M33041 17696
L32726 17696
L32669 17725
L32641 17782
L32641 17896
L32669 17953
" />
<path d="M33012 17696
L33041 17753
L33041 17896
L33012 17953
L32955 17982
L32898 17982
L32841 17953
L32812 17896
L32812 17753
L32783 17696
" />
<path d="M33041 17325
L33012 17382
L32955 17410
L32441 17410
" />
</g>
<g style="fill:#000000; fill-opacity:0.0; 
stroke:#000000; stroke-width:100; stroke-opacity:1; 
stroke-linecap:round; stroke-linejoin:round;">
<path d="M12727 10266
L12704 10290
L12632 10314
L12585 10314
L12513 10290
L12465 10242
L12442 10195
L12418 10099
L12418 10028
L12442 9933
L12465 9885
L12513 9837
L12585 9814
L12632 9814
L12704 9837
L12727 9861
" />
<path d="M12918 9861
L12942 9837
L12989 9814
L13108 9814
L13156 9837
L13180 9861
L13204 9909
L13204 9956
L13180 10028
L12894 10314
L13204 10314
" />
<path d="M9489 12130
L9489 12464
" />
<path d="M9370 11940
L9251 12297
L9561 12297
" />
<path d="M9704 11964
L10037 11964
L9823 12464
" />
<path d="M10323 11964
L10370 11964
L10418 11987
L10442 12011
L10465 12059
L10489 12154
L10489 12273
L10465 12368
L10442 12416
L10418 12440
L10370 12464
L10323 12464
L10275 12440
L10251 12416
L10227 12368
L10204 12273
L10204 12154
L10227 12059
L10251 12011
L10275 11987
L10323 11964
" />
<path d="M10918 12130
L10918 12464
" />
<path d="M10704 12130
L10704 12392
L10727 12440
L10775 12464
L10846 12464
L10894 12440
L10918 12416
" />
<path d="M11323 12202
L11156 12202
" />
<path d="M11156 12464
L11156 11964
L11394 11964
" />
</g>
<g style="fill:#000000; fill-opacity:0.0; 
stroke:#000000; stroke-width:50; stroke-opacity:1; 
stroke-linecap:round; stroke-linejoin:round;">
<path d="M34898 5025
L34883 5039
L34841 5053
L34812 5053
L34769 5039
L34741 5010
L34726 4982
L34712 4925
L34712 4882
L34726 4825
L34741 4796
L34769 4767
L34812 4753
L34841 4753
L34883 4767
L34898 4782
" />
<path d="M34998 4753
L35183 4753
L35083 4867
L35126 4867
L35155 4882
L35169 4896
L35183 4925
L35183 4996
L35169 5025
L35155 5039
L35126 5053
L35041 5053
L35012 5039
L34998 5025
" />
<path d="M34730 6853
L34587 6853
" />
<path d="M34658 6853
L34658 6553
L34635 6596
L34611 6625
L34587 6639
" />
<path d="M34885 6553
L34908 6553
L34932 6567
L34944 6582
L34956 6610
L34968 6667
L34968 6739
L34956 6796
L34944 6825
L34932 6839
L34908 6853
L34885 6853
L34861 6839
L34849 6825
L34837 6796
L34825 6739
L34825 6667
L34837 6610
L34849 6582
L34861 6567
L34885 6553
" />
<path d="M35182 6653
L35182 6853
" />
<path d="M35075 6653
L35075 6810
L35087 6839
L35111 6853
L35147 6853
L35170 6839
L35182 6825
" />
<path d="M35385 6696
L35301 6696
" />
<path d="M35301 6853
L35301 6553
L35420 6553
" />
</g>
<g style="fill:#000000; fill-opacity:0.0; 
stroke:#000000; stroke-width:75; stroke-opacity:1; 
stroke-linecap:round; stroke-linejoin:round;">
<path d="M33983 6239
L34212 6239
" />
<path d="M34098 6353
L34098 6125
" />
</g>
<g style="fill:#000000; fill-opacity:0.0; 
stroke:#000000; stroke-width:50; stroke-opacity:1; 
stroke-linecap:round; stroke-linejoin:round;">
<path d="M35198 16075
L35183 16089
L35141 16103
L35112 16103
L35069 16089
L35041 16060
L35026 16032
L35012 15975
L35012 15932
L35026 15875
L35041 15846
L35069 15817
L35112 15803
L35141 15803
L35183 15817
L35198 15832
" />
<path d="M35455 15903
L35455 16103
" />
<path d="M35383 15789
L35312 16003
L35498 16003
" />
<path d="M34980 17853
L34837 17853
" />
<path d="M34908 17853
L34908 17553
L34885 17596
L34861 17625
L34837 17639
" />
<path d="M35135 17553
L35158 17553
L35182 17567
L35194 17582
L35206 17610
L35218 17667
L35218 17739
L35206 17796
L35194 17825
L35182 17839
L35158 17853
L35135 17853
L35111 17839
L35099 17825
L35087 17796
L35075 17739
L35075 17667
L35087 17610
L35099 17582
L35111 17567
L35135 17553
" />
<path d="M35432 17653
L35432 17853
" />
<path d="M35325 17653
L35325 17810
L35337 17839
L35361 17853
L35397 17853
L35420 17839
L35432 17825
" />
<path d="M35635 17696
L35551 17696
" />
<path d="M35551 17853
L35551 17553
L35670 17553
" />
</g>
<g style="fill:#000000; fill-opacity:0.0; 
stroke:#000000; stroke-width:75; stroke-opacity:1; 
stroke-linecap:round; stroke-linejoin:round;">
<path d="M34233 17239
L34462 17239
" />
<path d="M34348 17353
L34348 17125
" />
</g>
<g style="fill:#000000; fill-opacity:0.0; 
stroke:#000000; stroke-width:35; stroke-opacity:1; 
stroke-linecap:round; stroke-linejoin:round;">
<path d="M1610 3309
L1991 3309
" />
<path d="M1800 3499
L1800 3118
" />
<path d="M2157 2999
L2324 3499
L2491 2999
" />
<path d="M2657 3499
L2657 2999
" />
<path d="M2895 3499
L2895 2999
L3181 3499
L3181 2999
" />
<path d="M3681 3499
L3395 3499
" />
<path d="M3538 3499
L3538 2999
L3491 3070
L3443 3118
L3395 3142
" />
<path d="M883 2931
L860 2979
L860 3051
L883 3122
L931 3170
L979 3193
L1074 3217
L1145 3217
L1241 3193
L1288 3170
L1336 3122
L1360 3051
L1360 3003
L1336 2931
L1312 2908
L1145 2908
L1145 3003
" />
<path d="M1360 2693
L860 2693
L1360 2408
L860 2408
" />
<path d="M1360 2170
L860 2170
L860 2051
L883 1979
L931 1931
L979 1908
L1074 1884
L1145 1884
L1241 1908
L1288 1931
L1336 1979
L1360 2051
L1360 2170
" />
<path d="M1360 1408
L1360 1693
" />
<path d="M1360 1551
L860 1551
L931 1598
L979 1646
L1002 1693
" />
<path d="M3653 1940
L3605 1916
L3534 1916
L3463 1940
L3415 1988
L3391 2035
L3367 2131
L3367 2202
L3391 2297
L3415 2345
L3463 2393
L3534 2416
L3582 2416
L3653 2393
L3677 2369
L3677 2202
L3582 2202
" />
<path d="M3891 2416
L3891 1916
L4177 2416
L4177 1916
" />
<path d="M4415 2416
L4415 1916
L4534 1916
L4605 1940
L4653 1988
L4677 2035
L4701 2131
L4701 2202
L4677 2297
L4653 2345
L4605 2393
L4534 2416
L4415 2416
" />
<path d="M4891 1964
L4915 1940
L4963 1916
L5082 1916
L5129 1940
L5153 1964
L5177 2012
L5177 2059
L5153 2131
L4867 2416
L5177 2416
" />
<path d="M36415 12676
L36391 12723
L36391 12795
L36415 12866
L36462 12914
L36510 12937
L36605 12961
L36677 12961
L36772 12937
L36820 12914
L36867 12866
L36891 12795
L36891 12747
L36867 12676
L36843 12652
L36677 12652
L36677 12747
" />
<path d="M36891 12437
L36391 12437
L36891 12152
L36391 12152
" />
<path d="M36891 11914
L36391 11914
L36391 11795
L36415 11723
L36462 11676
L36510 11652
L36605 11628
L36677 11628
L36772 11652
L36820 11676
L36867 11723
L36891 11795
L36891 11914
" />
<path d="M36391 11461
L36391 11152
L36582 11318
L36582 11247
L36605 11199
L36629 11176
L36677 11152
L36796 11152
L36843 11176
L36867 11199
L36891 11247
L36891 11390
L36867 11437
L36843 11461
" />
<path d="M35438 10636
L35414 10660
L35343 10684
L35295 10684
L35224 10660
L35176 10613
L35152 10565
L35129 10470
L35129 10398
L35152 10303
L35176 10256
L35224 10208
L35295 10184
L35343 10184
L35414 10208
L35438 10232
" />
<path d="M35748 10184
L35843 10184
L35891 10208
L35938 10256
L35962 10351
L35962 10517
L35938 10613
L35891 10660
L35843 10684
L35748 10684
L35700 10660
L35652 10613
L35629 10517
L35629 10351
L35652 10256
L35700 10208
L35748 10184
" />
<path d="M36176 10684
L36176 10184
L36462 10684
L36462 10184
" />
<path d="M36700 10684
L36700 10184
L36986 10684
L36986 10184
" />
<path d="M37105 10732
L37486 10732
" />
<path d="M37867 10684
L37581 10684
" />
<path d="M37724 10684
L37724 10184
L37676 10256
L37629 10303
L37581 10327
" />
<path d="M36989 10665
L36989 10903
L36489 10903
" />
<path d="M36799 10498
L36799 10117
" />
<path d="M36989 9879
L36489 9879
" />
<path d="M36989 9641
L36489 9641
L36989 9355
L36489 9355
" />
<path d="M36989 8855
L36989 9141
" />
<path d="M36989 8998
L36489 8998
L36561 9046
L36609 9094
L36632 9141
" />
<path d="M1556 6077
L1556 6315
L1056 6315
" />
<path d="M1366 5910
L1366 5529
" />
<path d="M1056 5196
L1056 5101
L1080 5053
L1128 5006
L1223 4982
L1390 4982
L1485 5006
L1533 5053
L1556 5101
L1556 5196
L1533 5244
L1485 5291
L1390 5315
L1223 5315
L1128 5291
L1080 5244
L1056 5196
" />
<path d="M1056 4768
L1461 4768
L1509 4744
L1533 4720
L1556 4672
L1556 4577
L1533 4529
L1509 4506
L1461 4482
L1056 4482
" />
<path d="M1056 4315
L1056 4029
" />
<path d="M1556 4172
L1056 4172
" />
<path d="M1556 3601
L1556 3887
" />
<path d="M1556 3744
L1056 3744
L1128 3791
L1175 3839
L1199 3887
" />
<path d="M36989 14996
L36751 15162
" />
<path d="M36989 15281
L36489 15281
L36489 15091
L36513 15043
L36537 15019
L36585 14996
L36656 14996
L36704 15019
L36728 15043
L36751 15091
L36751 15281
" />
<path d="M36799 14781
L36799 14400
" />
<path d="M36989 14162
L36489 14162
" />
<path d="M36989 13924
L36489 13924
L36989 13639
L36489 13639
" />
<path d="M36989 13139
L36989 13424
" />
<path d="M36989 13281
L36489 13281
L36561 13329
L36609 13377
L36632 13424
" />
<path d="M35438 12386
L35414 12410
L35343 12434
L35295 12434
L35224 12410
L35176 12363
L35152 12315
L35129 12220
L35129 12148
L35152 12053
L35176 12006
L35224 11958
L35295 11934
L35343 11934
L35414 11958
L35438 11982
" />
<path d="M35748 11934
L35843 11934
L35891 11958
L35938 12006
L35962 12101
L35962 12267
L35938 12363
L35891 12410
L35843 12434
L35748 12434
L35700 12410
L35652 12363
L35629 12267
L35629 12101
L35652 12006
L35700 11958
L35748 11934
" />
<path d="M36176 12434
L36176 11934
L36462 12434
L36462 11934
" />
<path d="M36700 12434
L36700 11934
L36986 12434
L36986 11934
" />
<path d="M37105 12482
L37486 12482
" />
<path d="M37867 12434
L37581 12434
" />
<path d="M37724 12434
L37724 11934
L37676 12006
L37629 12053
L37581 12077
" />
<path d="M1556 9424
L1318 9590
" />
<path d="M1556 9709
L1056 9709
L1056 9519
L1080 9471
L1104 9447
L1152 9424
L1223 9424
L1271 9447
L1295 9471
L1318 9519
L1318 9709
" />
<path d="M1366 9209
L1366 8828
" />
<path d="M1056 8495
L1056 8400
L1080 8352
L1128 8304
L1223 8281
L1390 8281
L1485 8304
L1533 8352
L1556 8400
L1556 8495
L1533 8543
L1485 8590
L1390 8614
L1223 8614
L1128 8590
L1080 8543
L1056 8495
" />
<path d="M1056 8066
L1461 8066
L1509 8043
L1533 8019
L1556 7971
L1556 7876
L1533 7828
L1509 7804
L1461 7781
L1056 7781
" />
<path d="M1056 7614
L1056 7328
" />
<path d="M1556 7471
L1056 7471
" />
<path d="M1556 6900
L1556 7185
" />
<path d="M1556 7043
L1056 7043
L1128 7090
L1175 7138
L1199 7185
" />
</g>
<g style="fill:#000000; fill-opacity:0.0; 
stroke:#000000; stroke-width:80; stroke-opacity:1; 
stroke-linecap:round; stroke-linejoin:round;">
<path d="M32720 15815
L32458 15982
" />
<path d="M32720 16101
L32170 16101
L32170 15910
L32197 15863
L32223 15839
L32275 15815
L32354 15815
L32406 15839
L32432 15863
L32458 15910
L32458 16101
" />
<path d="M32354 15386
L32720 15386
" />
<path d="M32144 15506
L32537 15625
L32537 15315
" />
<path d="M32670 18815
L32670 19101
" />
<path d="M32670 18958
L32120 18958
L32199 19006
L32251 19053
L32277 19101
" />
<path d="M32120 18363
L32120 18601
L32382 18625
L32356 18601
L32330 18553
L32330 18434
L32356 18386
L32382 18363
L32435 18339
L32566 18339
L32618 18363
L32644 18386
L32670 18434
L32670 18553
L32644 18601
L32618 18625
" />
<path d="M32120 18029
L32120 17982
L32147 17934
L32173 17910
L32225 17886
L32330 17863
L32461 17863
L32566 17886
L32618 17910
L32644 17934
L32670 17982
L32670 18029
L32644 18077
L32618 18101
L32566 18125
L32461 18148
L32330 18148
L32225 18125
L32173 18101
L32147 18077
L32120 18029
" />
<path d="M32670 17363
L32408 17529
" />
<path d="M32670 17648
L32120 17648
L32120 17458
L32147 17410
L32173 17386
L32225 17363
L32304 17363
L32356 17386
L32382 17410
L32408 17458
L32408 17648
" />
<path d="M33720 15815
L33458 15982
" />
<path d="M33720 16101
L33170 16101
L33170 15910
L33197 15863
L33223 15839
L33275 15815
L33354 15815
L33406 15839
L33432 15863
L33458 15910
L33458 16101
" />
<path d="M33720 15339
L33720 15625
" />
<path d="M33720 15482
L33170 15482
L33249 15529
L33301 15577
L33327 15625
" />
<path d="M33670 18815
L33670 19101
" />
<path d="M33670 18958
L33120 18958
L33199 19006
L33251 19053
L33277 19101
" />
<path d="M33120 18506
L33120 18458
L33147 18410
L33173 18386
L33225 18363
L33330 18339
L33461 18339
L33566 18363
L33618 18386
L33644 18410
L33670 18458
L33670 18506
L33644 18553
L33618 18577
L33566 18601
L33461 18625
L33330 18625
L33225 18601
L33173 18577
L33147 18553
L33120 18506
" />
<path d="M33120 18029
L33120 17982
L33147 17934
L33173 17910
L33225 17886
L33330 17863
L33461 17863
L33566 17886
L33618 17910
L33644 17934
L33670 17982
L33670 18029
L33644 18077
L33618 18101
L33566 18125
L33461 18148
L33330 18148
L33225 18125
L33173 18101
L33147 18077
L33120 18029
" />
<path d="M33670 17648
L33120 17648
" />
<path d="M33670 17363
L33356 17577
" />
<path d="M33120 17363
L33435 17648
" />
<path d="M33470 7815
L33208 7982
" />
<path d="M33470 8101
L32920 8101
L32920 7910
L32947 7863
L32973 7839
L33025 7815
L33104 7815
L33156 7839
L33182 7863
L33208 7910
L33208 8101
" />
<path d="M32973 7625
L32947 7601
L32920 7553
L32920 7434
L32947 7386
L32973 7363
L33025 7339
L33077 7339
L33156 7363
L33470 7648
L33470 7339
" />
<path d="M33520 5815
L33520 6101
" />
<path d="M33520 5958
L32970 5958
L33049 6006
L33101 6053
L33127 6101
" />
<path d="M32970 5506
L32970 5458
L32997 5410
L33023 5386
L33075 5363
L33180 5339
L33311 5339
L33416 5363
L33468 5386
L33494 5410
L33520 5458
L33520 5506
L33494 5553
L33468 5577
L33416 5601
L33311 5625
L33180 5625
L33075 5601
L33023 5577
L32997 5553
L32970 5506
" />
<path d="M32970 5029
L32970 4982
L32997 4934
L33023 4910
L33075 4886
L33180 4863
L33311 4863
L33416 4886
L33468 4910
L33494 4934
L33520 4982
L33520 5029
L33494 5077
L33468 5101
L33416 5125
L33311 5148
L33180 5148
L33075 5125
L33023 5101
L32997 5077
L32970 5029
" />
<path d="M33520 4648
L32970 4648
" />
<path d="M33520 4363
L33206 4577
" />
<path d="M32970 4363
L33285 4648
" />
<path d="M32470 7815
L32208 7982
" />
<path d="M32470 8101
L31920 8101
L31920 7910
L31947 7863
L31973 7839
L32025 7815
L32104 7815
L32156 7839
L32182 7863
L32208 7910
L32208 8101
" />
<path d="M31920 7648
L31920 7339
L32130 7506
L32130 7434
L32156 7386
L32182 7363
L32235 7339
L32366 7339
L32418 7363
L32444 7386
L32470 7434
L32470 7577
L32444 7625
L32418 7648
" />
<path d="M32520 5815
L32520 6101
" />
<path d="M32520 5958
L31970 5958
L32049 6006
L32101 6053
L32127 6101
" />
<path d="M31970 5363
L31970 5601
L32232 5625
L32206 5601
L32180 5553
L32180 5434
L32206 5386
L32232 5363
L32285 5339
L32416 5339
L32468 5363
L32494 5386
L32520 5434
L32520 5553
L32494 5601
L32468 5625
" />
<path d="M31970 5029
L31970 4982
L31997 4934
L32023 4910
L32075 4886
L32180 4863
L32311 4863
L32416 4886
L32468 4910
L32494 4934
L32520 4982
L32520 5029
L32494 5077
L32468 5101
L32416 5125
L32311 5148
L32180 5148
L32075 5125
L32023 5101
L31997 5077
L31970 5029
" />
<path d="M32520 4363
L32258 4529
" />
<path d="M32520 4648
L31970 4648
L31970 4458
L31997 4410
L32023 4386
L32075 4363
L32154 4363
L32206 4386
L32232 4410
L32258 4458
L32258 4648
" />
<path d="M25297 2297
L25035 2464
" />
<path d="M25297 2583
L24747 2583
L24747 2393
L24773 2345
L24800 2321
L24852 2297
L24930 2297
L24983 2321
L25009 2345
L25035 2393
L25035 2583
" />
<path d="M24747 1845
L24747 2083
L25009 2107
L24983 2083
L24957 2035
L24957 1916
L24983 1869
L25009 1845
L25061 1821
L25192 1821
L25245 1845
L25271 1869
L25297 1916
L25297 2035
L25271 2083
L25245 2107
" />
<path d="M25347 4880
L25347 5166
" />
<path d="M25347 5023
L24797 5023
L24876 5071
L24928 5118
L24954 5166
" />
<path d="M25347 4666
L24797 4666
" />
<path d="M25347 4380
L25033 4594
" />
<path d="M24797 4380
L25111 4666
" />
<path d="M25297 15349
L25035 15515
" />
<path d="M25297 15634
L24747 15634
L24747 15444
L24773 15396
L24800 15372
L24852 15349
L24930 15349
L24983 15372
L25009 15396
L25035 15444
L25035 15634
" />
<path d="M24747 14920
L24747 15015
L24773 15063
L24800 15087
L24878 15134
L24983 15158
L25192 15158
L25245 15134
L25271 15110
L25297 15063
L25297 14968
L25271 14920
L25245 14896
L25192 14872
L25061 14872
L25009 14896
L24983 14920
L24957 14968
L24957 15063
L24983 15110
L25009 15134
L25061 15158
" />
<path d="M25247 17872
L25247 18158
" />
<path d="M25247 18015
L24697 18015
L24776 18063
L24828 18110
L24854 18158
" />
<path d="M25247 17658
L24697 17658
" />
<path d="M25247 17372
L24933 17587
" />
<path d="M24697 17372
L25011 17658
" />
<path d="M24226 2307
L23964 2474
" />
<path d="M24226 2593
L23676 2593
L23676 2402
L23702 2355
L23729 2331
L23781 2307
L23860 2307
L23912 2331
L23938 2355
L23964 2402
L23964 2593
" />
<path d="M23676 2141
L23676 1807
L24226 2021
" />
<path d="M23679 5355
L23652 5331
L23626 5283
L23626 5164
L23652 5117
L23679 5093
L23731 5069
L23783 5069
L23862 5093
L24176 5379
L24176 5069
" />
<path d="M24176 4855
L23626 4855
" />
<path d="M24176 4569
L23862 4783
" />
<path d="M23626 4569
L23941 4855
" />
<path d="M23679 4379
L23652 4355
L23626 4307
L23626 4188
L23652 4141
L23679 4117
L23731 4093
L23783 4093
L23862 4117
L24176 4402
L24176 4093
" />
<path d="M24116 15349
L23854 15515
" />
<path d="M24116 15634
L23566 15634
L23566 15444
L23592 15396
L23618 15372
L23671 15349
L23749 15349
L23802 15372
L23828 15396
L23854 15444
L23854 15634
" />
<path d="M23802 15063
L23776 15110
L23749 15134
L23697 15158
L23671 15158
L23618 15134
L23592 15110
L23566 15063
L23566 14968
L23592 14920
L23618 14896
L23671 14872
L23697 14872
L23749 14896
L23776 14920
L23802 14968
L23802 15063
L23828 15110
L23854 15134
L23906 15158
L24011 15158
L24064 15134
L24090 15110
L24116 15063
L24116 14968
L24090 14920
L24064 14896
L24011 14872
L23906 14872
L23854 14896
L23828 14920
L23802 14968
" />
<path d="M23568 18396
L23542 18372
L23516 18325
L23516 18206
L23542 18158
L23568 18134
L23621 18110
L23673 18110
L23752 18134
L24066 18420
L24066 18110
" />
<path d="M24066 17896
L23516 17896
" />
<path d="M24066 17610
L23752 17825
" />
<path d="M23516 17610
L23830 17896
" />
<path d="M23568 17420
L23542 17396
L23516 17349
L23516 17229
L23542 17182
L23568 17158
L23621 17134
L23673 17134
L23752 17158
L24066 17444
L24066 17134
" />
<path d="M13683 20053
L13421 20220
" />
<path d="M13683 20339
L13133 20339
L13133 20148
L13159 20101
L13185 20077
L13238 20053
L13316 20053
L13369 20077
L13395 20101
L13421 20148
L13421 20339
" />
<path d="M13683 19815
L13683 19720
L13657 19672
L13631 19648
L13552 19601
L13447 19577
L13238 19577
L13185 19601
L13159 19625
L13133 19672
L13133 19768
L13159 19815
L13185 19839
L13238 19863
L13369 19863
L13421 19839
L13447 19815
L13473 19768
L13473 19672
L13447 19625
L13421 19601
L13369 19577
" />
<path d="M13733 17815
L13733 18101
" />
<path d="M13733 17958
L13183 17958
L13262 18006
L13314 18053
L13340 18101
" />
<path d="M13183 17506
L13183 17458
L13209 17410
L13235 17387
L13288 17363
L13392 17339
L13523 17339
L13628 17363
L13681 17387
L13707 17410
L13733 17458
L13733 17506
L13707 17553
L13681 17577
L13628 17601
L13523 17625
L13392 17625
L13288 17601
L13235 17577
L13209 17553
L13183 17506
" />
<path d="M13733 16839
L13471 17006
" />
<path d="M13733 17125
L13183 17125
L13183 16934
L13209 16887
L13235 16863
L13288 16839
L13366 16839
L13419 16863
L13445 16887
L13471 16934
L13471 17125
" />
<path d="M8277 7948
L8110 7687
" />
<path d="M7991 7948
L7991 7398
L8181 7398
L8229 7425
L8253 7451
L8277 7503
L8277 7582
L8253 7634
L8229 7660
L8181 7687
L7991 7687
" />
<path d="M8753 7948
L8467 7948
" />
<path d="M8610 7948
L8610 7398
L8562 7477
L8515 7529
L8467 7556
" />
<path d="M9062 7398
L9110 7398
L9158 7425
L9181 7451
L9205 7503
L9229 7608
L9229 7739
L9205 7844
L9181 7896
L9158 7922
L9110 7948
L9062 7948
L9015 7922
L8991 7896
L8967 7844
L8943 7739
L8943 7608
L8967 7503
L8991 7451
L9015 7425
L9062 7398
" />
<path d="M10334 7979
L10048 7979
" />
<path d="M10191 7979
L10191 7429
L10143 7508
L10095 7560
L10048 7586
" />
<path d="M10643 7429
L10691 7429
L10738 7455
L10762 7481
L10786 7534
L10810 7639
L10810 7770
L10786 7874
L10762 7927
L10738 7953
L10691 7979
L10643 7979
L10595 7953
L10572 7927
L10548 7874
L10524 7770
L10524 7639
L10548 7534
L10572 7481
L10595 7455
L10643 7429
" />
<path d="M11310 7979
L11143 7717
" />
<path d="M11024 7979
L11024 7429
L11215 7429
L11262 7455
L11286 7481
L11310 7534
L11310 7612
L11286 7665
L11262 7691
L11215 7717
L11024 7717
" />
<path d="M2174 14248
L2008 13986
" />
<path d="M1889 14248
L1889 13698
L2079 13698
L2127 13724
L2151 13750
L2174 13802
L2174 13881
L2151 13933
L2127 13960
L2079 13986
L1889 13986
" />
<path d="M2651 14248
L2365 14248
" />
<path d="M2508 14248
L2508 13698
L2460 13776
L2412 13829
L2365 13855
" />
<path d="M3127 14248
L2841 14248
" />
<path d="M2984 14248
L2984 13698
L2936 13776
L2889 13829
L2841 13855
" />
<path d="M4889 14298
L4603 14298
" />
<path d="M4746 14298
L4746 13748
L4698 13826
L4651 13879
L4603 13905
" />
<path d="M5103 14298
L5103 13748
" />
<path d="M5389 14298
L5174 13983
" />
<path d="M5389 13748
L5103 14062
" />
<path d="M2174 15527
L2008 15265
" />
<path d="M1889 15527
L1889 14977
L2079 14977
L2127 15003
L2151 15030
L2174 15082
L2174 15161
L2151 15213
L2127 15239
L2079 15265
L1889 15265
" />
<path d="M2651 15527
L2365 15527
" />
<path d="M2508 15527
L2508 14977
L2460 15056
L2412 15108
L2365 15134
" />
<path d="M2841 15030
L2865 15003
L2912 14977
L3031 14977
L3079 15003
L3103 15030
L3127 15082
L3127 15134
L3103 15213
L2817 15527
L3127 15527
" />
<path d="M4889 15577
L4603 15577
" />
<path d="M4746 15577
L4746 15027
L4698 15106
L4651 15158
L4603 15184
" />
<path d="M5103 15577
L5103 15027
" />
<path d="M5389 15577
L5174 15263
" />
<path d="M5389 15027
L5103 15341
" />
<path d="M20156 17047
L20137 17085
L20099 17124
L20042 17181
L20023 17219
L20023 17257
" />
<path d="M20118 17238
L20099 17276
L20061 17314
L19985 17333
L19852 17333
L19775 17314
L19737 17276
L19718 17238
L19718 17162
L19737 17124
L19775 17085
L19852 17066
L19985 17066
L20061 17085
L20099 17124
L20118 17162
L20118 17238
" />
<path d="M20118 16685
L20118 16914
" />
<path d="M20118 16800
L19718 16800
L19775 16838
L19814 16876
L19833 16914
" />
<path d="M18868 15952
L18468 15952
" />
<path d="M18868 15533
L18678 15666
" />
<path d="M18868 15762
L18468 15762
L18468 15609
L18487 15571
L18506 15552
L18544 15533
L18602 15533
L18640 15552
L18659 15571
L18678 15609
L18678 15762
" />
<path d="M18659 15228
L18659 15362
" />
<path d="M18868 15362
L18468 15362
L18468 15171
" />
<path d="M18468 14828
L18468 15019
L18659 15038
L18640 15019
L18621 14981
L18621 14885
L18640 14847
L18659 14828
L18697 14809
L18792 14809
L18830 14828
L18849 14847
L18868 14885
L18868 14981
L18849 15019
L18830 15038
" />
<path d="M18602 14466
L18868 14466
" />
<path d="M18449 14562
L18735 14657
L18735 14409
" />
<path d="M18468 14181
L18468 14143
L18487 14105
L18506 14085
L18544 14066
L18621 14047
L18716 14047
L18792 14066
L18830 14085
L18849 14105
L18868 14143
L18868 14181
L18849 14219
L18830 14238
L18792 14257
L18716 14276
L18621 14276
L18544 14257
L18506 14238
L18487 14219
L18468 14181
" />
<path d="M21042 3795
L21023 3833
L20985 3872
L20928 3929
L20909 3967
L20909 4005
" />
<path d="M21004 3986
L20985 4024
L20947 4062
L20871 4081
L20737 4081
L20661 4062
L20623 4024
L20604 3986
L20604 3910
L20623 3872
L20661 3833
L20737 3814
L20871 3814
L20947 3833
L20985 3872
L21004 3910
L21004 3986
" />
<path d="M20642 3662
L20623 3643
L20604 3605
L20604 3510
L20623 3472
L20642 3453
L20680 3433
L20718 3433
L20776 3453
L21004 3681
L21004 3433
" />
<path d="M22254 6700
L21854 6700
" />
<path d="M22254 6281
L22064 6414
" />
<path d="M22254 6510
L21854 6510
L21854 6357
L21873 6319
L21892 6300
L21930 6281
L21987 6281
L22026 6300
L22045 6319
L22064 6357
L22064 6510
" />
<path d="M22045 5976
L22045 6110
" />
<path d="M22254 6110
L21854 6110
L21854 5919
" />
<path d="M21854 5576
L21854 5767
L22045 5786
L22026 5767
L22007 5729
L22007 5633
L22026 5595
L22045 5576
L22083 5557
L22178 5557
L22216 5576
L22235 5595
L22254 5633
L22254 5729
L22235 5767
L22216 5786
" />
<path d="M21987 5214
L22254 5214
" />
<path d="M21835 5310
L22121 5405
L22121 5157
" />
<path d="M21854 4929
L21854 4891
L21873 4853
L21892 4833
L21930 4814
L22007 4795
L22102 4795
L22178 4814
L22216 4833
L22235 4853
L22254 4891
L22254 4929
L22235 4967
L22216 4986
L22178 5005
L22102 5024
L22007 5024
L21930 5005
L21892 4986
L21873 4967
L21854 4929
" />
</g>
<g style="fill:#000000; fill-opacity:0.0; 
stroke:#000000; stroke-width:35; stroke-opacity:1; 
stroke-linecap:round; stroke-linejoin:round;">
<path d="M16180 18290
L15480 18290
" />
<path d="M16114 17557
L16147 17590
L16180 17690
L16180 17757
L16147 17857
L16080 17924
L16014 17957
L15880 17990
L15780 17990
L15647 17957
L15580 17924
L15514 17857
L15480 17757
L15480 17690
L15514 17590
L15547 17557
" />
<path d="M15547 17290
L15514 17257
L15480 17190
L15480 17024
L15514 16957
L15547 16924
L15614 16890
L15680 16890
L15780 16924
L16180 17324
L16180 16890
" />
<path d="M17814 16614
L17814 16947
L17114 16947
" />
<path d="M17814 16380
L17114 16380
L17614 16147
L17114 15914
L17814 15914
" />
<path d="M17114 15647
L17114 15214
L17381 15447
L17381 15347
L17414 15280
L17448 15247
L17514 15214
L17681 15214
L17748 15247
L17781 15280
L17814 15347
L17814 15547
L17781 15614
L17748 15647
" />
<path d="M17814 14547
L17814 14947
" />
<path d="M17814 14747
L17114 14747
L17214 14814
L17281 14880
L17314 14947
" />
<path d="M17114 14314
L17114 13847
L17814 14147
" />
<path d="M17814 13247
L17814 13580
L17114 13580
" />
<path d="M16479 15167
L16479 15072
L16503 15024
L16551 14976
L16646 14952
L16813 14952
L16908 14976
L16955 15024
L16979 15072
L16979 15167
L16955 15214
L16908 15262
L16813 15286
L16646 15286
L16551 15262
L16503 15214
L16479 15167
" />
<path d="M16979 14119
L16479 14119
" />
<path d="M16836 16238
L16836 16000
" />
<path d="M16979 16286
L16479 16119
L16979 15952
" />
<path d="M16279 9038
L15579 9038
" />
<path d="M16212 8305
L16245 8338
L16279 8438
L16279 8505
L16245 8605
L16179 8672
L16112 8705
L15979 8738
L15879 8738
L15745 8705
L15679 8672
L15612 8605
L15579 8505
L15579 8438
L15612 8338
L15645 8305
" />
<path d="M15579 8072
L15579 7638
L15845 7872
L15845 7772
L15879 7705
L15912 7672
L15979 7638
L16145 7638
L16212 7672
L16245 7705
L16279 7772
L16279 7972
L16245 8038
L16212 8072
" />
<path d="M17913 7362
L17913 7695
L17213 7695
" />
<path d="M17913 7128
L17213 7128
L17713 6895
L17213 6662
L17913 6662
" />
<path d="M17213 6395
L17213 5962
L17479 6195
L17479 6095
L17513 6028
L17546 5995
L17613 5962
L17779 5962
L17846 5995
L17879 6028
L17913 6095
L17913 6295
L17879 6362
L17846 6395
" />
<path d="M17913 5295
L17913 5695
" />
<path d="M17913 5495
L17213 5495
L17313 5562
L17379 5628
L17413 5695
" />
<path d="M17213 5062
L17213 4595
L17913 4895
" />
<path d="M17913 3995
L17913 4328
L17213 4328
" />
<path d="M16578 5915
L16578 5820
L16601 5772
L16649 5724
L16744 5700
L16911 5700
L17006 5724
L17054 5772
L17078 5820
L17078 5915
L17054 5962
L17006 6010
L16911 6034
L16744 6034
L16649 6010
L16601 5962
L16578 5915
" />
<path d="M17078 4867
L16578 4867
" />
<path d="M16935 6986
L16935 6748
" />
<path d="M17078 7034
L16578 6867
L17078 6700
" />
</g>
<g style="fill:#000000; fill-opacity:0.0; 
stroke:#000000; stroke-width:80; stroke-opacity:1; 
stroke-linecap:round; stroke-linejoin:round;">
<path d="M21851 10114
L21851 9564
L22042 9564
L22089 9590
L22113 9616
L22137 9669
L22137 9747
L22113 9799
L22089 9826
L22042 9852
L21851 9852
" />
<path d="M22327 9616
L22351 9590
L22399 9564
L22518 9564
L22565 9590
L22589 9616
L22613 9669
L22613 9721
L22589 9799
L22304 10114
L22613 10114
" />
<path d="M24286 9826
L24357 9852
L24381 9878
L24405 9930
L24405 10009
L24381 10061
L24357 10088
L24309 10114
L24119 10114
L24119 9564
L24286 9564
L24333 9590
L24357 9616
L24381 9669
L24381 9721
L24357 9773
L24333 9799
L24286 9826
L24119 9826
" />
<path d="M24857 9564
L24619 9564
L24595 9826
L24619 9799
L24667 9773
L24786 9773
L24833 9799
L24857 9826
L24881 9878
L24881 10009
L24857 10061
L24833 10088
L24786 10114
L24667 10114
L24619 10088
L24595 10061
" />
<path d="M25190 9564
L25238 9564
L25286 9590
L25309 9616
L25333 9669
L25357 9773
L25357 9904
L25333 10009
L25309 10061
L25286 10088
L25238 10114
L25190 10114
L25143 10088
L25119 10061
L25095 10009
L25071 9904
L25071 9773
L25095 9669
L25119 9616
L25143 9590
L25190 9564
" />
<path d="M25571 10114
L25571 9564
" />
<path d="M25857 10114
L25643 9799
" />
<path d="M25857 9564
L25571 9878
" />
<path d="M21851 13854
L21851 13304
L22042 13304
L22089 13330
L22113 13356
L22137 13409
L22137 13487
L22113 13540
L22089 13566
L22042 13592
L21851 13592
" />
<path d="M22304 13304
L22613 13304
L22446 13513
L22518 13513
L22565 13540
L22589 13566
L22613 13618
L22613 13749
L22589 13802
L22565 13828
L22518 13854
L22375 13854
L22327 13828
L22304 13802
" />
<path d="M24286 13566
L24357 13592
L24381 13618
L24405 13671
L24405 13749
L24381 13802
L24357 13828
L24309 13854
L24119 13854
L24119 13304
L24286 13304
L24333 13330
L24357 13356
L24381 13409
L24381 13461
L24357 13513
L24333 13540
L24286 13566
L24119 13566
" />
<path d="M24857 13304
L24619 13304
L24595 13566
L24619 13540
L24667 13513
L24786 13513
L24833 13540
L24857 13566
L24881 13618
L24881 13749
L24857 13802
L24833 13828
L24786 13854
L24667 13854
L24619 13828
L24595 13802
" />
<path d="M25190 13304
L25238 13304
L25286 13330
L25309 13356
L25333 13409
L25357 13513
L25357 13644
L25333 13749
L25309 13802
L25286 13828
L25238 13854
L25190 13854
L25143 13828
L25119 13802
L25095 13749
L25071 13644
L25071 13513
L25095 13409
L25119 13356
L25143 13330
L25190 13304
" />
<path d="M25571 13854
L25571 13304
" />
<path d="M25857 13854
L25643 13540
" />
<path d="M25857 13304
L25571 13618
" />
<path d="M31399 4741
L31418 4760
L31437 4817
L31437 4856
L31418 4913
L31380 4951
L31342 4970
L31266 4989
L31209 4989
L31132 4970
L31094 4951
L31056 4913
L31037 4856
L31037 4817
L31056 4760
L31075 4741
" />
<path d="M31037 4379
L31037 4570
L31228 4589
L31209 4570
L31190 4532
L31190 4437
L31209 4398
L31228 4379
L31266 4360
L31361 4360
L31399 4379
L31418 4398
L31437 4437
L31437 4532
L31418 4570
L31399 4589
" />
<path d="M28143 5198
L28410 5198
" />
<path d="M27991 5294
L28276 5389
L28276 5141
" />
<path d="M28010 5027
L28010 4760
L28410 4932
" />
<path d="M28143 4436
L28410 4436
" />
<path d="M28143 4608
L28352 4608
L28391 4589
L28410 4551
L28410 4494
L28391 4456
L28372 4436
" />
<path d="M28200 4113
L28200 4246
" />
<path d="M28410 4246
L28010 4246
L28010 4056
" />
<path d="M28622 18298
L28641 18317
L28660 18375
L28660 18413
L28641 18470
L28602 18508
L28564 18527
L28488 18546
L28431 18546
L28355 18527
L28317 18508
L28279 18470
L28260 18413
L28260 18375
L28279 18317
L28298 18298
" />
<path d="M28260 17956
L28260 18032
L28279 18070
L28298 18089
L28355 18127
L28431 18146
L28583 18146
L28622 18127
L28641 18108
L28660 18070
L28660 17994
L28641 17956
L28622 17936
L28583 17917
L28488 17917
L28450 17936
L28431 17956
L28412 17994
L28412 18070
L28431 18108
L28450 18127
L28488 18146
" />
<path d="M30393 18698
L30660 18698
" />
<path d="M30241 18794
L30526 18889
L30526 18641
" />
<path d="M30260 18527
L30260 18260
L30660 18432
" />
<path d="M30393 17936
L30660 17936
" />
<path d="M30393 18108
L30602 18108
L30641 18089
L30660 18051
L30660 17994
L30641 17956
L30622 17936
" />
<path d="M30450 17613
L30450 17746
" />
<path d="M30660 17746
L30260 17746
L30260 17556
" />
</g>
<g style="fill:#000000; fill-opacity:0.0; 
stroke:#000000; stroke-width:100; stroke-opacity:1; 
stroke-linecap:round; stroke-linejoin:round;">
<path d="M4084 17412
L4060 17436
L3989 17460
L3941 17460
L3869 17436
L3822 17388
L3798 17341
L3774 17245
L3774 17174
L3798 17079
L3822 17031
L3869 16983
L3941 16960
L3989 16960
L4060 16983
L4084 17007
" />
<path d="M4560 17460
L4274 17460
" />
<path d="M4417 17460
L4417 16960
L4369 17031
L4322 17079
L4274 17103
" />
<path d="M4869 16960
L4917 16960
L4965 16983
L4989 17007
L5012 17055
L5036 17150
L5036 17269
L5012 17364
L4989 17412
L4965 17436
L4917 17460
L4869 17460
L4822 17436
L4798 17412
L4774 17364
L4750 17269
L4750 17150
L4774 17055
L4798 17007
L4822 16983
L4869 16960
" />
<path d="M3393 19460
L3108 19460
" />
<path d="M3250 19460
L3250 18960
L3203 19031
L3155 19079
L3108 19103
" />
<path d="M3703 18960
L3750 18960
L3798 18983
L3822 19007
L3846 19055
L3869 19150
L3869 19269
L3846 19364
L3822 19412
L3798 19436
L3750 19460
L3703 19460
L3655 19436
L3631 19412
L3608 19364
L3584 19269
L3584 19150
L3608 19055
L3631 19007
L3655 18983
L3703 18960
" />
<path d="M4179 18960
L4227 18960
L4274 18983
L4298 19007
L4322 19055
L4346 19150
L4346 19269
L4322 19364
L4298 19412
L4274 19436
L4227 19460
L4179 19460
L4131 19436
L4108 19412
L4084 19364
L4060 19269
L4060 19150
L4084 19055
L4108 19007
L4131 18983
L4179 18960
" />
<path d="M4655 18960
L4703 18960
L4750 18983
L4774 19007
L4798 19055
L4822 19150
L4822 19269
L4798 19364
L4774 19412
L4750 19436
L4703 19460
L4655 19460
L4608 19436
L4584 19412
L4560 19364
L4536 19269
L4536 19150
L4560 19055
L4584 19007
L4608 18983
L4655 18960
" />
<path d="M5250 19126
L5250 19460
" />
<path d="M5036 19126
L5036 19388
L5060 19436
L5108 19460
L5179 19460
L5227 19436
L5250 19412
" />
<path d="M5655 19198
L5489 19198
" />
<path d="M5489 19460
L5489 18960
L5727 18960
" />
<path d="M5068 9636
L5044 9660
L4973 9684
L4925 9684
L4854 9660
L4806 9613
L4782 9565
L4759 9470
L4759 9398
L4782 9303
L4806 9256
L4854 9208
L4925 9184
L4973 9184
L5044 9208
L5068 9232
" />
<path d="M5544 9684
L5259 9684
" />
<path d="M5401 9684
L5401 9184
L5354 9256
L5306 9303
L5259 9327
" />
<path d="M6020 9684
L5735 9684
" />
<path d="M5878 9684
L5878 9184
L5830 9256
L5782 9303
L5735 9327
" />
<path d="M4378 11684
L4092 11684
" />
<path d="M4235 11684
L4235 11184
L4187 11256
L4139 11303
L4092 11327
" />
<path d="M4687 11184
L4735 11184
L4782 11208
L4806 11232
L4830 11279
L4854 11375
L4854 11494
L4830 11589
L4806 11636
L4782 11660
L4735 11684
L4687 11684
L4639 11660
L4616 11636
L4592 11589
L4568 11494
L4568 11375
L4592 11279
L4616 11232
L4639 11208
L4687 11184
" />
<path d="M5163 11184
L5211 11184
L5259 11208
L5282 11232
L5306 11279
L5330 11375
L5330 11494
L5306 11589
L5282 11636
L5259 11660
L5211 11684
L5163 11684
L5116 11660
L5092 11636
L5068 11589
L5044 11494
L5044 11375
L5068 11279
L5092 11232
L5116 11208
L5163 11184
" />
<path d="M5639 11184
L5687 11184
L5735 11208
L5759 11232
L5782 11279
L5806 11375
L5806 11494
L5782 11589
L5759 11636
L5735 11660
L5687 11684
L5639 11684
L5592 11660
L5568 11636
L5544 11589
L5520 11494
L5520 11375
L5544 11279
L5568 11232
L5592 11208
L5639 11184
" />
<path d="M6235 11351
L6235 11684
" />
<path d="M6020 11351
L6020 11613
L6044 11660
L6092 11684
L6163 11684
L6211 11660
L6235 11636
" />
<path d="M6639 11422
L6473 11422
" />
<path d="M6473 11684
L6473 11184
L6711 11184
" />
</g>
<g style="fill:#000000; fill-opacity:0.0; 
stroke:#000000; stroke-width:50; stroke-opacity:1; 
stroke-linecap:round; stroke-linejoin:round;">
<path d="M9911 13878
L9926 13892
L9940 13935
L9940 13964
L9926 14007
L9897 14035
L9869 14050
L9811 14064
L9769 14064
L9711 14050
L9683 14035
L9654 14007
L9640 13964
L9640 13935
L9654 13892
L9669 13878
" />
<path d="M9940 13592
L9940 13764
" />
<path d="M9940 13678
L9640 13678
L9683 13707
L9711 13735
L9726 13764
" />
<path d="M8559 17901
L8759 17901
" />
<path d="M8445 17961
L8659 18020
L8659 17866
" />
<path d="M8459 17794
L8459 17627
L8759 17735
" />
<path d="M8459 17485
L8459 17461
L8473 17437
L8487 17425
L8516 17413
L8573 17401
L8645 17401
L8702 17413
L8730 17425
L8745 17437
L8759 17461
L8759 17485
L8745 17508
L8730 17520
L8702 17532
L8645 17544
L8573 17544
L8516 17532
L8487 17520
L8473 17508
L8459 17485
" />
<path d="M8459 17246
L8459 17223
L8473 17199
L8487 17187
L8516 17175
L8573 17163
L8645 17163
L8702 17175
L8730 17187
L8745 17199
L8759 17223
L8759 17246
L8745 17270
L8730 17282
L8702 17294
L8645 17306
L8573 17306
L8516 17294
L8487 17282
L8473 17270
L8459 17246
" />
<path d="M8559 16949
L8759 16949
" />
<path d="M8559 17056
L8716 17056
L8745 17044
L8759 17020
L8759 16985
L8745 16961
L8730 16949
" />
<path d="M8602 16746
L8602 16830
" />
<path d="M8759 16830
L8459 16830
L8459 16711
" />
</g>
<g style="fill:#000000; fill-opacity:0.0; 
stroke:#000000; stroke-width:75; stroke-opacity:1; 
stroke-linecap:round; stroke-linejoin:round;">
<path d="M9826 15517
L9826 15289
" />
<path d="M9940 15403
L9711 15403
" />
</g>
<g style="fill:#000000; fill-opacity:0.0; 
stroke:#000000; stroke-width:80; stroke-opacity:1; 
stroke-linecap:round; stroke-linejoin:round;">
<path d="M22935 20430
L22954 20449
L22973 20506
L22973 20545
L22954 20602
L22915 20640
L22877 20659
L22801 20678
L22744 20678
L22668 20659
L22630 20640
L22592 20602
L22573 20545
L22573 20506
L22592 20449
L22611 20430
" />
<path d="M22973 20240
L22973 20164
L22954 20126
L22935 20106
L22877 20068
L22801 20049
L22649 20049
L22611 20068
L22592 20087
L22573 20126
L22573 20202
L22592 20240
L22611 20259
L22649 20278
L22744 20278
L22782 20259
L22801 20240
L22820 20202
L22820 20126
L22801 20087
L22782 20068
L22744 20049
" />
<path d="M22706 18168
L22973 18168
" />
<path d="M22554 18264
L22839 18359
L22839 18111
" />
<path d="M22573 17997
L22573 17730
L22973 17902
" />
<path d="M22573 17616
L22573 17368
L22725 17502
L22725 17445
L22744 17406
L22763 17387
L22801 17368
L22896 17368
L22935 17387
L22954 17406
L22973 17445
L22973 17559
L22954 17597
L22935 17616
" />
<path d="M26576 20332
L26595 20351
L26614 20408
L26614 20446
L26595 20503
L26557 20541
L26519 20560
L26443 20579
L26386 20579
L26310 20560
L26272 20541
L26233 20503
L26214 20446
L26214 20408
L26233 20351
L26252 20332
" />
<path d="M26386 20103
L26367 20141
L26348 20160
L26310 20179
L26291 20179
L26252 20160
L26233 20141
L26214 20103
L26214 20027
L26233 19989
L26252 19970
L26291 19951
L26310 19951
L26348 19970
L26367 19989
L26386 20027
L26386 20103
L26405 20141
L26424 20160
L26462 20179
L26538 20179
L26576 20160
L26595 20141
L26614 20103
L26614 20027
L26595 19989
L26576 19970
L26538 19951
L26462 19951
L26424 19970
L26405 19989
L26386 20027
" />
<path d="M26348 18070
L26614 18070
" />
<path d="M26195 18165
L26481 18260
L26481 18013
" />
<path d="M26214 17899
L26214 17632
L26614 17803
" />
<path d="M26348 17308
L26614 17308
" />
<path d="M26195 17403
L26481 17499
L26481 17251
" />
<path d="M26379 2340
L26398 2359
L26418 2416
L26418 2454
L26398 2511
L26360 2549
L26322 2568
L26246 2587
L26189 2587
L26113 2568
L26075 2549
L26037 2511
L26018 2454
L26018 2416
L26037 2359
L26056 2340
" />
<path d="M26018 2206
L26018 1940
L26418 2111
" />
<path d="M26151 5078
L26418 5078
" />
<path d="M25998 5173
L26284 5268
L26284 5021
" />
<path d="M26018 4906
L26018 4640
L26418 4811
" />
<path d="M26151 4316
L26418 4316
" />
<path d="M25998 4411
L26284 4506
L26284 4259
" />
</g>
<g style="fill:#000000; fill-opacity:0.0; 
stroke:#000000; stroke-width:50; stroke-opacity:1; 
stroke-linecap:round; stroke-linejoin:round;">
<circle cx="30998.2" cy="11482.2" r="3181.98" /> 
</g>
<g style="fill:#000000; fill-opacity:0.0; 
stroke:#000000; stroke-width:120; stroke-opacity:1; 
stroke-linecap:round; stroke-linejoin:round;">
<circle cx="10311.2" cy="11761.7" r="2195.45" /> 
</g>
<g style="fill:#000000; fill-opacity:0.0; 
stroke:#000000; stroke-width:50; stroke-opacity:1; 
stroke-linecap:round; stroke-linejoin:round;">
<circle cx="34998.2" cy="6232.22" r="1001.25" /> 
<circle cx="35248.2" cy="17232.2" r="1001.25" /> 
</g>
<g style="fill:#000000; fill-opacity:0.0; 
stroke:#000000; stroke-width:150; stroke-opacity:1; 
stroke-linecap:round; stroke-linejoin:round;">
<circle cx="4405.71" cy="3198.75" r="247.487" /> 
<circle cx="2141.93" cy="2214.5" r="247.487" /> 
<circle cx="6472.64" cy="2214.5" r="247.487" /> 
<circle cx="35748.2" cy="12232.2" r="247.487" /> 
<circle cx="35748.2" cy="10232.2" r="247.487" /> 
<circle cx="2338.78" cy="4871.98" r="247.487" /> 
<circle cx="35748.2" cy="13982.2" r="247.487" /> 
<circle cx="2338.78" cy="7824.74" r="247.487" /> 
</g>
<g style="fill:#000000; fill-opacity:0.0; 
stroke:#000000; stroke-width:80; stroke-opacity:1; 
stroke-linecap:round; stroke-linejoin:round;">
<path d="M32498 16732
L32498 16932
" />
<path d="M32498 19732
L32498 19532
" />
<path d="M32498 19532
L32898 19532
" />
<path d="M32898 19532
L32898 16932
" />
<path d="M32898 16932
L32098 16932
" />
<path d="M32098 16932
L32098 19532
" />
<path d="M32098 19532
L32498 19532
" />
<path d="M32698 16932
L32898 17132
" />
<path d="M33498 16732
L33498 16932
" />
<path d="M33498 19732
L33498 19532
" />
<path d="M33498 19532
L33898 19532
" />
<path d="M33898 19532
L33898 16932
" />
<path d="M33898 16932
L33098 16932
" />
<path d="M33098 16932
L33098 19532
" />
<path d="M33098 19532
L33498 19532
" />
<path d="M33698 16932
L33898 17132
" />
<path d="M33248 6732
L33248 6532
" />
<path d="M33248 3732
L33248 3932
" />
<path d="M33248 3932
L32848 3932
" />
<path d="M32848 3932
L32848 6532
" />
<path d="M32848 6532
L33648 6532
" />
<path d="M33648 6532
L33648 3932
" />
<path d="M33648 3932
L33248 3932
" />
<path d="M33048 6532
L32848 6332
" />
<path d="M32248 6732
L32248 6532
" />
<path d="M32248 3732
L32248 3932
" />
<path d="M32248 3932
L31848 3932
" />
<path d="M31848 3932
L31848 6532
" />
<path d="M31848 6532
L32648 6532
" />
<path d="M32648 6532
L32648 3932
" />
<path d="M32648 3932
L32248 3932
" />
<path d="M32048 6532
L31848 6332
" />
<path d="M25075 6273
L25075 6073
" />
<path d="M25075 3273
L25075 3473
" />
<path d="M25075 3473
L24675 3473
" />
<path d="M24675 3473
L24675 6073
" />
<path d="M24675 6073
L25475 6073
" />
<path d="M25475 6073
L25475 3473
" />
<path d="M25475 3473
L25075 3473
" />
<path d="M24875 6073
L24675 5873
" />
<path d="M25075 16265
L25075 16465
" />
<path d="M25075 19265
L25075 19065
" />
<path d="M25075 19065
L25475 19065
" />
<path d="M25475 19065
L25475 16465
" />
<path d="M25475 16465
L24675 16465
" />
<path d="M24675 16465
L24675 19065
" />
<path d="M24675 19065
L25075 19065
" />
<path d="M25275 16465
L25475 16665
" />
<path d="M24004 3224
L24004 3424
" />
<path d="M24004 6224
L24004 6024
" />
<path d="M24004 6024
L24404 6024
" />
<path d="M24404 6024
L24404 3424
" />
<path d="M24404 3424
L23604 3424
" />
<path d="M23604 3424
L23604 6024
" />
<path d="M23604 6024
L24004 6024
" />
<path d="M24204 3424
L24404 3624
" />
<path d="M23893 16265
L23893 16465
" />
<path d="M23893 19265
L23893 19065
" />
<path d="M23893 19065
L24293 19065
" />
<path d="M24293 19065
L24293 16465
" />
<path d="M24293 16465
L23493 16465
" />
<path d="M23493 16465
L23493 19065
" />
<path d="M23493 19065
L23893 19065
" />
<path d="M24093 16465
L24293 16665
" />
<path d="M13460 18970
L13460 18770
" />
<path d="M13460 15970
L13460 16170
" />
<path d="M13460 16170
L13060 16170
" />
<path d="M13060 16170
L13060 18770
" />
<path d="M13060 18770
L13860 18770
" />
<path d="M13860 18770
L13860 16170
" />
<path d="M13860 16170
L13460 16170
" />
<path d="M13260 18770
L13060 18570
" />
<path d="M9598 7726
L9798 7726
" />
<path d="M12598 7726
L12398 7726
" />
<path d="M12398 7726
L12398 7326
" />
<path d="M12398 7326
L9798 7326
" />
<path d="M9798 7326
L9798 8126
" />
<path d="M9798 8126
L12398 8126
" />
<path d="M12398 8126
L12398 7726
" />
<path d="M9798 7526
L9998 7326
" />
<path d="M3496 14025
L3696 14025
" />
<path d="M6496 14025
L6296 14025
" />
<path d="M6296 14025
L6296 13625
" />
<path d="M6296 13625
L3696 13625
" />
<path d="M3696 13625
L3696 14425
" />
<path d="M3696 14425
L6296 14425
" />
<path d="M6296 14425
L6296 14025
" />
<path d="M3696 13825
L3896 13625
" />
<path d="M3496 15305
L3696 15305
" />
<path d="M6496 15305
L6296 15305
" />
<path d="M6296 15305
L6296 14905
" />
<path d="M6296 14905
L3696 14905
" />
<path d="M3696 14905
L3696 15705
" />
<path d="M3696 15705
L6296 15705
" />
<path d="M6296 15705
L6296 15305
" />
<path d="M3696 15105
L3896 14905
" />
</g>
<g style="fill:#000000; fill-opacity:0.0; 
stroke:#000000; stroke-width:150; stroke-opacity:1; 
stroke-linecap:round; stroke-linejoin:round;">
<path d="M18382 11072
L22319 11072
" />
<path d="M22319 11072
L22319 18946
" />
<path d="M22319 18946
L18382 18946
" />
<path d="M18382 18946
L18382 11072
" />
</g>
<g style="fill:#000000; fill-opacity:0.0; 
stroke:#000000; stroke-width:80; stroke-opacity:1; 
stroke-linecap:round; stroke-linejoin:round;">
<path d="M19556 13709
L19556 16309
" />
<path d="M19956 13709
L19406 13709
" />
<path d="M19406 13709
L19406 16309
" />
<path d="M19406 16309
L20406 16309
" />
<path d="M20406 16309
L20406 13709
" />
<path d="M20406 13709
L19956 13709
" />
</g>
<g style="fill:#000000; fill-opacity:0.0; 
stroke:#000000; stroke-width:150; stroke-opacity:1; 
stroke-linecap:round; stroke-linejoin:round;">
<path d="M22417 9694
L18480 9694
" />
<path d="M18480 9694
L18480 1820
" />
<path d="M18480 1820
L22417 1820
" />
<path d="M22417 1820
L22417 9694
" />
</g>
<g style="fill:#000000; fill-opacity:0.0; 
stroke:#000000; stroke-width:80; stroke-opacity:1; 
stroke-linecap:round; stroke-linejoin:round;">
<path d="M21242 7057
L21242 4457
" />
<path d="M20842 7057
L21392 7057
" />
<path d="M21392 7057
L21392 4457
" />
<path d="M21392 4457
L20392 4457
" />
<path d="M20392 4457
L20392 7057
" />
<path d="M20392 7057
L20842 7057
" />
</g>
<g style="fill:#000000; fill-opacity:0.0; 
stroke:#000000; stroke-width:150; stroke-opacity:1; 
stroke-linecap:round; stroke-linejoin:round;">
<path d="M5685 3198
L5685 7135
" />
<path d="M5685 7135
L13559 7135
" />
<path d="M13559 7135
L13559 3198
" />
<path d="M13559 3198
L5685 3198
" />
</g>
<g style="fill:#000000; fill-opacity:0.0; 
stroke:#000000; stroke-width:26; stroke-opacity:1; 
stroke-linecap:round; stroke-linejoin:round;">
<path d="M10403 4155
L10903 4155
" />
<path d="M10903 4155
L10903 3805
" />
<path d="M10403 3805
L10903 3805
" />
<path d="M10403 4155
L10403 3805
" />
<path d="M10403 4805
L10903 4805
" />
<path d="M10903 4805
L10903 4155
" />
<path d="M10403 4155
L10903 4155
" />
<path d="M10403 4805
L10403 4155
" />
<path d="M9403 4155
L9903 4155
" />
<path d="M9903 4155
L9903 3805
" />
<path d="M9403 3805
L9903 3805
" />
<path d="M9403 4155
L9403 3805
" />
<path d="M8403 4155
L8903 4155
" />
<path d="M8903 4155
L8903 3805
" />
<path d="M8403 3805
L8903 3805
" />
<path d="M8403 4155
L8403 3805
" />
<path d="M9403 4805
L9903 4805
" />
<path d="M9903 4805
L9903 4155
" />
<path d="M9403 4155
L9903 4155
" />
<path d="M9403 4805
L9403 4155
" />
<path d="M8403 4805
L8903 4805
" />
<path d="M8903 4805
L8903 4155
" />
<path d="M8403 4155
L8903 4155
" />
<path d="M8403 4805
L8403 4155
" />
</g>
<g style="fill:#000000; fill-opacity:0.0; 
stroke:#000000; stroke-width:70; stroke-opacity:1; 
stroke-linecap:round; stroke-linejoin:round;">
<path d="M7603 3805
L11703 3805
" />
</g>
<g style="fill:#000000; fill-opacity:0.0; 
stroke:#000000; stroke-width:150; stroke-opacity:1; 
stroke-linecap:round; stroke-linejoin:round;">
<path d="M14801 13867
L14801 16307
" />
<path d="M14087 19071
L14083 10857
" />
<path d="M14067 10873
L18027 10857
" />
<path d="M18027 10857
L18011 19123
" />
<path d="M18011 19107
L14051 19107
" />
</g>
<g style="fill:#000000; fill-opacity:0.0; 
stroke:#000000; stroke-width:26; stroke-opacity:1; 
stroke-linecap:round; stroke-linejoin:round;">
<path d="M15127 14369
L15127 13869
" />
<path d="M15127 13869
L14777 13869
" />
<path d="M14777 14369
L14777 13869
" />
<path d="M15127 14369
L14777 14369
" />
<path d="M15777 14369
L15777 13869
" />
<path d="M15777 13869
L15127 13869
" />
<path d="M15127 14369
L15127 13869
" />
<path d="M15777 14369
L15127 14369
" />
<path d="M15127 15369
L15127 14869
" />
<path d="M15127 14869
L14777 14869
" />
<path d="M14777 15369
L14777 14869
" />
<path d="M15127 15369
L14777 15369
" />
<path d="M15127 16369
L15127 15869
" />
<path d="M15127 15869
L14777 15869
" />
<path d="M14777 16369
L14777 15869
" />
<path d="M15127 16369
L14777 16369
" />
<path d="M15777 15369
L15777 14869
" />
<path d="M15777 14869
L15127 14869
" />
<path d="M15127 15369
L15127 14869
" />
<path d="M15777 15369
L15127 15369
" />
<path d="M15777 16369
L15777 15869
" />
<path d="M15777 15869
L15127 15869
" />
<path d="M15127 16369
L15127 15869
" />
<path d="M15777 16369
L15127 16369
" />
</g>
<g style="fill:#000000; fill-opacity:0.0; 
stroke:#000000; stroke-width:150; stroke-opacity:1; 
stroke-linecap:round; stroke-linejoin:round;">
<path d="M14899 4615
L14899 7055
" />
<path d="M14185 9819
L14181 1605
" />
<path d="M14165 1621
L18125 1605
" />
<path d="M18125 1605
L18109 9871
" />
<path d="M18109 9855
L14149 9855
" />
</g>
<g style="fill:#000000; fill-opacity:0.0; 
stroke:#000000; stroke-width:26; stroke-opacity:1; 
stroke-linecap:round; stroke-linejoin:round;">
<path d="M15225 5117
L15225 4617
" />
<path d="M15225 4617
L14875 4617
" />
<path d="M14875 5117
L14875 4617
" />
<path d="M15225 5117
L14875 5117
" />
<path d="M15875 5117
L15875 4617
" />
<path d="M15875 4617
L15225 4617
" />
<path d="M15225 5117
L15225 4617
" />
<path d="M15875 5117
L15225 5117
" />
<path d="M15225 6117
L15225 5617
" />
<path d="M15225 5617
L14875 5617
" />
<path d="M14875 6117
L14875 5617
" />
<path d="M15225 6117
L14875 6117
" />
<path d="M15225 7117
L15225 6617
" />
<path d="M15225 6617
L14875 6617
" />
<path d="M14875 7117
L14875 6617
" />
<path d="M15225 7117
L14875 7117
" />
<path d="M15875 6117
L15875 5617
" />
<path d="M15875 5617
L15225 5617
" />
<path d="M15225 6117
L15225 5617
" />
<path d="M15875 6117
L15225 6117
" />
<path d="M15875 7117
L15875 6617
" />
<path d="M15875 6617
L15225 6617
" />
<path d="M15225 7117
L15225 6617
" />
<path d="M15875 7117
L15225 7117
" />
</g>
<g style="fill:#000000; fill-opacity:0.0; 
stroke:#000000; stroke-width:150; stroke-opacity:1; 
stroke-linecap:round; stroke-linejoin:round;">
<circle cx="24937.2" cy="9773.56" r="1060.07" /> 
<path d="M23008 9497
L23204 9497
" />
<path d="M23204 9497
L23204 9891
" />
<path d="M23204 9891
L23008 9891
" />
<path d="M23008 9891
L23008 9694
" />
<path d="M23008 8316
L26748 8316
" />
<path d="M26748 8316
L26748 11269
" />
<path d="M26748 11269
L23008 11269
" />
<path d="M23008 11269
L23008 8316
" />
<circle cx="24937.2" cy="13513.7" r="1060.07" /> 
<path d="M23008 13238
L23204 13238
" />
<path d="M23204 13238
L23204 13631
" />
<path d="M23204 13631
L23008 13631
" />
<path d="M23008 13631
L23008 13434
" />
<path d="M23008 12057
L26748 12057
" />
<path d="M26748 12057
L26748 15009
" />
<path d="M26748 15009
L23008 15009
" />
<path d="M23008 15009
L23008 12057
" />
</g>
<g style="fill:#000000; fill-opacity:0.0; 
stroke:#000000; stroke-width:120; stroke-opacity:1; 
stroke-linecap:round; stroke-linejoin:round;">
<circle cx="29248.2" cy="4732.22" r="1750" /> 
<circle cx="29498.2" cy="18232.2" r="1750" /> 
<circle cx="4405.71" cy="18257.8" r="2195.45" /> 
<circle cx="5389.96" cy="10482.2" r="2195.45" /> 
</g>
<g style="fill:#000000; fill-opacity:0.0; 
stroke:#000000; stroke-width:150; stroke-opacity:1; 
stroke-linecap:round; stroke-linejoin:round;">
<path d="M11197 19931
L8441 19931
" />
<circle cx="9819.09" cy="17372" r="2952.76" /> 
<circle cx="19350.6" cy="20029.5" r="247.487" /> 
<circle cx="20850.6" cy="20029.5" r="247.487" /> 
<circle cx="26240.4" cy="2312.93" r="247.487" /> 
<circle cx="27740.4" cy="2312.93" r="247.487" /> 
</g>
<g style="fill:#000000; fill-opacity:0.0; 
stroke:#000000; stroke-width:120; stroke-opacity:1; 
stroke-linecap:round; stroke-linejoin:round;">
<path d="M23211 16464
L23211 19264
" />
<path d="M23211 19264
L22411 19264
" />
<path d="M22411 19264
L22411 16464
" />
<path d="M22411 16464
L23211 16464
" />
<path d="M23011 16464
L23211 16664
" />
<path d="M26852 16365
L26852 19165
" />
<path d="M26852 19165
L26052 19165
" />
<path d="M26052 19165
L26052 16365
" />
<path d="M26052 16365
L26852 16365
" />
<path d="M26652 16365
L26852 16565
" />
<path d="M25856 6173
L25856 3373
" />
<path d="M25856 3373
L26656 3373
" />
<path d="M26656 3373
L26656 6173
" />
<path d="M26656 6173
L25856 6173
" />
<path d="M26056 6173
L25856 5973
" />
</g>
<g style="fill:#000000; fill-opacity:0.0; 
stroke:#000000; stroke-width:39.3701; stroke-opacity:1; 
stroke-linecap:round; stroke-linejoin:round;">
</g>
<g style="fill:#000000; fill-opacity:1.0; 
stroke:#000000; stroke-width:39.3701; stroke-opacity:1; 
stroke-linecap:round; stroke-linejoin:round;">
<polyline style="fill-rule:evenodd;"
points="28517,14001
29478,14001
29478,14962
28517,14962
28517,14001
" /> 
<circle cx="30998.2" cy="14482.2" r="480.315" /> 
<circle cx="32998.2" cy="14482.2" r="480.315" /> 
<circle cx="33998.2" cy="12482.2" r="480.315" /> 
<circle cx="33998.2" cy="10482.2" r="480.315" /> 
<circle cx="32998.2" cy="8482.22" r="480.315" /> 
<circle cx="30998.2" cy="8482.22" r="480.315" /> 
<circle cx="28998.2" cy="8482.22" r="480.315" /> 
<circle cx="27998.2" cy="10482.2" r="480.315" /> 
<polyline style="fill-rule:evenodd;"
points="11641,11431
11641,12092
10980,12092
10980,11431
11641,11431
" /> 
<circle cx="9311.22" cy="11761.7" r="330.315" /> 
<polyline style="fill-rule:evenodd;"
points="34242,6487
34242,5976
34753,5976
34753,6487
34242,6487
" /> 
<circle cx="35498.2" cy="6232.22" r="255.315" /> 
<polyline style="fill-rule:evenodd;"
points="34492,17487
34492,16976
35003,16976
35003,17487
34492,17487
" /> 
<circle cx="35748.2" cy="17232.2" r="255.315" /> 
<circle cx="4405.71" cy="3198.75" r="480.315" /> 
<circle cx="2141.93" cy="2214.5" r="480.315" /> 
<circle cx="6472.64" cy="2214.5" r="480.315" /> 
<circle cx="35748.2" cy="12232.2" r="480.315" /> 
<circle cx="35748.2" cy="10232.2" r="480.315" /> 
<circle cx="2338.78" cy="4871.98" r="480.315" /> 
<circle cx="35748.2" cy="13982.2" r="480.315" /> 
<circle cx="2338.78" cy="7824.74" r="480.315" /> 
<circle cx="32498.2" cy="16732.2" r="255.315" /> 
<circle cx="32498.2" cy="19732.2" r="255.315" /> 
<circle cx="33498.2" cy="16732.2" r="255.315" /> 
<circle cx="33498.2" cy="19732.2" r="255.315" /> 
<circle cx="33248.2" cy="6732.22" r="255.315" /> 
<circle cx="33248.2" cy="3732.22" r="255.315" /> 
<circle cx="32248.2" cy="6732.22" r="255.315" /> 
<circle cx="32248.2" cy="3732.22" r="255.315" /> 
<circle cx="25075" cy="6273.56" r="255.315" /> 
<circle cx="25075" cy="3273.56" r="255.315" /> 
<circle cx="25075" cy="16265.7" r="255.315" /> 
<circle cx="25075" cy="19265.7" r="255.315" /> 
<circle cx="24004.1" cy="3224.34" r="255.315" /> 
<circle cx="24004.1" cy="6224.34" r="255.315" /> 
<circle cx="23893.9" cy="16265.7" r="255.315" /> 
<circle cx="23893.9" cy="19265.7" r="255.315" /> 
<circle cx="13460.8" cy="18970.4" r="255.315" /> 
<circle cx="13460.8" cy="15970.4" r="255.315" /> 
<circle cx="9598.62" cy="7726.31" r="255.315" /> 
<circle cx="12598.6" cy="7726.31" r="255.315" /> 
<circle cx="3496.26" cy="14025.5" r="255.315" /> 
<circle cx="6496.26" cy="14025.5" r="255.315" /> 
<circle cx="3496.26" cy="15305.1" r="255.315" /> 
<circle cx="6496.26" cy="15305.1" r="255.315" /> 
<circle cx="19956.9" cy="15009.8" r="305.315" /> 
<circle cx="19956.9" cy="14109.8" r="305.315" /> 
<circle cx="19956.9" cy="15909.8" r="305.315" /> 
<circle cx="20842.7" cy="5757.81" r="305.315" /> 
<circle cx="20842.7" cy="6657.81" r="305.315" /> 
<circle cx="20842.7" cy="4857.81" r="305.315" /> 
</g>
<g style="fill:#000000; fill-opacity:1.0; 
stroke:#000000; stroke-width:600; stroke-opacity:1; 
stroke-linecap:round; stroke-linejoin:round;">
<path d="M9653 4505
L9653 5105
" />
<path d="M8653 4505
L8653 5105
" />
<path d="M10653 4505
L10653 5105
" />
<path d="M15477 16119
L16077 16119
" />
<path d="M15477 15119
L16077 15119
" />
<path d="M15477 14119
L16077 14119
" />
<path d="M15575 6867
L16175 6867
" />
<path d="M15575 5867
L16175 5867
" />
<path d="M15575 4867
L16175 4867
" />
</g>
<g style="fill:#000000; fill-opacity:1.0; 
stroke:#000000; stroke-width:39.3701; stroke-opacity:1; 
stroke-linecap:round; stroke-linejoin:round;">
<circle cx="24189.2" cy="8907.41" r="380.315" /> 
<circle cx="26228.5" cy="9852.3" r="380.315" /> 
<circle cx="24189.2" cy="10679.1" r="380.315" /> 
<circle cx="24189.2" cy="12647.6" r="380.315" /> 
<circle cx="26228.5" cy="13592.5" r="380.315" /> 
<circle cx="24189.2" cy="14419.2" r="380.315" /> 
<polyline style="fill-rule:evenodd;"
points="29578,6062
28917,6062
28917,5401
29578,5401
29578,6062
" /> 
<circle cx="29248.2" cy="3732.22" r="330.315" /> 
<polyline style="fill-rule:evenodd;"
points="29167,16901
29828,16901
29828,17562
29167,17562
29167,16901
" /> 
<circle cx="29498.2" cy="19232.2" r="330.315" /> 
<polyline style="fill-rule:evenodd;"
points="5736,17927
5736,18588
5075,18588
5075,17927
5736,17927
" /> 
<circle cx="3405.71" cy="18257.8" r="330.315" /> 
<polyline style="fill-rule:evenodd;"
points="6720,10151
6720,10812
6059,10812
6059,10151
6720,10151
" /> 
<circle cx="4389.96" cy="10482.2" r="330.315" /> 
<polyline style="fill-rule:evenodd;"
points="9563,15935
10074,15935
10074,16446
9563,16446
9563,15935
" /> 
<circle cx="9819.09" cy="18553.1" r="255.315" /> 
<circle cx="20850.6" cy="20029.5" r="480.315" /> 
<circle cx="19350.6" cy="20029.5" r="480.315" /> 
<circle cx="27740.4" cy="2312.93" r="480.315" /> 
<circle cx="26240.4" cy="2312.93" r="480.315" /> 
<circle cx="22811.2" cy="16864.1" r="374.016" /> 
<circle cx="22811.2" cy="18864.1" r="374.016" /> 
<circle cx="26453" cy="16765.7" r="374.016" /> 
<circle cx="26453" cy="18765.7" r="374.016" /> 
<circle cx="26256.1" cy="5773.56" r="374.016" /> 
<circle cx="26256.1" cy="3773.56" r="374.016" /> 
</g> 
</svg>
