<?xml version="1.0" standalone="no"?>
 <!DOCTYPE svg PUBLIC "-//W3C//DTD SVG 1.1//EN" 
 "http://www.w3.org/Graphics/SVG/1.1/DTD/svg11.dtd"> 
<svg xmlns="http://www.w3.org/2000/svg" version="1.1" 
    width="29.7002cm" height="21.0007cm" viewBox="0 0 116930 82680 ">
<title>SVG Picture created as HeadphoneAmp-Back.svg date 2014/06/04 21:15:22 </title>
  <desc>Picture generated by PCBNEW </desc>
<g style="fill:#000000; fill-opacity:1;stroke:#000000; stroke-opacity:1;
stroke-linecap:round; stroke-linejoin:round; "
 transform="translate(0 0) scale(1 1)">
</g>
<g style="fill:#000000; fill-opacity:0.0; 
stroke:#000000; stroke-width:39.3701; stroke-opacity:1; 
stroke-linecap:round; stroke-linejoin:round;">
<path d="M4000 4000
L112930 4000
L112930 78680
L4000 78680
L4000 4000
" />
<path d="M4700 4700
L112230 4700
L112230 77980
L4700 77980
L4700 4700
" />
<path d="M25780 4000
L25780 4700
" />
<path d="M15032 4552
L14747 4552
" />
<path d="M14890 4552
L14890 4052
L14842 4123
L14794 4171
L14747 4195
" />
<path d="M25780 78680
L25780 77980
" />
<path d="M15032 78532
L14747 78532
" />
<path d="M14890 78532
L14890 78032
L14842 78103
L14794 78151
L14747 78175
" />
<path d="M47560 4000
L47560 4700
" />
<path d="M36527 4100
L36550 4076
L36598 4052
L36717 4052
L36765 4076
L36789 4100
L36812 4147
L36812 4195
L36789 4266
L36503 4552
L36812 4552
" />
<path d="M47560 78680
L47560 77980
" />
<path d="M36527 78080
L36550 78056
L36598 78032
L36717 78032
L36765 78056
L36789 78080
L36812 78127
L36812 78175
L36789 78246
L36503 78532
L36812 78532
" />
<path d="M69340 4000
L69340 4700
" />
<path d="M58283 4052
L58592 4052
L58426 4242
L58497 4242
L58545 4266
L58569 4290
L58592 4338
L58592 4457
L58569 4504
L58545 4528
L58497 4552
L58354 4552
L58307 4528
L58283 4504
" />
<path d="M69340 78680
L69340 77980
" />
<path d="M58283 78032
L58592 78032
L58426 78222
L58497 78222
L58545 78246
L58569 78270
L58592 78318
L58592 78437
L58569 78484
L58545 78508
L58497 78532
L58354 78532
L58307 78508
L58283 78484
" />
<path d="M91120 4000
L91120 4700
" />
<path d="M80325 4219
L80325 4552
" />
<path d="M80206 4028
L80087 4385
L80396 4385
" />
<path d="M91120 78680
L91120 77980
" />
<path d="M80325 78199
L80325 78532
" />
<path d="M80206 78008
L80087 78365
L80396 78365
" />
<path d="M102129 4052
L101890 4052
L101867 4290
L101890 4266
L101938 4242
L102057 4242
L102105 4266
L102129 4290
L102152 4338
L102152 4457
L102129 4504
L102105 4528
L102057 4552
L101938 4552
L101890 4528
L101867 4504
" />
<path d="M102129 78032
L101890 78032
L101867 78270
L101890 78246
L101938 78222
L102057 78222
L102105 78246
L102129 78270
L102152 78318
L102152 78437
L102129 78484
L102105 78508
L102057 78532
L101938 78532
L101890 78508
L101867 78484
" />
<path d="M4000 28890
L4700 28890
" />
<path d="M4230 16509
L4469 16509
" />
<path d="M4183 16652
L4350 16152
L4516 16652
" />
<path d="M112930 28890
L112230 28890
" />
<path d="M112460 16509
L112699 16509
" />
<path d="M112413 16652
L112580 16152
L112746 16652
" />
<path d="M4000 53780
L4700 53780
" />
<path d="M4385 41280
L4457 41304
L4480 41328
L4504 41375
L4504 41447
L4480 41494
L4457 41518
L4409 41542
L4219 41542
L4219 41042
L4385 41042
L4433 41066
L4457 41090
L4480 41137
L4480 41185
L4457 41232
L4433 41256
L4385 41280
L4219 41280
" />
<path d="M112930 53780
L112230 53780
" />
<path d="M112615 41280
L112687 41304
L112710 41328
L112734 41375
L112734 41447
L112710 41494
L112687 41518
L112639 41542
L112449 41542
L112449 41042
L112615 41042
L112663 41066
L112687 41090
L112710 41137
L112710 41185
L112687 41232
L112663 41256
L112615 41280
L112449 41280
" />
<path d="M4504 66384
L4480 66408
L4409 66432
L4361 66432
L4290 66408
L4242 66360
L4219 66313
L4195 66218
L4195 66146
L4219 66051
L4242 66003
L4290 65956
L4361 65932
L4409 65932
L4480 65956
L4504 65980
" />
<path d="M112734 66384
L112710 66408
L112639 66432
L112591 66432
L112520 66408
L112472 66360
L112449 66313
L112425 66218
L112425 66146
L112449 66051
L112472 66003
L112520 65956
L112591 65932
L112639 65932
L112710 65956
L112734 65980
" />
<path d="M79380 76422
L79455 75822
L79597 75822
L79680 75851
L79730 75908
L79751 75965
L79765 76080
L79755 76165
L79712 76280
L79676 76337
L79612 76394
L79522 76422
L79380 76422
" />
<path d="M80237 76422
L80276 76108
L80255 76051
L80201 76022
L80087 76022
L80026 76051
" />
<path d="M80240 76394
L80180 76422
L80037 76422
L79983 76394
L79962 76337
L79969 76280
L80005 76222
L80065 76194
L80208 76194
L80269 76165
" />
<path d="M80487 76022
L80715 76022
" />
<path d="M80597 75822
L80533 76337
L80555 76394
L80608 76422
L80665 76422
" />
<path d="M81097 76394
L81037 76422
L80922 76422
L80869 76394
L80847 76337
L80876 76108
L80912 76051
L80972 76022
L81087 76022
L81140 76051
L81162 76108
L81155 76165
L80862 76222
" />
<path d="M81387 76365
L81412 76394
L81380 76422
L81355 76394
L81387 76365
L81380 76422
" />
<path d="M81426 76051
L81451 76080
L81419 76108
L81394 76080
L81426 76051
L81419 76108
" />
<path d="M82437 76422
L82094 76422
" />
<path d="M82265 76422
L82340 75822
L82272 75908
L82208 75965
L82147 75994
" />
<path d="M83201 76022
L83137 76537
L83101 76594
L83040 76622
L83012 76622
" />
<path d="M83226 75822
L83194 75851
L83219 75880
L83251 75851
L83226 75822
L83219 75880
" />
<path d="M83744 76022
L83694 76422
" />
<path d="M83487 76022
L83447 76337
L83469 76394
L83522 76422
L83608 76422
L83669 76394
L83701 76365
" />
<path d="M84030 76022
L83980 76422
" />
<path d="M84022 76080
L84055 76051
L84115 76022
L84201 76022
L84255 76051
L84276 76108
L84237 76422
" />
<path d="M85019 75880
L85051 75851
L85112 75822
L85255 75822
L85308 75851
L85333 75880
L85355 75937
L85347 75994
L85308 76080
L84922 76422
L85294 76422
" />
<path d="M85740 75822
L85797 75822
L85851 75851
L85876 75880
L85897 75937
L85912 76051
L85894 76194
L85851 76308
L85815 76365
L85783 76394
L85722 76422
L85665 76422
L85612 76394
L85587 76365
L85565 76308
L85551 76194
L85569 76051
L85612 75937
L85647 75880
L85680 75851
L85740 75822
" />
<path d="M86437 76422
L86094 76422
" />
<path d="M86265 76422
L86340 75822
L86272 75908
L86208 75965
L86147 75994
" />
<path d="M87001 76022
L86951 76422
" />
<path d="M86887 75794
L86690 76222
L87062 76222
" />
<path d="M70972 77622
L70972 77022
" />
<path d="M71315 77622
L71058 77280
" />
<path d="M71315 77022
L70972 77365
" />
<path d="M71572 77622
L71572 77222
" />
<path d="M71572 77022
L71544 77051
L71572 77080
L71601 77051
L71572 77022
L71572 77080
" />
<path d="M72201 77565
L72172 77594
L72087 77622
L72030 77622
L71944 77594
L71887 77537
L71858 77480
L71830 77365
L71830 77280
L71858 77165
L71887 77108
L71944 77051
L72030 77022
L72087 77022
L72172 77051
L72201 77080
" />
<path d="M72715 77622
L72715 77308
L72687 77251
L72630 77222
L72515 77222
L72458 77251
" />
<path d="M72715 77594
L72658 77622
L72515 77622
L72458 77594
L72430 77537
L72430 77480
L72458 77422
L72515 77394
L72658 77394
L72715 77365
" />
<path d="M73258 77622
L73258 77022
" />
<path d="M73258 77594
L73201 77622
L73087 77622
L73030 77594
L73001 77565
L72972 77508
L72972 77337
L73001 77280
L73030 77251
L73087 77222
L73201 77222
L73258 77251
" />
<path d="M74001 77308
L74201 77308
" />
<path d="M74287 77622
L74001 77622
L74001 77022
L74287 77022
" />
<path d="M74544 77565
L74572 77594
L74544 77622
L74515 77594
L74544 77565
L74544 77622
" />
<path d="M74829 77622
L74829 77022
L74972 77022
L75058 77051
L75115 77108
L75144 77165
L75172 77280
L75172 77365
L75144 77480
L75115 77537
L75058 77594
L74972 77622
L74829 77622
" />
<path d="M75429 77565
L75458 77594
L75429 77622
L75401 77594
L75429 77565
L75429 77622
" />
<path d="M75687 77451
L75972 77451
" />
<path d="M75629 77622
L75829 77022
L76029 77622
" />
<path d="M76229 77565
L76258 77594
L76229 77622
L76201 77594
L76229 77565
L76229 77622
" />
<path d="M104522 76422
L104358 76137
" />
<path d="M104180 76422
L104255 75822
L104483 75822
L104537 75851
L104562 75880
L104583 75937
L104572 76022
L104537 76080
L104505 76108
L104444 76137
L104215 76137
" />
<path d="M105012 76394
L104951 76422
L104837 76422
L104783 76394
L104762 76337
L104790 76108
L104826 76051
L104887 76022
L105001 76022
L105055 76051
L105076 76108
L105069 76165
L104776 76222
" />
<path d="M105287 76022
L105380 76422
L105572 76022
" />
<path d="M105758 76365
L105783 76394
L105751 76422
L105726 76394
L105758 76365
L105751 76422
" />
<path d="M105797 76051
L105822 76080
L105790 76108
L105765 76080
L105797 76051
L105790 76108
" />
<path d="M70944 76394
L71030 76422
L71172 76422
L71230 76394
L71258 76365
L71287 76308
L71287 76251
L71258 76194
L71230 76165
L71172 76137
L71058 76108
L71001 76080
L70972 76051
L70944 75994
L70944 75937
L70972 75880
L71001 75851
L71058 75822
L71201 75822
L71287 75851
" />
<path d="M71544 76422
L71544 76022
" />
<path d="M71544 75822
L71515 75851
L71544 75880
L71572 75851
L71544 75822
L71544 75880
" />
<path d="M71772 76022
L72087 76022
L71772 76422
L72087 76422
" />
<path d="M72544 76394
L72487 76422
L72372 76422
L72315 76394
L72287 76337
L72287 76108
L72315 76051
L72372 76022
L72487 76022
L72544 76051
L72572 76108
L72572 76165
L72287 76222
" />
<path d="M72830 76365
L72858 76394
L72830 76422
L72801 76394
L72830 76365
L72830 76422
" />
<path d="M72830 76051
L72858 76080
L72830 76108
L72801 76080
L72830 76051
L72830 76108
" />
<path d="M73544 76251
L73830 76251
" />
<path d="M73487 76422
L73687 75822
L73887 76422
" />
<path d="M74344 76022
L74344 76422
" />
<path d="M74201 75794
L74058 76222
L74430 76222
" />
<path d="M104172 77622
L104172 77022
" />
<path d="M104715 77622
L104715 77022
" />
<path d="M104715 77594
L104658 77622
L104544 77622
L104487 77594
L104458 77565
L104430 77508
L104430 77337
L104458 77280
L104487 77251
L104544 77222
L104658 77222
L104715 77251
" />
<path d="M105001 77565
L105030 77594
L105001 77622
L104972 77594
L105001 77565
L105001 77622
" />
<path d="M105001 77251
L105030 77280
L105001 77308
L104972 77280
L105001 77251
L105001 77308
" />
<path d="M106058 77622
L105715 77622
" />
<path d="M105887 77622
L105887 77022
L105829 77108
L105772 77165
L105715 77194
" />
<path d="M106744 76994
L106230 77765
" />
<path d="M107258 77622
L106915 77622
" />
<path d="M107087 77622
L107087 77022
L107029 77108
L106972 77165
L106915 77194
" />
<path d="M70969 74622
L71312 74622
" />
<path d="M71065 75222
L71140 74622
" />
<path d="M71437 75222
L71487 74822
" />
<path d="M71512 74622
L71480 74651
L71505 74680
L71537 74651
L71512 74622
L71505 74680
" />
<path d="M71687 74822
L71915 74822
" />
<path d="M71797 74622
L71733 75137
L71755 75194
L71808 75222
L71865 75222
" />
<path d="M72151 75222
L72097 75194
L72076 75137
L72140 74622
" />
<path d="M72612 75194
L72551 75222
L72437 75222
L72383 75194
L72362 75137
L72390 74908
L72426 74851
L72487 74822
L72601 74822
L72655 74851
L72676 74908
L72669 74965
L72376 75022
" />
<path d="M72901 75165
L72926 75194
L72894 75222
L72869 75194
L72901 75165
L72894 75222
" />
<path d="M72940 74851
L72965 74880
L72933 74908
L72908 74880
L72940 74851
L72933 74908
" />
<path d="M71172 72508
L70972 72508
" />
<path d="M70972 72822
L70972 72222
L71258 72222
" />
<path d="M71487 72822
L71487 72422
" />
<path d="M71487 72222
L71458 72251
L71487 72280
L71515 72251
L71487 72222
L71487 72280
" />
<path d="M71858 72822
L71801 72794
L71772 72737
L71772 72222
" />
<path d="M72315 72794
L72258 72822
L72144 72822
L72087 72794
L72058 72737
L72058 72508
L72087 72451
L72144 72422
L72258 72422
L72315 72451
L72344 72508
L72344 72565
L72058 72622
" />
<path d="M72601 72765
L72630 72794
L72601 72822
L72572 72794
L72601 72765
L72601 72822
" />
<path d="M72601 72451
L72630 72480
L72601 72508
L72572 72480
L72601 72451
L72601 72508
" />
<path d="M73344 72822
L73344 72222
" />
<path d="M73344 72508
L73687 72508
" />
<path d="M73687 72822
L73687 72222
" />
<path d="M74201 72794
L74144 72822
L74030 72822
L73972 72794
L73944 72737
L73944 72508
L73972 72451
L74030 72422
L74144 72422
L74201 72451
L74230 72508
L74230 72565
L73944 72622
" />
<path d="M74744 72822
L74744 72508
L74715 72451
L74658 72422
L74544 72422
L74487 72451
" />
<path d="M74744 72794
L74687 72822
L74544 72822
L74487 72794
L74458 72737
L74458 72680
L74487 72622
L74544 72594
L74687 72594
L74744 72565
" />
<path d="M75287 72822
L75287 72222
" />
<path d="M75287 72794
L75230 72822
L75115 72822
L75058 72794
L75030 72765
L75001 72708
L75001 72537
L75030 72480
L75058 72451
L75115 72422
L75230 72422
L75287 72451
" />
<path d="M75572 72422
L75572 73022
" />
<path d="M75572 72451
L75630 72422
L75744 72422
L75801 72451
L75830 72480
L75858 72537
L75858 72708
L75830 72765
L75801 72794
L75744 72822
L75630 72822
L75572 72794
" />
<path d="M76115 72822
L76115 72222
" />
<path d="M76372 72822
L76372 72508
L76344 72451
L76287 72422
L76201 72422
L76144 72451
L76115 72480
" />
<path d="M76744 72822
L76687 72794
L76658 72765
L76630 72708
L76630 72537
L76658 72480
L76687 72451
L76744 72422
L76830 72422
L76887 72451
L76915 72480
L76944 72537
L76944 72708
L76915 72765
L76887 72794
L76830 72822
L76744 72822
" />
<path d="M77201 72422
L77201 72822
" />
<path d="M77201 72480
L77230 72451
L77287 72422
L77372 72422
L77430 72451
L77458 72508
L77458 72822
" />
<path d="M77972 72794
L77915 72822
L77801 72822
L77744 72794
L77715 72737
L77715 72508
L77744 72451
L77801 72422
L77915 72422
L77972 72451
L78001 72508
L78001 72565
L77715 72622
" />
<path d="M78230 72651
L78515 72651
" />
<path d="M78172 72822
L78372 72222
L78572 72822
" />
<path d="M78772 72822
L78772 72422
" />
<path d="M78772 72480
L78801 72451
L78858 72422
L78944 72422
L79001 72451
L79030 72508
L79030 72822
" />
<path d="M79030 72508
L79058 72451
L79115 72422
L79201 72422
L79258 72451
L79287 72508
L79287 72822
" />
<path d="M79572 72422
L79572 73022
" />
<path d="M79572 72451
L79630 72422
L79744 72422
L79801 72451
L79830 72480
L79858 72537
L79858 72708
L79830 72765
L79801 72794
L79744 72822
L79630 72822
L79572 72794
" />
<path d="M80115 72765
L80144 72794
L80115 72822
L80087 72794
L80115 72765
L80115 72822
" />
<path d="M80401 72822
L80401 72222
" />
<path d="M80401 72451
L80458 72422
L80572 72422
L80630 72451
L80658 72480
L80687 72537
L80687 72708
L80658 72765
L80630 72794
L80572 72822
L80458 72822
L80401 72794
" />
<path d="M80944 72822
L80944 72422
" />
<path d="M80944 72537
L80972 72480
L81001 72451
L81058 72422
L81115 72422
" />
<path d="M81572 72822
L81572 72222
" />
<path d="M81572 72794
L81515 72822
L81401 72822
L81344 72794
L81315 72765
L81287 72708
L81287 72537
L81315 72480
L81344 72451
L81401 72422
L81515 72422
L81572 72451
" />
<path d="M70944 73994
L71030 74022
L71172 74022
L71230 73994
L71258 73965
L71287 73908
L71287 73851
L71258 73794
L71230 73765
L71172 73737
L71058 73708
L71001 73680
L70972 73651
L70944 73594
L70944 73537
L70972 73480
L71001 73451
L71058 73422
L71201 73422
L71287 73451
" />
<path d="M71544 74022
L71544 73422
" />
<path d="M71801 74022
L71801 73708
L71772 73651
L71715 73622
L71630 73622
L71572 73651
L71544 73680
" />
<path d="M72315 73994
L72258 74022
L72144 74022
L72087 73994
L72058 73937
L72058 73708
L72087 73651
L72144 73622
L72258 73622
L72315 73651
L72344 73708
L72344 73765
L72058 73822
" />
<path d="M72830 73994
L72772 74022
L72658 74022
L72601 73994
L72572 73937
L72572 73708
L72601 73651
L72658 73622
L72772 73622
L72830 73651
L72858 73708
L72858 73765
L72572 73822
" />
<path d="M73030 73622
L73258 73622
" />
<path d="M73115 73422
L73115 73937
L73144 73994
L73201 74022
L73258 74022
" />
<path d="M73458 73965
L73487 73994
L73458 74022
L73430 73994
L73458 73965
L73458 74022
" />
<path d="M73458 73651
L73487 73680
L73458 73708
L73430 73680
L73458 73651
L73458 73708
" />
<path d="M70230 71980
L70230 77980
" />
<path d="M70230 71980
L112230 71980
" />
<path d="M70230 71980
L112230 71980
" />
<path d="M70230 74380
L112230 74380
" />
<path d="M103430 75580
L103430 77980
" />
<path d="M70230 76780
L112230 76780
" />
<path d="M70230 75580
L112230 75580
" />
<path d="M76830 75580
L76830 76780
" />
</g>
<g style="fill:#808000; fill-opacity:0.0; 
stroke:#808000; stroke-width:39.3701; stroke-opacity:1; 
stroke-linecap:round; stroke-linejoin:round;">
</g>
<g style="fill:#808000; fill-opacity:1.0; 
stroke:#808000; stroke-width:39.3701; stroke-opacity:1; 
stroke-linecap:round; stroke-linejoin:round;">
<polyline style="fill-rule:evenodd;"
points="74013,40527
74974,40527
74974,41488
74013,41488
74013,40527
" /> 
<circle cx="76494.1" cy="41007.9" r="480.315" /> 
<circle cx="78494.1" cy="41007.9" r="480.315" /> 
<circle cx="79494.1" cy="39007.9" r="480.315" /> 
<circle cx="79494.1" cy="37007.9" r="480.315" /> 
<circle cx="78494.1" cy="35007.9" r="480.315" /> 
<circle cx="76494.1" cy="35007.9" r="480.315" /> 
<circle cx="74494.1" cy="35007.9" r="480.315" /> 
<circle cx="73494.1" cy="37007.9" r="480.315" /> 
<polyline style="fill-rule:evenodd;"
points="57137,37957
57137,38617
56476,38617
56476,37957
57137,37957
" /> 
<circle cx="54807.1" cy="38287.4" r="330.315" /> 
<polyline style="fill-rule:evenodd;"
points="79738,33013
79738,32502
80249,32502
80249,33013
79738,33013
" /> 
<circle cx="80994.1" cy="32757.9" r="255.315" /> 
<polyline style="fill-rule:evenodd;"
points="79988,44013
79988,43502
80499,43502
80499,44013
79988,44013
" /> 
<circle cx="81244.1" cy="43757.9" r="255.315" /> 
<circle cx="49901.6" cy="29724.4" r="480.315" /> 
<circle cx="47637.8" cy="28740.2" r="480.315" /> 
<circle cx="51968.5" cy="28740.2" r="480.315" /> 
<circle cx="81244.1" cy="38757.9" r="480.315" /> 
<circle cx="81244.1" cy="36757.9" r="480.315" /> 
<circle cx="47834.6" cy="31397.6" r="480.315" /> 
<circle cx="81244.1" cy="40507.9" r="480.315" /> 
<circle cx="47834.6" cy="34350.4" r="480.315" /> 
<circle cx="77994.1" cy="43257.9" r="255.315" /> 
<circle cx="77994.1" cy="46257.9" r="255.315" /> 
<circle cx="78994.1" cy="43257.9" r="255.315" /> 
<circle cx="78994.1" cy="46257.9" r="255.315" /> 
<circle cx="78744.1" cy="33257.9" r="255.315" /> 
<circle cx="78744.1" cy="30257.9" r="255.315" /> 
<circle cx="77744.1" cy="33257.9" r="255.315" /> 
<circle cx="77744.1" cy="30257.9" r="255.315" /> 
<circle cx="70570.9" cy="32799.2" r="255.315" /> 
<circle cx="70570.9" cy="29799.2" r="255.315" /> 
<circle cx="70570.9" cy="42791.3" r="255.315" /> 
<circle cx="70570.9" cy="45791.3" r="255.315" /> 
<circle cx="69500" cy="29750" r="255.315" /> 
<circle cx="69500" cy="32750" r="255.315" /> 
<circle cx="69389.8" cy="42791.3" r="255.315" /> 
<circle cx="69389.8" cy="45791.3" r="255.315" /> 
<circle cx="58956.7" cy="45496.1" r="255.315" /> 
<circle cx="58956.7" cy="42496.1" r="255.315" /> 
<circle cx="55094.5" cy="34252" r="255.315" /> 
<circle cx="58094.5" cy="34252" r="255.315" /> 
<circle cx="48992.1" cy="40551.2" r="255.315" /> 
<circle cx="51992.1" cy="40551.2" r="255.315" /> 
<circle cx="48992.1" cy="41830.7" r="255.315" /> 
<circle cx="51992.1" cy="41830.7" r="255.315" /> 
<circle cx="65452.8" cy="41535.4" r="305.315" /> 
<circle cx="65452.8" cy="40635.4" r="305.315" /> 
<circle cx="65452.8" cy="42435.4" r="305.315" /> 
<circle cx="66338.6" cy="32283.5" r="305.315" /> 
<circle cx="66338.6" cy="33183.5" r="305.315" /> 
<circle cx="66338.6" cy="31383.5" r="305.315" /> 
</g>
<g style="fill:#808000; fill-opacity:1.0; 
stroke:#808000; stroke-width:600; stroke-opacity:1; 
stroke-linecap:round; stroke-linejoin:round;">
<path d="M55149 31030
L55149 31630
" />
<path d="M54149 31030
L54149 31630
" />
<path d="M56149 31030
L56149 31630
" />
<path d="M60973 42645
L61573 42645
" />
<path d="M60973 41645
L61573 41645
" />
<path d="M60973 40645
L61573 40645
" />
<path d="M61071 33393
L61671 33393
" />
<path d="M61071 32393
L61671 32393
" />
<path d="M61071 31393
L61671 31393
" />
</g>
<g style="fill:#808000; fill-opacity:1.0; 
stroke:#808000; stroke-width:39.3701; stroke-opacity:1; 
stroke-linecap:round; stroke-linejoin:round;">
<circle cx="69685" cy="35433.1" r="380.315" /> 
<circle cx="71724.4" cy="36378" r="380.315" /> 
<circle cx="69685" cy="37204.7" r="380.315" /> 
<circle cx="69685" cy="39173.2" r="380.315" /> 
<circle cx="71724.4" cy="40118.1" r="380.315" /> 
<circle cx="69685" cy="40944.9" r="380.315" /> 
<polyline style="fill-rule:evenodd;"
points="75074,32588
74413,32588
74413,31927
75074,31927
75074,32588
" /> 
<circle cx="74744.1" cy="30257.9" r="330.315" /> 
<polyline style="fill-rule:evenodd;"
points="74663,43427
75324,43427
75324,44088
74663,44088
74663,43427
" /> 
<circle cx="74994.1" cy="45757.9" r="330.315" /> 
<polyline style="fill-rule:evenodd;"
points="51231,44453
51231,45113
50571,45113
50571,44453
51231,44453
" /> 
<circle cx="48901.6" cy="44783.5" r="330.315" /> 
<polyline style="fill-rule:evenodd;"
points="52216,36677
52216,37338
51555,37338
51555,36677
52216,36677
" /> 
<circle cx="49885.8" cy="37007.9" r="330.315" /> 
<polyline style="fill-rule:evenodd;"
points="55059,42461
55570,42461
55570,42971
55059,42971
55059,42461
" /> 
<circle cx="55315" cy="45078.7" r="255.315" /> 
<circle cx="66346.5" cy="46555.1" r="480.315" /> 
<circle cx="64846.5" cy="46555.1" r="480.315" /> 
<circle cx="73236.2" cy="28838.6" r="480.315" /> 
<circle cx="71736.2" cy="28838.6" r="480.315" /> 
<circle cx="68307.1" cy="43389.8" r="374.016" /> 
<circle cx="68307.1" cy="45389.8" r="374.016" /> 
<circle cx="71948.8" cy="43291.3" r="374.016" /> 
<circle cx="71948.8" cy="45291.3" r="374.016" /> 
<circle cx="71752" cy="32299.2" r="374.016" /> 
<circle cx="71752" cy="30299.2" r="374.016" /> 
</g>
<g style="fill:#C0C0C0; fill-opacity:1.0; 
stroke:#C0C0C0; stroke-width:39.3701; stroke-opacity:1; 
stroke-linecap:round; stroke-linejoin:round;">
<circle cx="63385.8" cy="33366.1" r="275.591" /> 
<circle cx="63385.8" cy="28543.3" r="275.591" /> 
<circle cx="52165.4" cy="46259.8" r="275.591" /> 
<circle cx="52165.4" cy="42716.5" r="275.591" /> 
<circle cx="53838.6" cy="36614.2" r="275.591" /> 
<circle cx="57677.2" cy="36417.3" r="275.591" /> 
<circle cx="64862.2" cy="45472.4" r="275.591" /> 
<circle cx="64862.2" cy="43700.8" r="275.591" /> 
<circle cx="67519.7" cy="46555.1" r="275.591" /> 
<circle cx="72933.1" cy="45964.6" r="275.591" /> 
<circle cx="68011.8" cy="42126" r="275.591" /> 
<circle cx="67913.4" cy="33464.6" r="275.591" /> 
</g>
<g style="fill:#00A000; fill-opacity:1.0; 
stroke:#00A000; stroke-width:472.441; stroke-opacity:1; 
stroke-linecap:round; stroke-linejoin:round;">
<path d="M47637 28740
L49212 28740
" />
<path d="M51968 28740
L50787 28740
" />
<path d="M51968 28740
L63188 28740
" />
<path d="M63188 28740
L63385 28543
" />
<path d="M51968 28740
L51574 28740
" />
<path d="M47933 28444
L47637 28740
" />
<path d="M51279 28444
L47933 28444
" />
<path d="M51574 28740
L51279 28444
" />
<path d="M61273 42645
L61273 44540
" />
<path d="M61273 44540
L61318 44586
" />
<path d="M61371 33393
L63358 33393
" />
<path d="M63358 33393
L63385 33366
" />
<path d="M63287 28444
L53051 28444
" />
<path d="M63385 28543
L63287 28444
" />
<path d="M68307 45389
L67141 45389
" />
<path d="M66338 44586
L61318 44586
" />
<path d="M67141 45389
L66338 44586
" />
<path d="M47834 28444
L51673 28444
" />
<path d="M68307 45389
L68307 46456
" />
<path d="M68307 46456
L68602 46751
" />
<path d="M68602 46751
L74000 46751
" />
<path d="M74000 46751
L74994 45757
" />
<path d="M51992 41830
L51992 42543
" />
<path d="M55314 46259
L55314 45078
" />
<path d="M52165 46259
L55314 46259
" />
<path d="M51992 42543
L52165 42716
" />
<path d="M54807 38287
L54807 34539
" />
<path d="M54807 34539
L55094 34251
" />
<path d="M55094 34251
L55094 31385
" />
<path d="M55094 31385
L55149 31330
" />
<path d="M51992 41830
L51992 40551
" />
<path d="M55149 31330
L55149 30543
" />
<path d="M53051 28444
L51673 28444
" />
<path d="M55149 30543
L54429 29822
" />
<path d="M54429 29822
L53051 28444
" />
<path d="M51992 40551
L52543 40551
" />
<path d="M52543 40551
L54807 38287
" />
<path d="M55314 45078
L58440 45078
" />
<path d="M59161 45389
L58956 45594
" />
<path d="M61318 45389
L59161 45389
" />
<path d="M58440 45078
L58956 45594
" />
<path d="M61318 45389
L61318 44586
" />
<path d="M61318 44586
L61318 44488
" />
<path d="M61318 43576
L61273 43531
" />
<path d="M61318 44488
L61318 43576
" />
<path d="M82494 39007
L82494 31507
" />
<path d="M81244 30257
L78744 30257
" />
<path d="M82494 31507
L81244 30257
" />
<path d="M81244 38757
L82244 38757
" />
<path d="M81494 46257
L78994 46257
" />
<path d="M82494 45257
L81494 46257
" />
<path d="M82494 39007
L82494 45257
" />
<path d="M82244 38757
L82494 39007
" />
<path d="M81244 38757
L79744 38757
" />
<path d="M79744 38757
L79494 39007
" />
<path d="M77744 30257
L74744 30257
" />
<path d="M78744 30257
L77744 30257
" />
<path d="M78994 46257
L77994 46257
" />
<path d="M77994 46257
L77494 45757
" />
<path d="M77494 45757
L74994 45757
" />
</g>
<g style="fill:#00A000; fill-opacity:1.0; 
stroke:#00A000; stroke-width:393.701; stroke-opacity:1; 
stroke-linecap:round; stroke-linejoin:round;">
<path d="M61273 40645
L59157 40645
" />
<path d="M51688 43996
L50901 44783
" />
<path d="M56397 43996
L51688 43996
" />
<path d="M56791 43602
L56397 43996
" />
<path d="M56791 43011
L56791 43602
" />
<path d="M59157 40645
L56791 43011
" />
<path d="M61273 40645
L65442 40645
" />
<path d="M65442 40645
L65452 40635
" />
<path d="M69685 35433
L70779 35433
" />
<path d="M70779 35433
L71724 36377
" />
<path d="M71751 32299
L71933 32299
" />
<path d="M73236 30996
L73236 28838
" />
<path d="M71933 32299
L73236 30996
" />
<path d="M70779 35433
L71724 36377
" />
<path d="M71724 36377
L71724 32326
" />
<path d="M71724 32326
L71751 32299
" />
<path d="M71724 36377
L72283 36377
" />
<path d="M77478 36023
L78494 35007
" />
<path d="M72637 36023
L77478 36023
" />
<path d="M72283 36377
L72637 36023
" />
<path d="M71751 32299
L71070 32299
" />
<path d="M71070 32299
L70570 32799
" />
<path d="M66338 33183
L65171 33183
" />
<path d="M65171 33183
L63381 31393
" />
<path d="M63381 31393
L61371 31393
" />
<path d="M51885 37007
L53444 37007
" />
<path d="M53444 37007
L53838 36614
" />
<path d="M57677 36417
L64960 36417
" />
<path d="M64960 36417
L65171 36206
" />
<path d="M65171 36206
L65171 33183
" />
<path d="M49885 37007
L49885 33448
" />
<path d="M49885 33448
L47834 31397
" />
<path d="M48992 40551
L48992 37901
" />
<path d="M48992 37901
L49885 37007
" />
<path d="M61371 32393
L59953 32393
" />
<path d="M59953 32393
L58094 34251
" />
<path d="M76494 35007
L77429 35007
" />
<path d="M77946 34055
L78744 33257
" />
<path d="M77559 34055
L77946 34055
" />
<path d="M77460 34153
L77559 34055
" />
<path d="M77460 34976
L77460 34153
" />
<path d="M77429 35007
L77460 34976
" />
<path d="M79994 32757
L79244 32757
" />
<path d="M79244 32757
L78744 33257
" />
<path d="M69389 45791
L69389 44389
" />
<path d="M67322 42814
L65452 42814
" />
<path d="M67322 44291
L67322 42814
" />
<path d="M67421 44389
L67322 44291
" />
<path d="M69389 44389
L67421 44389
" />
<path d="M65452 42814
L65551 42814
" />
<path d="M65551 42814
L65452 42814
" />
<path d="M64846 46555
L64846 45488
" />
<path d="M64846 45488
L64862 45472
" />
<path d="M64862 43700
L65452 43110
" />
<path d="M65452 43110
L65452 42814
" />
<path d="M65452 42814
L65452 42435
" />
<path d="M69389 45791
L70570 45791
" />
<path d="M71948 45291
L71070 45291
" />
<path d="M71070 45291
L70570 45791
" />
<path d="M78994 43257
L78994 44037
" />
<path d="M76494 42501
L76494 41007
" />
<path d="M76377 42618
L76494 42501
" />
<path d="M73720 42618
L76377 42618
" />
<path d="M73720 44783
L73720 42618
" />
<path d="M78248 44783
L73720 44783
" />
<path d="M78994 44037
L78248 44783
" />
<path d="M78994 43257
L79744 43257
" />
<path d="M79744 43257
L80244 43757
" />
<path d="M69500 29750
L67972 29750
" />
<path d="M67972 29750
L66338 31383
" />
<path d="M71751 30299
L71751 28854
" />
<path d="M71751 28854
L71736 28838
" />
<path d="M69500 29750
L70521 29750
" />
<path d="M71070 30299
L71751 30299
" />
<path d="M70521 29750
L71070 30299
" />
<path d="M80994 32757
L80994 36507
" />
<path d="M80994 36507
L81244 36757
" />
<path d="M49901 29724
L49901 30413
" />
<path d="M50818 31330
L54149 31330
" />
<path d="M49901 30413
L50818 31330
" />
<path d="M61273 41645
L59807 41645
" />
<path d="M59807 41645
L58956 42496
" />
<path d="M47834 34350
L47834 41338
" />
<path d="M48326 41830
L48992 41830
" />
<path d="M47834 41338
L48326 41830
" />
<path d="M48901 44783
L48901 41921
" />
<path d="M48901 41921
L48992 41830
" />
<path d="M77744 33257
L76244 33257
" />
<path d="M76244 33257
L74494 35007
" />
<path d="M77744 33257
L75744 33257
" />
<path d="M75744 33257
L74744 32257
" />
<path d="M67519 46555
L66346 46555
" />
<path d="M72917 43291
L71948 43291
" />
<path d="M72933 43307
L72917 43291
" />
<path d="M72933 45964
L72933 43307
" />
<path d="M71724 40118
L72614 41007
" />
<path d="M70570 42791
L71448 42791
" />
<path d="M71448 42791
L71948 43291
" />
<path d="M69685 39173
L70779 39173
" />
<path d="M70779 39173
L71724 40118
" />
<path d="M71948 43291
L71948 40342
" />
<path d="M71948 40342
L72614 41007
" />
<path d="M72614 41007
L74494 41007
" />
<path d="M81244 40507
L81244 43757
" />
<path d="M68307 43389
L68307 42421
" />
<path d="M68307 42421
L68011 42125
" />
<path d="M69500 32750
L68627 32750
" />
<path d="M69019 42421
L69389 42791
" />
<path d="M68307 42421
L69019 42421
" />
<path d="M68627 32750
L67913 33464
" />
<path d="M78494 41007
L78494 41257
" />
<path d="M77994 41757
L77994 43257
" />
<path d="M78494 41257
L77994 41757
" />
<path d="M77994 43257
L77494 43757
" />
<path d="M77494 43757
L74994 43757
" />
<path d="M69685 40944
L67125 40944
" />
<path d="M67125 40944
L67224 40944
" />
<path d="M67224 40944
L67125 40944
" />
<path d="M67125 37204
L67125 40944
" />
<path d="M67125 40944
L67125 41141
" />
<path d="M66732 41535
L65452 41535
" />
<path d="M67125 41141
L66732 41535
" />
<path d="M66338 32283
L67125 32283
" />
<path d="M67125 36417
L67125 37204
" />
<path d="M67125 32283
L67125 36417
" />
<path d="M56807 38287
L56807 37417
" />
<path d="M56149 36759
L56149 31330
" />
<path d="M56807 37417
L56149 36759
" />
<path d="M55314 42716
L55314 39779
" />
<path d="M55314 39779
L56807 38287
" />
<path d="M69685 37204
L67125 37204
" />
<path d="M67125 37204
L57889 37204
" />
<path d="M57889 37204
L56807 38287
" />
<path d="M69685 37204
L70767 37204
" />
<path d="M78411 38090
L79494 37007
" />
<path d="M71653 38090
L78411 38090
" />
<path d="M70767 37204
L71653 38090
" />
</g>
<g style="fill:#FFFFFF; fill-opacity:1.0; 
stroke:#FFFFFF; stroke-width:39.3701; stroke-opacity:1; 
stroke-linecap:round; stroke-linejoin:round;">
<circle cx="63385.8" cy="33366.1" r="137.795" /> 
<circle cx="63385.8" cy="28543.3" r="137.795" /> 
<circle cx="52165.4" cy="46259.8" r="137.795" /> 
<circle cx="52165.4" cy="42716.5" r="137.795" /> 
<circle cx="53838.6" cy="36614.2" r="137.795" /> 
<circle cx="57677.2" cy="36417.3" r="137.795" /> 
<circle cx="64862.2" cy="45472.4" r="137.795" /> 
<circle cx="64862.2" cy="43700.8" r="137.795" /> 
<circle cx="67519.7" cy="46555.1" r="137.795" /> 
<circle cx="72933.1" cy="45964.6" r="137.795" /> 
<circle cx="68011.8" cy="42126" r="137.795" /> 
<circle cx="67913.4" cy="33464.6" r="137.795" /> 
<circle cx="74494.1" cy="41007.9" r="176.815" /> 
<circle cx="76494.1" cy="41007.9" r="176.815" /> 
<circle cx="78494.1" cy="41007.9" r="176.815" /> 
<circle cx="79494.1" cy="39007.9" r="176.815" /> 
<circle cx="79494.1" cy="37007.9" r="176.815" /> 
<circle cx="78494.1" cy="35007.9" r="176.815" /> 
<circle cx="76494.1" cy="35007.9" r="176.815" /> 
<circle cx="74494.1" cy="35007.9" r="176.815" /> 
<circle cx="73494.1" cy="37007.9" r="176.815" /> 
<circle cx="56807.1" cy="38287.4" r="180.315" /> 
<circle cx="54807.1" cy="38287.4" r="180.315" /> 
<circle cx="79994.1" cy="32757.9" r="140.315" /> 
<circle cx="80994.1" cy="32757.9" r="140.315" /> 
<circle cx="80244.1" cy="43757.9" r="140.315" /> 
<circle cx="81244.1" cy="43757.9" r="140.315" /> 
<circle cx="49901.6" cy="29724.4" r="230.315" /> 
<circle cx="47637.8" cy="28740.2" r="230.315" /> 
<circle cx="51968.5" cy="28740.2" r="230.315" /> 
<circle cx="81244.1" cy="38757.9" r="230.315" /> 
<circle cx="81244.1" cy="36757.9" r="230.315" /> 
<circle cx="47834.6" cy="31397.6" r="230.315" /> 
<circle cx="81244.1" cy="40507.9" r="230.315" /> 
<circle cx="47834.6" cy="34350.4" r="230.315" /> 
<circle cx="77994.1" cy="43257.9" r="140.315" /> 
<circle cx="77994.1" cy="46257.9" r="140.315" /> 
<circle cx="78994.1" cy="43257.9" r="140.315" /> 
<circle cx="78994.1" cy="46257.9" r="140.315" /> 
<circle cx="78744.1" cy="33257.9" r="140.315" /> 
<circle cx="78744.1" cy="30257.9" r="140.315" /> 
<circle cx="77744.1" cy="33257.9" r="140.315" /> 
<circle cx="77744.1" cy="30257.9" r="140.315" /> 
<circle cx="70570.9" cy="32799.2" r="140.315" /> 
<circle cx="70570.9" cy="29799.2" r="140.315" /> 
<circle cx="70570.9" cy="42791.3" r="140.315" /> 
<circle cx="70570.9" cy="45791.3" r="140.315" /> 
<circle cx="69500" cy="29750" r="140.315" /> 
<circle cx="69500" cy="32750" r="140.315" /> 
<circle cx="69389.8" cy="42791.3" r="140.315" /> 
<circle cx="69389.8" cy="45791.3" r="140.315" /> 
<circle cx="58956.7" cy="45496.1" r="140.315" /> 
<circle cx="58956.7" cy="42496.1" r="140.315" /> 
<circle cx="55094.5" cy="34252" r="140.315" /> 
<circle cx="58094.5" cy="34252" r="140.315" /> 
<circle cx="48992.1" cy="40551.2" r="140.315" /> 
<circle cx="51992.1" cy="40551.2" r="140.315" /> 
<circle cx="48992.1" cy="41830.7" r="140.315" /> 
<circle cx="51992.1" cy="41830.7" r="140.315" /> 
<circle cx="65452.8" cy="41535.4" r="180.315" /> 
<circle cx="65452.8" cy="40635.4" r="180.315" /> 
<circle cx="65452.8" cy="42435.4" r="180.315" /> 
<circle cx="66338.6" cy="32283.5" r="180.315" /> 
<circle cx="66338.6" cy="33183.5" r="180.315" /> 
<circle cx="66338.6" cy="31383.5" r="180.315" /> 
<circle cx="55149.6" cy="31330.7" r="180.315" /> 
<circle cx="54149.6" cy="31330.7" r="180.315" /> 
<circle cx="56149.6" cy="31330.7" r="180.315" /> 
<circle cx="61273.2" cy="42645.3" r="180.315" /> 
<circle cx="61273.2" cy="41645.3" r="180.315" /> 
<circle cx="61273.2" cy="40645.3" r="180.315" /> 
<circle cx="61371.7" cy="33393.3" r="180.315" /> 
<circle cx="61371.7" cy="32393.3" r="180.315" /> 
<circle cx="61371.7" cy="31393.3" r="180.315" /> 
<circle cx="69685" cy="35433.1" r="230.315" /> 
<circle cx="71724.4" cy="36378" r="230.315" /> 
<circle cx="69685" cy="37204.7" r="230.315" /> 
<circle cx="69685" cy="39173.2" r="230.315" /> 
<circle cx="71724.4" cy="40118.1" r="230.315" /> 
<circle cx="69685" cy="40944.9" r="230.315" /> 
<circle cx="74744.1" cy="32257.9" r="180.315" /> 
<circle cx="74744.1" cy="30257.9" r="180.315" /> 
<circle cx="74994.1" cy="43757.9" r="180.315" /> 
<circle cx="74994.1" cy="45757.9" r="180.315" /> 
<circle cx="50901.6" cy="44783.5" r="180.315" /> 
<circle cx="48901.6" cy="44783.5" r="180.315" /> 
<circle cx="51885.8" cy="37007.9" r="180.315" /> 
<circle cx="49885.8" cy="37007.9" r="180.315" /> 
<circle cx="55315" cy="42716.5" r="140.315" /> 
<circle cx="55315" cy="45078.7" r="140.315" /> 
<circle cx="66346.5" cy="46555.1" r="230.315" /> 
<circle cx="64846.5" cy="46555.1" r="230.315" /> 
<circle cx="73236.2" cy="28838.6" r="230.315" /> 
<circle cx="71736.2" cy="28838.6" r="230.315" /> 
<circle cx="68307.1" cy="43389.8" r="140.315" /> 
<circle cx="68307.1" cy="45389.8" r="140.315" /> 
<circle cx="71948.8" cy="43291.3" r="140.315" /> 
<circle cx="71948.8" cy="45291.3" r="140.315" /> 
<circle cx="71752" cy="32299.2" r="140.315" /> 
<circle cx="71752" cy="30299.2" r="140.315" /> 
</g> 
</svg>
