M48
;DRILL file {Pcbnew (2013-jul-07)-stable} date Sun 01 Jun 2014 20:26:43 NZST
;FORMAT={-:-/ absolute / metric / decimal}
FMAT,2
METRIC,TZ
T1C0.800
T2C0.813
T3C0.998
T4C1.016
T5C1.270
%
G90
G05
M71
T1
X132.5Y-108.5
X132.5Y-117.5
X136.75Y-93.
X146.5Y-92.5
X161.Y-72.5
X161.Y-84.75
X164.75Y-111.
X164.75Y-115.5
X171.5Y-118.25
X172.5Y-85.
X172.75Y-107.
X185.25Y-116.75
T2
X124.44Y-103.
X124.44Y-106.25
X132.06Y-103.
X132.06Y-106.25
X139.94Y-87.
X140.5Y-108.5
X140.5Y-114.5
X147.56Y-87.
X149.75Y-107.94
X149.75Y-115.56
X173.5Y-110.21
X173.5Y-115.29
X176.25Y-108.69
X176.25Y-116.31
X176.53Y-75.565
X176.53Y-83.185
X179.25Y-75.69
X179.25Y-83.31
X179.25Y-108.69
X179.25Y-116.31
X182.25Y-76.96
X182.25Y-82.04
X182.75Y-109.96
X182.75Y-115.04
X197.47Y-76.855
X197.47Y-84.475
X198.105Y-109.875
X198.105Y-117.495
X200.01Y-76.855
X200.01Y-84.475
X200.645Y-109.875
X200.645Y-117.495
X203.185Y-83.205
X203.82Y-111.145
X205.725Y-83.205
X206.36Y-111.145
T3
X186.675Y-94.
X189.215Y-88.92
X189.215Y-104.16
X194.295Y-88.92
X194.295Y-104.16
X199.375Y-88.92
X199.375Y-104.16
X201.915Y-94.
X201.915Y-99.08
T4
X124.21Y-113.75
X126.71Y-94.
X129.29Y-113.75
X131.79Y-94.
X137.54Y-79.58
X139.21Y-97.25
X140.08Y-79.58
X142.62Y-79.58
X144.29Y-97.25
X155.634Y-103.239
X155.634Y-105.779
X155.634Y-108.319
X155.884Y-79.739
X155.884Y-82.279
X155.884Y-84.819
X166.25Y-103.214
X166.25Y-105.5
X166.25Y-107.786
X168.5Y-79.714
X168.5Y-82.
X168.5Y-84.286
X189.85Y-76.855
X189.85Y-81.935
X190.485Y-111.145
X190.485Y-116.225
T5
X121.Y-73.
X121.5Y-79.75
X121.5Y-87.25
X126.75Y-75.5
X132.Y-73.
X164.71Y-118.25
X168.52Y-118.25
X177.Y-90.
X177.Y-94.5
X177.Y-99.5
X177.Y-104.
X182.18Y-92.4
X182.18Y-101.9
X182.21Y-73.25
X186.02Y-73.25
X206.36Y-93.365
X206.36Y-98.445
X206.36Y-102.89
T0
M30
